SplineFontDB: 3.0
FontName: Gandom
FullName: Gandom
FamilyName: Gandom
Weight: Regular
Copyright: Copyright (c) 2003 by Bitstream, Inc. All Rights Reserved.\nDejaVu changes are in public domain\nCopyright (c) 2015 by Saber Rastikerdar. All Rights Reserved.\nNon-Arabic(Latin) glyphs and data are imported from Noto Serif font under the Apache License, Version 2.0.
Version: 0.8
ItalicAngle: 0
UnderlinePosition: -500
UnderlineWidth: 100
Ascent: 1638
Descent: 410
InvalidEm: 0
LayerCount: 2
Layer: 0 1 "Back" 1
Layer: 1 1 "Fore" 0
XUID: [1021 502 1027637223 7335572]
UniqueID: 4193122
UseUniqueID: 1
FSType: 0
OS2Version: 1
OS2_WeightWidthSlopeOnly: 0
OS2_UseTypoMetrics: 1
CreationTime: 1431850356
ModificationTime: 1561408490
PfmFamily: 17
TTFWeight: 400
TTFWidth: 5
LineGap: 0
VLineGap: 0
Panose: 2 11 6 3 3 8 4 2 2 4
OS2TypoAscent: 2200
OS2TypoAOffset: 0
OS2TypoDescent: -1100
OS2TypoDOffset: 0
OS2TypoLinegap: 0
OS2WinAscent: 2200
OS2WinAOffset: 0
OS2WinDescent: 1100
OS2WinDOffset: 0
HheadAscent: 2200
HheadAOffset: 0
HheadDescent: -1100
HheadDOffset: 0
OS2SubXSize: 1331
OS2SubYSize: 1433
OS2SubXOff: 0
OS2SubYOff: 286
OS2SupXSize: 1331
OS2SupYSize: 1433
OS2SupXOff: 0
OS2SupYOff: 983
OS2StrikeYSize: 102
OS2StrikeYPos: 530
OS2Vendor: 'PfEd'
OS2CodePages: 00000041.20080000
OS2UnicodeRanges: 8000200f.80000000.00000008.00000000
Lookup: 1 9 0 "'fina' Terminal Forms in Arabic lookup 9" { "'fina' Terminal Forms in Arabic lookup 9 subtable"  } ['fina' ('arab' <'KUR ' 'SND ' 'URD ' 'dflt' > ) ]
Lookup: 1 9 0 "'medi' Medial Forms in Arabic lookup 11" { "'medi' Medial Forms in Arabic lookup 11 subtable"  } ['medi' ('arab' <'KUR ' 'SND ' 'URD ' 'dflt' > ) ]
Lookup: 1 9 0 "'init' Initial Forms in Arabic lookup 13" { "'init' Initial Forms in Arabic lookup 13 subtable"  } ['init' ('arab' <'KUR ' 'SND ' 'URD ' 'dflt' > ) ]
Lookup: 4 1 1 "'rlig' Required Ligatures in Arabic lookup 14" { "'rlig' Required Ligatures in Arabic lookup 14 subtable"  } ['rlig' ('arab' <'KUR ' 'dflt' > ) ]

StartChar: afii57388
Encoding: 1548 1548 2
Width: 748
VWidth: 3387
GlyphClass: 2
Flags: W
LayerCount: 2
Fore
SplineSet
347.104492188 291.157226562 m 1,0,-1
 377.288085938 286.469726562 l 2,1,2
 429.049804688 277.705078125 429.049804688 277.705078125 457.995117188 250.865234375 c 128,-1,3
 486.94140625 224.024414062 486.94140625 224.024414062 494.057617188 178.534179688 c 0,4,5
 508.380859375 86.9619140625 508.380859375 86.9619140625 461.092773438 40.724609375 c 0,6,7
 437.278320312 17.439453125 437.278320312 17.439453125 408.123046875 7.2197265625 c 128,-1,8
 378.96875 -2.9990234375 378.96875 -2.9990234375 344.098632812 -0.251953125 c 0,9,10
 188.869140625 13.3505859375 188.869140625 13.3505859375 205.232421875 205.591796875 c 0,11,12
 226.3984375 458.793945312 226.3984375 458.793945312 495.876953125 620.994140625 c 0,13,14
 527.19140625 639.887695312 527.19140625 639.887695312 535.71875 632.469726562 c 0,15,16
 538.572265625 629.987304688 538.572265625 629.987304688 540.569335938 628.126953125 c 128,-1,17
 542.567382812 626.267578125 542.567382812 626.267578125 543.439453125 625.306640625 c 128,-1,18
 544.345703125 624.307617188 544.345703125 624.307617188 544.630859375 622.954101562 c 128,-1,19
 544.915039062 621.599609375 544.915039062 621.599609375 544.552734375 619.690429688 c 128,-1,20
 544.189453125 617.78125 544.189453125 617.78125 542.64453125 615.27734375 c 128,-1,21
 541.099609375 612.7734375 541.099609375 612.7734375 538.551757812 609.78125 c 128,-1,22
 536.00390625 606.788085938 536.00390625 606.788085938 531.69921875 602.942382812 c 128,-1,23
 527.39453125 599.096679688 527.39453125 599.096679688 521.71875 594.807617188 c 0,24,25
 487.680664062 569.091796875 487.680664062 569.091796875 462.87109375 541.998046875 c 0,26,27
 335.844726562 403.276367188 335.844726562 403.276367188 346.71875 295.004882812 c 2,28,-1
 347.104492188 291.157226562 l 1,0,-1
EndSplineSet
EndChar

StartChar: uni0615
Encoding: 1557 1557 3
Width: 0
VWidth: 3435
GlyphClass: 4
Flags: W
AnchorPoint: "Anchor-10" 591.667 1381.86 mark 0
AnchorPoint: "Anchor-9" 591.667 1381.86 mark 0
AnchorPoint: "Anchor-1" 591.667 2133 basemark 0
AnchorPoint: "Anchor-1" 591.667 1381.86 mark 0
LayerCount: 2
Fore
SplineSet
510.250976562 1601.6171875 m 5,0,-1
 611.549804688 1601.6171875 l 6,1,2
 806.836914062 1601.49804688 806.836914062 1601.49804688 875.836914062 1679.35546875 c 4,3,4
 910.025390625 1717.03710938 910.025390625 1717.03710938 902.912109375 1778.03125 c 4,5,6
 894.470703125 1850.37402344 894.470703125 1850.37402344 811.427734375 1840.58300781 c 4,7,8
 696.549804688 1827.0390625 696.549804688 1827.0390625 510.250976562 1601.6171875 c 5,0,-1
561.75 1501.5546875 m 6,9,-1
 254.150390625 1501.36523438 l 5,10,-1
 201.857421875 1601.6171875 l 5,11,-1
 338.731445312 1601.6171875 l 5,12,-1
 338.731445312 2272.65429688 l 5,13,-1
 440.4765625 2272.65429688 l 5,14,-1
 440.4765625 1651.97558594 l 5,15,16
 688.790039062 2011.36523438 688.790039062 2011.36523438 893.841796875 1948.98144531 c 4,17,18
 978.895507812 1923.10644531 978.895507812 1923.10644531 998.641601562 1824.69433594 c 4,19,20
 1026.86132812 1684.28808594 1026.86132812 1684.28808594 922 1593 c 132,-1,21
 817.138671875 1501.71191406 817.138671875 1501.71191406 561.75 1501.5546875 c 6,9,-1
EndSplineSet
EndChar

StartChar: uni061B
Encoding: 1563 1563 4
Width: 748
VWidth: 3387
GlyphClass: 2
Flags: W
LayerCount: 2
Fore
SplineSet
347.077148438 791.162109375 m 5,0,-1
 377.27734375 786.470703125 l 6,1,2
 428.897460938 777.5 428.897460938 777.5 457.854492188 750.650390625 c 132,-1,3
 486.811523438 723.799804688 486.811523438 723.799804688 494.05859375 678.521484375 c 4,4,5
 501.413085938 632.294921875 501.413085938 632.294921875 493.067382812 597.950195312 c 132,-1,6
 484.72265625 563.606445312 484.72265625 563.606445312 460.932617188 540.56640625 c 4,7,8
 413.143554688 494.166992188 413.143554688 494.166992188 339.811523438 500.111328125 c 4,9,10
 188.416992188 512.571289062 188.416992188 512.571289062 205.232421875 705.5859375 c 4,11,12
 226.765625 959.032226562 226.765625 959.032226562 495.857421875 1120.98144531 c 4,13,14
 527.422851562 1139.83203125 527.422851562 1139.83203125 535.705078125 1132.49707031 c 4,15,16
 537.579101562 1130.85449219 537.579101562 1130.85449219 539.186523438 1129.38964844 c 132,-1,17
 540.793945312 1127.92382812 540.793945312 1127.92382812 541.834960938 1126.921875 c 132,-1,18
 542.875976562 1125.91992188 542.875976562 1125.91992188 543.400390625 1125.34863281 c 4,19,20
 550.74609375 1116.78027344 550.74609375 1116.78027344 521.727539062 1094.81445312 c 4,21,22
 449.271484375 1040.45410156 449.271484375 1040.45410156 394.494140625 954.470703125 c 4,23,24
 339.862304688 868.233398438 339.862304688 868.233398438 346.713867188 795.0390625 c 6,25,-1
 347.077148438 791.162109375 l 5,0,-1
219 153.837890625 m 128,-1,27
 219 208.465820312 219 208.465820312 258.03515625 247.501953125 c 128,-1,28
 297.071289062 286.537109375 297.071289062 286.537109375 351.700195312 286.537109375 c 128,-1,29
 406.33984375 286.537109375 406.33984375 286.537109375 446.375 248.512695312 c 0,30,31
 484.400390625 208.4765625 484.400390625 208.4765625 484.400390625 153.837890625 c 128,-1,32
 484.400390625 99.208984375 484.400390625 99.208984375 445.365234375 60.1728515625 c 128,-1,33
 406.329101562 21.1376953125 406.329101562 21.1376953125 351.700195312 21.1376953125 c 128,-1,34
 297.071289062 21.1376953125 297.071289062 21.1376953125 258.03515625 60.1728515625 c 128,-1,26
 219 99.208984375 219 99.208984375 219 153.837890625 c 128,-1,27
446.375 248.512695312 m 128,-1,36
 446.420898438 248.469726562 446.420898438 248.469726562 446.465820312 248.426757812 c 2,37,-1
 446.2890625 248.603515625 l 2,38,35
 446.33203125 248.55859375 446.33203125 248.55859375 446.375 248.512695312 c 128,-1,36
EndSplineSet
EndChar

StartChar: uni061F
Encoding: 1567 1567 5
Width: 934
VWidth: 3375
GlyphClass: 2
Flags: W
LayerCount: 2
Fore
SplineSet
490.051757812 496.077148438 m 6,0,1
 468.529296875 496.077148438 468.529296875 496.077148438 468.529296875 518.2421875 c 6,2,-1
 468.529296875 538.844726562 l 6,3,4
 469.01171875 629.090820312 469.01171875 629.090820312 326.418945312 737.998046875 c 6,5,-1
 249.2265625 796.954101562 l 6,6,7
 106.98046875 905.489257812 106.98046875 905.489257812 105.665039062 1075.21875 c 4,8,9
 105.008789062 1158.93066406 105.008789062 1158.93066406 135.708007812 1226.10546875 c 4,10,11
 166.081054688 1292.89648438 166.081054688 1292.89648438 226.958984375 1343.87695312 c 4,12,13
 319.80859375 1421.00195312 319.80859375 1421.00195312 465.96875 1421.18847656 c 4,14,15
 663.426757812 1421.00195312 663.426757812 1421.00195312 761.301757812 1284.15917969 c 4,16,17
 780.178710938 1257.60644531 780.178710938 1257.60644531 793.376953125 1225.75488281 c 132,-1,18
 806.57421875 1193.90332031 806.57421875 1193.90332031 814.110351562 1156.57617188 c 132,-1,19
 821.645507812 1119.24804688 821.645507812 1119.24804688 823.440429688 1076.57910156 c 4,20,21
 823.625 1071.734375 823.625 1071.734375 823.65625 1066.92089844 c 132,-1,22
 823.6875 1062.10644531 823.6875 1062.10644531 823.56640625 1057.32519531 c 132,-1,23
 823.444335938 1052.54394531 823.444335938 1052.54394531 823.169921875 1047.79199219 c 6,24,-1
 823.161132812 1047.55859375 l 6,25,26
 823.100585938 1042.08789062 823.100585938 1042.08789062 822.884765625 1035.7578125 c 132,-1,27
 822.66796875 1029.42773438 822.66796875 1029.42773438 822.412109375 1024.90527344 c 5,28,-1
 733.311523438 1024.39453125 l 5,29,30
 690.112304688 1244.00195312 690.112304688 1244.00195312 477.5546875 1243.82714844 c 4,31,32
 414.288085938 1243.91503906 414.288085938 1243.91503906 368.706054688 1222.87011719 c 132,-1,33
 323.124023438 1201.82519531 323.124023438 1201.82519531 295.985351562 1159.66601562 c 4,34,35
 271.000976562 1121.4921875 271.000976562 1121.4921875 270.96875 1066.1875 c 4,36,37
 270.985351562 1041.70800781 270.985351562 1041.70800781 280.51171875 1015.70117188 c 132,-1,38
 290.0390625 989.694335938 290.0390625 989.694335938 308.897460938 962.200195312 c 4,39,40
 345.03515625 908.938476562 345.03515625 908.938476562 420.705078125 847.224609375 c 6,41,-1
 468.78515625 808.013671875 l 6,42,43
 593.461914062 706.25 593.461914062 706.25 593.461914062 544.729492188 c 6,44,-1
 593.461914062 521.66796875 l 6,45,46
 593.076171875 496.077148438 593.076171875 496.077148438 570.461914062 496.077148438 c 6,47,-1
 490.051757812 496.077148438 l 6,0,1
388 153.837890625 m 128,-1,49
 388 208.465820312 388 208.465820312 427.03515625 247.501953125 c 128,-1,50
 466.071289062 286.537109375 466.071289062 286.537109375 520.700195312 286.537109375 c 0,51,52
 548.141601562 286.537109375 548.141601562 286.537109375 571.750976562 277.044921875 c 128,-1,53
 595.307617188 267.573242188 595.307617188 267.573242188 615.375 248.512695312 c 0,54,55
 653.400390625 208.4765625 653.400390625 208.4765625 653.400390625 153.837890625 c 0,56,57
 653.400390625 126.423828125 653.400390625 126.423828125 643.680664062 103.096679688 c 128,-1,58
 633.9609375 79.7685546875 633.9609375 79.7685546875 614.365234375 60.1728515625 c 0,59,60
 575.329101562 21.1376953125 575.329101562 21.1376953125 520.700195312 21.1376953125 c 0,61,62
 493.286132812 21.1376953125 493.286132812 21.1376953125 469.958984375 30.857421875 c 128,-1,63
 446.630859375 40.5771484375 446.630859375 40.5771484375 427.03515625 60.1728515625 c 0,64,48
 388 99.208984375 388 99.208984375 388 153.837890625 c 128,-1,49
615.375 248.512695312 m 128,-1,66
 615.420898438 248.469726562 615.420898438 248.469726562 615.465820312 248.426757812 c 2,67,-1
 615.2890625 248.603515625 l 2,68,65
 615.33203125 248.55859375 615.33203125 248.55859375 615.375 248.512695312 c 128,-1,66
EndSplineSet
EndChar

StartChar: uni0621
Encoding: 1569 1569 6
Width: 771
VWidth: 2472
GlyphClass: 2
Flags: W
AnchorPoint: "Anchor-7" 384.754 -252.191 basechar 0
AnchorPoint: "Anchor-10" 330.376 1111.84 basechar 0
LayerCount: 2
Fore
SplineSet
678.241210938 324 m 2,1,-1
 643 200 l 1,2,3
 422 133 422 133 81.578125 -24.2216796875 c 1,4,5
 82 121 82 121 163 164 c 0,6,7
 217 193 217 193 293 219 c 1,8,9
 87 293 87 293 85.6953125 482.706054688 c 0,10,11
 85 588 85 588 151 673 c 0,12,13
 236 782 236 782 383 783 c 4,14,15
 567 783 567 783 592.747070312 634 c 0,16,17
 598 603 598 603 575 609.451171875 c 0,18,19
 408 654 408 654 327 613 c 0,20,21
 235 567 235 567 236.712890625 473.090820312 c 0,22,23
 239 354 239 354 449 291 c 0,24,25
 479 282 479 282 633 337.255038652 c 0,26,27
 688 357 688 357 678.241210938 324 c 2,1,-1
EndSplineSet
EndChar

StartChar: uni0627
Encoding: 1575 1575 12
Width: 448
VWidth: 2448
GlyphClass: 2
Flags: W
AnchorPoint: "Anchor-10" 259.115 1570.43 basechar 0
AnchorPoint: "Anchor-7" 225.129 -304.716 basechar 0
LayerCount: 2
Fore
SplineSet
288.053710938 1414.63964844 m 2,0,-1
 306.9140625 1424.40332031 l 5,1,-1
 306.9140625 206.280273438 l 2,2,3
 307 68 307 68 201.060546875 -0.630859375 c 1,4,-1
 147.283203125 1032.74121094 l 2,5,6
 132 1334 132 1334 288.053710938 1414.63964844 c 2,0,-1
EndSplineSet
Substitution2: "'fina' Terminal Forms in Arabic lookup 9 subtable" uniFE8E
EndChar

StartChar: uni062D
Encoding: 1581 1581 18
Width: 1216
VWidth: 2474
GlyphClass: 2
Flags: W
AnchorPoint: "Anchor-7" 611.843 -857.215 basechar 0
AnchorPoint: "Anchor-10" 581.688 1232.94 basechar 0
LayerCount: 2
Fore
SplineSet
101.49609375 -166.178710938 m 0,0,1
 101 389 101 389 808.16015625 560.397460938 c 1,2,3
 682 602 682 602 631.959960938 620.796875 c 0,4,5
 476 681 476 681 361.9765625 661.044921875 c 8,6,7
 241 640 241 640 160.959960938 543.133789062 c 0,8,9
 125 500 125 500 108.959960938 506.796875 c 0,10,11
 88 516 88 516 103.7421875 566.2578125 c 0,12,13
 187 830 187 830 401.919921875 842.396484375 c 24,14,15
 538 850 538 850 820.959960938 719.357421875 c 0,16,17
 923 672 923 672 1008.24023438 654.59765625 c 0,18,19
 1075 641 1075 641 1123.16992188 646.0625 c 1,20,-1
 1076 446 l 1,21,22
 202 301 202 301 206.396484375 -159.360351562 c 0,23,24
 209 -461 209 -461 707.346679688 -461.000976562 c 0,25,26
 917 -461 917 -461 1065 -425.177734375 c 0,27,28
 1103 -416 1103 -416 1081 -457.633789062 c 0,29,30
 980 -647 980 -647 670.318359375 -646.75 c 0,31,32
 101 -647 101 -647 101.49609375 -166.178710938 c 0,0,1
EndSplineSet
Substitution2: "'fina' Terminal Forms in Arabic lookup 9 subtable" uniFEA2
Substitution2: "'medi' Medial Forms in Arabic lookup 11 subtable" uniFEA4
Substitution2: "'init' Initial Forms in Arabic lookup 13 subtable" uniFEA3
EndChar

StartChar: uni062F
Encoding: 1583 1583 20
Width: 1024
VWidth: 2467
GlyphClass: 2
Flags: W
AnchorPoint: "Anchor-10" 583.422 1199.25 basechar 0
AnchorPoint: "Anchor-7" 475.658 -257.85 basechar 0
LayerCount: 2
Fore
SplineSet
878.775390625 155.02734375 m 1,0,1
 725.261654217 -31.3683252171 725.261654217 -31.3683252171 412 -31.3909773073 c 0,2,3
 376.861509158 -31.3935181873 376.861509158 -31.3935181873 342.06640625 -29.29296875 c 0,4,5
 98.525390625 -14.58984375 98.525390625 -14.58984375 98.525390625 193.130859375 c 2,6,-1
 98.525390625 223.052734375 l 1,7,8
 228.668945312 167.552734375 228.668945312 167.552734375 394.154296875 164.765625 c 0,9,10
 585.997070312 160.865234375 585.997070312 160.865234375 723.564453125 227.572265625 c 0,11,12
 797.321289062 263.698242188 797.321289062 263.698242188 787.672851562 314.79296875 c 0,13,14
 784.112304688 333.556640625 784.112304688 333.556640625 778.559570312 342.313476562 c 2,15,-1
 622.467773438 588.495117188 l 2,16,17
 457.204101562 849.143554688 457.204101562 849.143554688 606.44140625 928.384765625 c 2,18,-1
 628.048828125 939.857421875 l 1,19,-1
 895.362304688 414.012695312 l 1,20,21
 933.653320312 335.145507812 933.653320312 335.145507812 925.752929688 268.381835938 c 128,-1,22
 917.852539062 201.618164062 917.852539062 201.618164062 878.775390625 155.02734375 c 1,0,1
EndSplineSet
PairPos2: "'kern' Horizontal Kerning lookup 15-2" uniFB90 dx=-110 dy=0 dh=-110 dv=0 dx=0 dy=0 dh=0 dv=0
PairPos2: "'kern' Horizontal Kerning lookup 15-2" uni06A9 dx=-110 dy=0 dh=-110 dv=0 dx=0 dy=0 dh=0 dv=0
PairPos2: "'kern' Horizontal Kerning lookup 15-2" uniFB94 dx=-110 dy=0 dh=-110 dv=0 dx=0 dy=0 dh=0 dv=0
PairPos2: "'kern' Horizontal Kerning lookup 15-2" afii57509 dx=-110 dy=0 dh=-110 dv=0 dx=0 dy=0 dh=0 dv=0
Substitution2: "'fina' Terminal Forms in Arabic lookup 9 subtable" uniFEAA
EndChar

StartChar: uni0631
Encoding: 1585 1585 22
Width: 893
VWidth: 2499
GlyphClass: 2
Flags: W
AnchorPoint: "Anchor-7" 441.147 -657.422 basechar 0
AnchorPoint: "Anchor-10" 651.056 1007.93 basechar 0
LayerCount: 2
Fore
SplineSet
72 -408.690429688 m 4,0,1
 13 -394 13 -394 7.65280541474 -371 c 0,2,3
 2 -345 2 -345 88 -330.262695312 c 0,4,5
 698 -230 698 -230 670.178710938 131.9609375 c 0,6,7
 666 187 666 187 618.494140625 304.325195312 c 0,8,9
 534.001030106 514.997431569 534.001030106 514.997431569 669.220703125 618.001953125 c 2,10,-1
 709.796875 648.911132812 l 1,11,12
 796 413 796 413 798.153884713 215 c 0,13,14
 804 -196 804 -196 566 -371 c 4,15,16
 460 -449 460 -449 374 -449 c 4,17,18
 237 -449 237 -449 72 -408.690429688 c 4,0,1
EndSplineSet
PairPos2: "'kern' Horizontal Kerning lookup 15-1" uniFB7C dx=-150 dy=0 dh=-150 dv=0 dx=0 dy=0 dh=0 dv=0
PairPos2: "'kern' Horizontal Kerning lookup 15-1" uniFB90 dx=-350 dy=0 dh=-350 dv=0 dx=0 dy=0 dh=0 dv=0
PairPos2: "'kern' Horizontal Kerning lookup 15-1" uniFB8E dx=-350 dy=0 dh=-350 dv=0 dx=0 dy=0 dh=0 dv=0
PairPos2: "'kern' Horizontal Kerning lookup 15-1" uni06A9 dx=-350 dy=0 dh=-350 dv=0 dx=0 dy=0 dh=0 dv=0
PairPos2: "'kern' Horizontal Kerning lookup 15-1" uni064A dx=-100 dy=0 dh=-100 dv=0 dx=0 dy=0 dh=0 dv=0
PairPos2: "'kern' Horizontal Kerning lookup 15-1" afii57414 dx=-100 dy=0 dh=-100 dv=0 dx=0 dy=0 dh=0 dv=0
PairPos2: "'kern' Horizontal Kerning lookup 15-1" uni0649 dx=-100 dy=0 dh=-100 dv=0 dx=0 dy=0 dh=0 dv=0
PairPos2: "'kern' Horizontal Kerning lookup 15-1" uni0648 dx=-80 dy=0 dh=-80 dv=0 dx=0 dy=0 dh=0 dv=0
PairPos2: "'kern' Horizontal Kerning lookup 15-1" afii57412 dx=-80 dy=0 dh=-80 dv=0 dx=0 dy=0 dh=0 dv=0
PairPos2: "'kern' Horizontal Kerning lookup 15-1" uniFEEB dx=-250 dy=0 dh=-250 dv=0 dx=0 dy=0 dh=0 dv=0
PairPos2: "'kern' Horizontal Kerning lookup 15-1" uni0647 dx=-250 dy=0 dh=-250 dv=0 dx=0 dy=0 dh=0 dv=0
PairPos2: "'kern' Horizontal Kerning lookup 15-1" uniFEE7 dx=-250 dy=0 dh=-250 dv=0 dx=0 dy=0 dh=0 dv=0
PairPos2: "'kern' Horizontal Kerning lookup 15-1" uni0646 dx=-100 dy=0 dh=-100 dv=0 dx=0 dy=0 dh=0 dv=0
PairPos2: "'kern' Horizontal Kerning lookup 15-1" uniFEE3 dx=-250 dy=0 dh=-250 dv=0 dx=0 dy=0 dh=0 dv=0
PairPos2: "'kern' Horizontal Kerning lookup 15-1" uni0645 dx=-250 dy=0 dh=-250 dv=0 dx=0 dy=0 dh=0 dv=0
PairPos2: "'kern' Horizontal Kerning lookup 15-1" uniFEFB dx=-250 dy=0 dh=-250 dv=0 dx=0 dy=0 dh=0 dv=0
PairPos2: "'kern' Horizontal Kerning lookup 15-1" uniFEDF dx=-250 dy=0 dh=-250 dv=0 dx=0 dy=0 dh=0 dv=0
PairPos2: "'kern' Horizontal Kerning lookup 15-1" uni0644 dx=-80 dy=0 dh=-80 dv=0 dx=0 dy=0 dh=0 dv=0
PairPos2: "'kern' Horizontal Kerning lookup 15-1" uniFEDB dx=-350 dy=0 dh=-350 dv=0 dx=0 dy=0 dh=0 dv=0
PairPos2: "'kern' Horizontal Kerning lookup 15-1" uni0643 dx=-250 dy=0 dh=-250 dv=0 dx=0 dy=0 dh=0 dv=0
PairPos2: "'kern' Horizontal Kerning lookup 15-1" uniFED7 dx=-250 dy=0 dh=-250 dv=0 dx=0 dy=0 dh=0 dv=0
PairPos2: "'kern' Horizontal Kerning lookup 15-1" uni0642 dx=-80 dy=0 dh=-80 dv=0 dx=0 dy=0 dh=0 dv=0
PairPos2: "'kern' Horizontal Kerning lookup 15-1" uniFED3 dx=-250 dy=0 dh=-250 dv=0 dx=0 dy=0 dh=0 dv=0
PairPos2: "'kern' Horizontal Kerning lookup 15-1" uni0641 dx=-250 dy=0 dh=-250 dv=0 dx=0 dy=0 dh=0 dv=0
PairPos2: "'kern' Horizontal Kerning lookup 15-1" uniFECF dx=-250 dy=0 dh=-250 dv=0 dx=0 dy=0 dh=0 dv=0
PairPos2: "'kern' Horizontal Kerning lookup 15-1" uniFECB dx=-250 dy=0 dh=-250 dv=0 dx=0 dy=0 dh=0 dv=0
PairPos2: "'kern' Horizontal Kerning lookup 15-1" uniFEC7 dx=-250 dy=0 dh=-250 dv=0 dx=0 dy=0 dh=0 dv=0
PairPos2: "'kern' Horizontal Kerning lookup 15-1" uni0638 dx=-250 dy=0 dh=-250 dv=0 dx=0 dy=0 dh=0 dv=0
PairPos2: "'kern' Horizontal Kerning lookup 15-1" uniFEC3 dx=-250 dy=0 dh=-250 dv=0 dx=0 dy=0 dh=0 dv=0
PairPos2: "'kern' Horizontal Kerning lookup 15-1" uni0637 dx=-250 dy=0 dh=-250 dv=0 dx=0 dy=0 dh=0 dv=0
PairPos2: "'kern' Horizontal Kerning lookup 15-1" uniFEBF dx=-250 dy=0 dh=-250 dv=0 dx=0 dy=0 dh=0 dv=0
PairPos2: "'kern' Horizontal Kerning lookup 15-1" uni0636 dx=-250 dy=0 dh=-250 dv=0 dx=0 dy=0 dh=0 dv=0
PairPos2: "'kern' Horizontal Kerning lookup 15-1" uniFEBB dx=-250 dy=0 dh=-250 dv=0 dx=0 dy=0 dh=0 dv=0
PairPos2: "'kern' Horizontal Kerning lookup 15-1" uni0635 dx=-250 dy=0 dh=-250 dv=0 dx=0 dy=0 dh=0 dv=0
PairPos2: "'kern' Horizontal Kerning lookup 15-1" uniFEB7 dx=-250 dy=0 dh=-250 dv=0 dx=0 dy=0 dh=0 dv=0
PairPos2: "'kern' Horizontal Kerning lookup 15-1" uni0634 dx=-250 dy=0 dh=-250 dv=0 dx=0 dy=0 dh=0 dv=0
PairPos2: "'kern' Horizontal Kerning lookup 15-1" uniFEB3 dx=-250 dy=0 dh=-250 dv=0 dx=0 dy=0 dh=0 dv=0
PairPos2: "'kern' Horizontal Kerning lookup 15-1" uni0633 dx=-250 dy=0 dh=-250 dv=0 dx=0 dy=0 dh=0 dv=0
PairPos2: "'kern' Horizontal Kerning lookup 15-1" uni0632 dx=-80 dy=0 dh=-80 dv=0 dx=0 dy=0 dh=0 dv=0
PairPos2: "'kern' Horizontal Kerning lookup 15-1" uni0631 dx=-80 dy=0 dh=-80 dv=0 dx=0 dy=0 dh=0 dv=0
PairPos2: "'kern' Horizontal Kerning lookup 15-1" uni0630 dx=-250 dy=0 dh=-250 dv=0 dx=0 dy=0 dh=0 dv=0
PairPos2: "'kern' Horizontal Kerning lookup 15-1" uni062F dx=-250 dy=0 dh=-250 dv=0 dx=0 dy=0 dh=0 dv=0
PairPos2: "'kern' Horizontal Kerning lookup 15-1" uniFEA7 dx=-250 dy=0 dh=-250 dv=0 dx=0 dy=0 dh=0 dv=0
PairPos2: "'kern' Horizontal Kerning lookup 15-1" uniFEA3 dx=-250 dy=0 dh=-250 dv=0 dx=0 dy=0 dh=0 dv=0
PairPos2: "'kern' Horizontal Kerning lookup 15-1" uniFE9F dx=-250 dy=0 dh=-250 dv=0 dx=0 dy=0 dh=0 dv=0
PairPos2: "'kern' Horizontal Kerning lookup 15-1" uniFE9B dx=-250 dy=0 dh=-250 dv=0 dx=0 dy=0 dh=0 dv=0
PairPos2: "'kern' Horizontal Kerning lookup 15-1" uni062B dx=-250 dy=0 dh=-250 dv=0 dx=0 dy=0 dh=0 dv=0
PairPos2: "'kern' Horizontal Kerning lookup 15-1" uniFE97 dx=-250 dy=0 dh=-250 dv=0 dx=0 dy=0 dh=0 dv=0
PairPos2: "'kern' Horizontal Kerning lookup 15-1" uni062A dx=-250 dy=0 dh=-250 dv=0 dx=0 dy=0 dh=0 dv=0
PairPos2: "'kern' Horizontal Kerning lookup 15-1" uni0629 dx=-250 dy=0 dh=-250 dv=0 dx=0 dy=0 dh=0 dv=0
PairPos2: "'kern' Horizontal Kerning lookup 15-1" uniFE91 dx=-50 dy=0 dh=-50 dv=0 dx=0 dy=0 dh=0 dv=0
PairPos2: "'kern' Horizontal Kerning lookup 15-1" uni0628 dx=-250 dy=0 dh=-250 dv=0 dx=0 dy=0 dh=0 dv=0
PairPos2: "'kern' Horizontal Kerning lookup 15-1" uni0627 dx=-250 dy=0 dh=-250 dv=0 dx=0 dy=0 dh=0 dv=0
PairPos2: "'kern' Horizontal Kerning lookup 15-1" uni0623 dx=-250 dy=0 dh=-250 dv=0 dx=0 dy=0 dh=0 dv=0
PairPos2: "'kern' Horizontal Kerning lookup 15-1" uni0622 dx=-250 dy=0 dh=-250 dv=0 dx=0 dy=0 dh=0 dv=0
PairPos2: "'kern' Horizontal Kerning lookup 15-1" uni0621 dx=-250 dy=0 dh=-250 dv=0 dx=0 dy=0 dh=0 dv=0
PairPos2: "'kern' Horizontal Kerning lookup 15-1" uniFB94 dx=-350 dy=0 dh=-350 dv=0 dx=0 dy=0 dh=0 dv=0
PairPos2: "'kern' Horizontal Kerning lookup 15-1" uniFB92 dx=-350 dy=0 dh=-350 dv=0 dx=0 dy=0 dh=0 dv=0
PairPos2: "'kern' Horizontal Kerning lookup 15-1" afii57509 dx=-350 dy=0 dh=-350 dv=0 dx=0 dy=0 dh=0 dv=0
PairPos2: "'kern' Horizontal Kerning lookup 15-1" afii57508 dx=-80 dy=0 dh=-80 dv=0 dx=0 dy=0 dh=0 dv=0
PairPos2: "'kern' Horizontal Kerning lookup 15-1" afii57506 dx=-250 dy=0 dh=-250 dv=0 dx=0 dy=0 dh=0 dv=0
PairPos2: "'kern' Horizontal Kerning lookup 15-1" afii57440 dx=-250 dy=0 dh=-250 dv=0 dx=0 dy=0 dh=0 dv=0
PairPos2: "'kern' Horizontal Kerning lookup 15-1" uniFE8B dx=-250 dy=0 dh=-250 dv=0 dx=0 dy=0 dh=0 dv=0
Substitution2: "'fina' Terminal Forms in Arabic lookup 9 subtable" uniFEAE
EndChar

StartChar: uni0633
Encoding: 1587 1587 24
Width: 2313
VWidth: 2501
GlyphClass: 2
Flags: W
AnchorPoint: "Anchor-7" 664.176 -751.198 basechar 0
AnchorPoint: "Anchor-10" 1675.99 1018.06 basechar 0
LayerCount: 2
Fore
SplineSet
1904.82617188 -0.4775390625 m 24,0,1
 1838 -1 1838 -1 1801.15722656 16.7265625 c 0,2,3
 1698 67 1698 67 1657.13964844 183.109375 c 1,4,5
 1593 -1 1593 -1 1431 -1.0439453125 c 0,6,7
 1314 -1 1314 -1 1269.77050781 68.0400390625 c 1,8,9
 1272 -40 1272 -40 1252.25683594 -119.879882812 c 0,10,11
 1148 -542 1148 -542 663.930664062 -545.791015625 c 0,12,13
 341 -548 341 -548 187.1328125 -346.896484375 c 0,14,15
 56 -175 56 -175 114.48046875 114.48046875 c 0,16,17
 135 217 135 217 190.567382812 336.995117188 c 0,18,19
 219 399 219 399 255.419921875 388.259765625 c 0,20,21
 292 378 292 378 265.825195312 307.799804688 c 0,22,23
 180 72 180 72 235.631835938 -109.409179688 c 0,24,25
 313 -364 313 -364 665.359375 -362.66796875 c 0,26,27
 1124 -361 1124 -361 1155.05664062 -15.0859375 c 0,28,29
 1164 84 1164 84 1092.65332031 257.984375 c 0,30,31
 989.894401891 512.261302504 989.894401891 512.261302504 1145.50878906 552.739257812 c 2,32,-1
 1180.71679688 561.897460938 l 1,33,34
 1214 392 1214 392 1248.03222656 291.599609375 c 24,35,36
 1286 180 1286 180 1437 183.254882812 c 0,37,38
 1561.79120896 185.995414753 1561.79120896 185.995414753 1595.36328125 328.373046875 c 2,39,-1
 1610.50488281 392.587890625 l 2,40,41
 1642.05740469 526.243164062 1642.05740469 526.243164062 1730.70898438 526.243164062 c 2,42,-1
 1743.84179688 526.243164062 l 1,43,-1
 1737.36132812 451.068359375 l 2,44,45
 1714 184 1714 184 1922.83007812 183.909179688 c 0,46,47
 2047 184 2047 184 2076.81738281 279.96484375 c 0,48,49
 2095.37381325 338.320308869 2095.37381325 338.320308869 2074.29980469 387.419921875 c 0,50,51
 2029 494 2029 494 2022.93457031 514.467773438 c 4,52,53
 1980.05868103 668.788792339 1980.05868103 668.788792339 2129.03417969 739.9921875 c 6,54,-1
 2145.62304688 747.920898438 l 5,55,56
 2205 572 2205 572 2214.41992188 415.799804688 c 0,57,58
 2226 227 2226 227 2128.55957031 113.940429688 c 128,-1,59
 2031 1 2031 1 1904.82617188 -0.4775390625 c 24,0,1
EndSplineSet
Substitution2: "'fina' Terminal Forms in Arabic lookup 9 subtable" uniFEB2
Substitution2: "'medi' Medial Forms in Arabic lookup 11 subtable" uniFEB4
Substitution2: "'init' Initial Forms in Arabic lookup 13 subtable" uniFEB3
EndChar

StartChar: uni0635
Encoding: 1589 1589 26
Width: 2498
VWidth: 2474
GlyphClass: 2
Flags: W
AnchorPoint: "Anchor-10" 1957.99 1060.06 basechar 0
AnchorPoint: "Anchor-7" 664.176 -751.198 basechar 0
LayerCount: 2
Fore
SplineSet
1732.26464844 183.426757812 m 2,0,1
 2011.09454773 183.426757812 2011.09454773 183.426757812 2174.76074219 247.239257812 c 0,2,3
 2291 292 2291 292 2287.78027344 344.5 c 0,4,5
 2283 413 2283 413 2148.83984375 506.400390625 c 0,6,7
 2072 560 2072 560 2004.12011719 560.087890625 c 0,8,9
 1826.04677333 559.000285674 1826.04677333 559.000285674 1643.28027344 329 c 2,10,-1
 1527.60253906 183.426757812 l 1,11,-1
 1732.26464844 183.426757812 l 2,0,1
1995.48046875 748.165039062 m 0,12,13
 2139 747 2139 747 2268.72070312 626.6796875 c 0,14,15
 2388 515 2388 515 2392.03613281 385.240234375 c 0,16,17
 2396.95261928 186.911317637 2396.95261928 186.911317637 2195.05078125 90.3388671875 c 0,18,19
 2003.62344968 -1.70024262758 2003.62344968 -1.70024262758 1728.41503906 -0.767578125 c 2,20,-1
 1501.91992188 0 l 2,21,22
 1317 1 1317 1 1269.77050781 68.0400390625 c 1,23,24
 1272 -40 1272 -40 1252.25683594 -119.879882812 c 0,25,26
 1148 -541 1148 -541 669.930664062 -545.791015625 c 0,27,28
 341 -549 341 -549 187.1328125 -346.896484375 c 0,29,30
 56 -176 56 -176 114.48046875 114.48046875 c 0,31,32
 135 217 135 217 190.567382812 336.995117188 c 0,33,34
 219 399 219 399 255.419921875 388.259765625 c 0,35,36
 292 378 292 378 265.825195312 307.799804688 c 0,37,38
 179 75 179 75 235.631835938 -109.409179688 c 0,39,40
 313 -364 313 -364 665.359375 -362.66796875 c 0,41,42
 1124 -361 1124 -361 1155.05664062 -15.0859375 c 0,43,44
 1164 84 1164 84 1092.65332031 257.984375 c 0,45,46
 988.989429722 512.025903809 988.989429722 512.025903809 1145.50878906 552.739257812 c 2,47,-1
 1180.71679688 561.897460938 l 1,48,49
 1207 426 1207 426 1250.19238281 291.599609375 c 0,50,51
 1283 187 1283 187 1401.35644531 185.829101562 c 1,52,-1
 1506.24023438 349.200195312 l 2,53,54
 1764 750 1764 750 1995.48046875 748.165039062 c 0,12,13
EndSplineSet
Substitution2: "'fina' Terminal Forms in Arabic lookup 9 subtable" uniFEBA
Substitution2: "'medi' Medial Forms in Arabic lookup 11 subtable" uniFEBC
Substitution2: "'init' Initial Forms in Arabic lookup 13 subtable" uniFEBB
EndChar

StartChar: uni0637
Encoding: 1591 1591 28
Width: 1431
VWidth: 2474
GlyphClass: 2
Flags: W
AnchorPoint: "Anchor-10" 373.774 1557.94 basechar 0
AnchorPoint: "Anchor-7" 640.88 -271.015 basechar 0
LayerCount: 2
Fore
SplineSet
450.322265625 183.426757812 m 1,0,-1
 654.984375 183.426757812 l 2,1,2
 934 183 934 183 1097.48046875 247.239257812 c 0,3,4
 1213 292 1213 292 1210.58789062 340 c 0,5,6
 1206 412 1206 412 1071.55957031 507.400390625 c 0,7,8
 995 561 995 561 926.83984375 561.087890625 c 0,9,10
 746.973632812 560 746.973632812 560 565 329 c 2,11,-1
 450.322265625 183.426757812 l 1,0,-1
424.639648438 0 m 2,12,-1
 375.192382812 0.1533203125 l 2,13,14
 91 1 91 1 91.15234375 183.274414062 c 1,15,-1
 319 183 l 1,16,-1
 268.788085938 1037.68164062 l 6,17,18
 251.98840713 1326.19909579 251.98840713 1326.19909579 410.482421875 1412.90625 c 6,19,-1
 432.0390625 1424.69921875 l 5,20,-1
 431.959960938 352.200195312 l 1,21,22
 694 750 694 750 918.200195312 748.165039062 c 0,23,24
 1062 747 1062 747 1191.44042969 626.6796875 c 0,25,26
 1312 514 1312 514 1314.75585938 385.240234375 c 0,27,28
 1319 194 1319 194 1117.77050781 90.3388671875 c 0,29,30
 939.494054349 -1.74481015064 939.494054349 -1.74481015064 651.134765625 -0.767578125 c 2,31,-1
 424.639648438 0 l 2,12,-1
EndSplineSet
Substitution2: "'fina' Terminal Forms in Arabic lookup 9 subtable" uniFEC2
Substitution2: "'medi' Medial Forms in Arabic lookup 11 subtable" uniFEC4
Substitution2: "'init' Initial Forms in Arabic lookup 13 subtable" uniFEC3
EndChar

StartChar: uni0639
Encoding: 1593 1593 30
Width: 1197
VWidth: 2474
GlyphClass: 2
Flags: W
AnchorPoint: "Anchor-10" 618.687 1305.58 basechar 0
AnchorPoint: "Anchor-7" 648.989 -808.611 basechar 0
LayerCount: 2
Fore
SplineSet
419.790039062 360.232421875 m 1,0,1
 276 478 276 478 269.959960938 623.174804688 c 0,2,3
 265 766 265 766 366.779296875 892.274414062 c 0,4,5
 475 1026 475 1026 649.640625 1026.66894531 c 0,6,7
 808 1027 808 1027 898.139648438 907.396484375 c 0,8,9
 921 877 921 877 933.125976562 840.5546875 c 0,10,11
 942 815 942 815 939.93359375 801.396484375 c 0,12,13
 936 773 936 773 903.099609375 795.693359375 c 0,14,15
 826 848 826 848 694.01953125 848.354492188 c 0,16,17
 569 848 569 848 483.69921875 773.014648438 c 0,18,19
 407 705 407 705 414.290039062 615.909179688 c 0,20,21
 422 530 422 530 502.790039062 465.946289062 c 0,22,23
 547 431 547 431 604.790039062 443.899414062 c 0,24,25
 716 468 716 468 720.790039062 469.420898438 c 24,26,27
 822 490 822 490 988.790039062 500.965820312 c 0,28,29
 1062.62911147 505.974840042 1062.62911147 505.974840042 1048.79003906 462.396484375 c 2,30,-1
 1001.79003906 314.396484375 l 1,31,32
 741 302 741 302 555 228 c 0,33,34
 204 89 204 89 206.396484375 -159.360351562 c 0,35,36
 209 -461 209 -461 707.346679688 -461.000976562 c 0,37,38
 917 -461 917 -461 1065 -425.177734375 c 0,39,40
 1103 -416 1103 -416 1081 -457.633789062 c 0,41,42
 980 -647 980 -647 670.318359375 -646.75 c 0,43,44
 101 -647 101 -647 101.49609375 -166.178710938 c 0,45,46
 102 186 102 186 419.790039062 360.232421875 c 1,0,1
EndSplineSet
Substitution2: "'fina' Terminal Forms in Arabic lookup 9 subtable" uniFECA
Substitution2: "'medi' Medial Forms in Arabic lookup 11 subtable" uniFECC
Substitution2: "'init' Initial Forms in Arabic lookup 13 subtable" uniFECB
EndChar

StartChar: afii57440
Encoding: 1600 1600 32
Width: 253
VWidth: 2490
GlyphClass: 2
Flags: W
AnchorPoint: "Anchor-10" 130.68 1001.57 basechar 0
AnchorPoint: "Anchor-7" 126.68 -138.845 basechar 0
LayerCount: 2
Fore
SplineSet
-25 0 m 1,0,1
 -25 183 l 1,2,-1
 278 183 l 1,3,4
 278 0 l 1,5,-1
 -25 0 l 1,0,1
EndSplineSet
EndChar

StartChar: uni0643
Encoding: 1603 1603 35
Width: 1789
VWidth: 2448
GlyphClass: 2
Flags: W
AnchorPoint: "Anchor-10" 854.321 1367.31 basechar 0
AnchorPoint: "Anchor-7" 813.141 -273.584 basechar 0
LayerCount: 2
Fore
SplineSet
1101.28222656 1204.37402344 m 5,0,-1
 1101.28222656 1095.19238281 l 5,1,-1
 1078.25878906 1093.36621094 l 6,2,3
 909.323242188 1079.96777344 909.323242188 1079.96777344 870.751953125 1014.53222656 c 4,4,5
 853.471679688 985.217773438 853.471679688 985.217773438 882.643554688 945.629882812 c 4,6,7
 895.979492188 927.286132812 895.979492188 927.286132812 952.327148438 919.318359375 c 4,8,9
 1040.99414062 906.780273438 1040.99414062 906.780273438 1076.50878906 874.374023438 c 132,-1,10
 1112.02441406 841.966796875 1112.02441406 841.966796875 1111.8984375 785.338867188 c 4,11,12
 1112.01367188 659.249023438 1112.01367188 659.249023438 996.887695312 595.719726562 c 4,13,14
 907.370117188 545.936523438 907.370117188 545.936523438 797.87890625 547 c 4,15,16
 726.913085938 547 726.913085938 547 665.01953125 557.404296875 c 6,17,-1
 644.1640625 560.91015625 l 5,18,-1
 644.1640625 677.391601562 l 5,19,-1
 672.350585938 673.76953125 l 6,20,21
 905.931640625 643.755859375 905.931640625 643.755859375 980.518554688 720.833984375 c 4,22,23
 1022.73730469 764.462890625 1022.73730469 764.462890625 980.513671875 799.369140625 c 4,24,25
 960.274414062 816.102539062 960.274414062 816.102539062 897.591796875 825.303710938 c 132,-1,26
 834.909179688 834.505859375 834.909179688 834.505859375 793.362304688 877.231445312 c 132,-1,27
 751.815429688 919.95703125 751.815429688 919.95703125 753.181640625 996.034179688 c 4,28,29
 755.3203125 1097.47460938 755.3203125 1097.47460938 850.803710938 1146.05078125 c 132,-1,30
 946.286132812 1194.62695312 946.286132812 1194.62695312 1074.71289062 1202.70410156 c 6,31,-1
 1101.28222656 1204.37402344 l 5,0,-1
801 150.458984375 m 0,32,33
 1133 152 1133 152 1333.80078125 208.71875 c 0,34,35
 1530.86973683 263.963483066 1530.86973683 263.963483066 1523 424 c 2,36,-1
 1490.24316406 1090.1328125 l 2,37,38
 1477.99660667 1345.07063931 1477.99660667 1345.07063931 1631.0546875 1420.26660156 c 2,39,-1
 1648.37792969 1428.77734375 l 1,40,-1
 1648.37792969 464.50390625 l 0,41,42
 1648 204 1648 204 1484.55761719 102.173828125 c 0,43,44
 1250 -44 1250 -44 789 -43.47265625 c 24,45,46
 457 -43 457 -43 281.400390625 68.4404296875 c 0,47,48
 100 185 100 185 102.040039062 455.759765625 c 0,49,50
 103 587 103 587 140.919921875 671.759765625 c 0,51,52
 163 721 163 721 192.759765625 717.66015625 c 0,53,54
 223 714 223 714 207.145507812 643.064453125 c 0,55,56
 193 578 193 578 194.919921875 490.3203125 c 0,57,58
 203 148 203 148 801 150.458984375 c 0,32,33
EndSplineSet
Substitution2: "'fina' Terminal Forms in Arabic lookup 9 subtable" uniFEDA
Substitution2: "'medi' Medial Forms in Arabic lookup 11 subtable" uniFEDC
Substitution2: "'init' Initial Forms in Arabic lookup 13 subtable" uniFEDB
EndChar

StartChar: uni0644
Encoding: 1604 1604 36
Width: 1318
VWidth: 2461
GlyphClass: 2
Flags: W
AnchorPoint: "Anchor-10" 620.118 1012.71 basechar 0
AnchorPoint: "Anchor-7" 624.402 -751.555 basechar 0
LayerCount: 2
Fore
SplineSet
1174.25195312 13.7373046875 m 4,0,1
 1160 -522 1160 -522 636.391601562 -522.719726562 c 0,2,3
 309 -523 309 -523 167.788085938 -336.904296875 c 0,4,5
 93 -239 93 -239 90.3759765625 -87 c 0,6,7
 89 4 89 4 113.360351562 114.48046875 c 0,8,9
 140 235 140 235 173.83984375 315.360351562 c 0,10,11
 215 416 215 416 254.83984375 408.100585938 c 0,12,13
 287 402 287 402 263.896484375 336.959960938 c 0,14,15
 161 36 161 36 247.143554688 -133.298828125 c 0,16,17
 350 -337 350 -337 641.08984375 -337.14453125 c 0,18,19
 1068 -338 1068 -338 1076.1875 3.4453125 c 28,20,21
 1078.004498 80.1899823656 1078.004498 80.1899823656 1071.06738281 189.528320312 c 6,22,-1
 1019.85449219 996.712890625 l 6,23,24
 998.999865873 1331.00214999 998.999865873 1331.00214999 1148.01953125 1408.63574219 c 6,25,-1
 1177.41601562 1423.95019531 l 5,26,-1
 1177.41601562 431.447265625 l 6,27,28
 1177 133 1177 133 1174.25195312 13.7373046875 c 4,0,1
EndSplineSet
Substitution2: "'fina' Terminal Forms in Arabic lookup 9 subtable" uniFEDE
Substitution2: "'medi' Medial Forms in Arabic lookup 11 subtable" uniFEE0
Substitution2: "'init' Initial Forms in Arabic lookup 13 subtable" uniFEDF
EndChar

StartChar: uni0645
Encoding: 1605 1605 37
Width: 1157
VWidth: 2492
GlyphClass: 2
Flags: W
AnchorPoint: "Anchor-10" 649.046 968.62 basechar 0
AnchorPoint: "Anchor-7" 692.395 -304.445 basechar 0
LayerCount: 2
Fore
SplineSet
906.959960938 191.559570312 m 1,0,1
 924 232 924 232 938.424804688 271.194335938 c 0,2,3
 980 386 980 386 745.287109375 488.102539062 c 0,4,5
 617 544 617 544 547.11328125 452.215820312 c 24,6,7
 497 386 497 386 511.759765625 205.879882812 c 1,8,9
 685 206 685 206 906.959960938 191.559570312 c 1,0,1
456.147460938 27.462890625 m 0,10,11
 176.567358721 31.0054820471 176.567358721 31.0054820471 225.697265625 -287.647460938 c 2,12,-1
 260.876953125 -515.8203125 l 2,13,14
 293.010431868 -725.06793051 293.010431868 -725.06793051 131.112304688 -817.104492188 c 2,15,-1
 101.259765625 -834.075195312 l 1,16,-1
 101.259765625 -234.696289062 l 2,17,18
 101 -61 101 -61 159.43359375 50.0400390625 c 0,19,20
 212.755206673 150.538622684 212.755206673 150.538622684 362.104492188 176.370117188 c 2,21,-1
 367.095703125 177.233398438 l 1,22,-1
 366.845703125 182.293945312 l 2,23,24
 353 471 353 471 466.696289062 593.650390625 c 0,25,26
 626 765 626 765 857.673828125 612.5 c 24,27,28
 1117 442 1117 442 1074.87402344 286.911132812 c 4,29,30
 1048 187 1048 187 1002 104 c 4,31,32
 981 67 981 67 954 42 c 4,33,34
 923 14 923 14 778.028320312 21.5908203125 c 0,35,36
 733 24 733 24 456.147460938 27.462890625 c 0,10,11
EndSplineSet
Substitution2: "'init' Initial Forms in Arabic lookup 13 subtable" uniFEE3
Substitution2: "'medi' Medial Forms in Arabic lookup 11 subtable" uniFEE4
Substitution2: "'fina' Terminal Forms in Arabic lookup 9 subtable" uniFEE2
EndChar

StartChar: uni0647
Encoding: 1607 1607 39
Width: 859
VWidth: 2468
GlyphClass: 2
Flags: W
AnchorPoint: "Anchor-10" 399.208 1200.77 basechar 0
AnchorPoint: "Anchor-7" 430.002 -225.928 basechar 0
LayerCount: 2
Fore
SplineSet
231.538085938 349.274414062 m 0,0,1
 226.48256718 328.144964842 226.48256718 328.144964842 226.48256718 309.403679895 c 0,2,3
 226.48256718 222.351588139 226.48256718 222.351588139 335.557617188 186.825195312 c 0,4,5
 383.955797631 171.018094737 383.955797631 171.018094737 432.697762577 171.018094737 c 0,6,7
 482.090338304 171.018094737 482.090338304 171.018094737 531.8359375 187.25 c 0,8,9
 634.601228758 221.761351243 634.601228758 221.761351243 634.601228758 305.841342048 c 0,10,11
 634.601228758 340.530956144 634.601228758 340.530956144 617.108398438 383.658203125 c 0,12,13
 575 488 575 488 411.328125 627.19140625 c 1,14,15
 257 453 257 453 231.538085938 349.274414062 c 0,0,1
334.3359375 718.28515625 m 1,16,-1
 325.833007812 727.924804688 l 2,17,18
 323 731 323 731 323.26171875 741.97265625 c 0,19,20
 323.001969584 775.743924685 323.001969584 775.743924685 375.63671875 892.099609375 c 2,21,-1
 379.809570312 901.32421875 l 1,22,23
 663 642 663 642 731.169921875 438.850585938 c 0,24,25
 760 354 760 354 760.127929688 282.6171875 c 0,26,27
 760 169 760 169 677.646484375 82.7265625 c 0,28,29
 601 3 601 3 414.708697867 2.75036688027 c 0,30,31
 294 3 294 3 208.689453125 52.875 c 0,32,33
 97 119 97 119 97.398930939 249.744009817 c 0,34,35
 97 432 97 432 334.3359375 718.28515625 c 1,16,-1
EndSplineSet
Substitution2: "'fina' Terminal Forms in Arabic lookup 9 subtable" uniFEEA
Substitution2: "'medi' Medial Forms in Arabic lookup 11 subtable" uniFEEC
Substitution2: "'init' Initial Forms in Arabic lookup 13 subtable" uniFEEB
EndChar

StartChar: uni0648
Encoding: 1608 1608 40
Width: 925
VWidth: 2491
GlyphClass: 2
Flags: W
AnchorPoint: "Anchor-10" 519.056 1063.93 basechar 0
AnchorPoint: "Anchor-7" 441.147 -657.422 basechar 0
LayerCount: 2
Fore
SplineSet
598 -371 m 28,0,1
 492 -449 492 -449 406 -449 c 4,2,3
 269.417487139 -449 269.417487139 -449 104 -408.690429688 c 4,4,5
 45 -394 45 -394 39.65234375 -371 c 0,6,7
 34 -345 34 -345 120 -330.262695312 c 0,8,9
 541 -258 541 -258 657 -75.505859375 c 0,10,11
 680 -39 680 -39 692.854492188 1 c 1,12,13
 614 -15 614 -15 526.349609375 -14.7265625 c 0,14,15
 325 -14 325 -14 251.284179688 89.7919921875 c 0,16,17
 194 171 194 171 211.59765625 296.192382812 c 0,18,19
 241 510 241 510 357.521484375 616.749023438 c 0,20,21
 431 684 431 684 523.481445312 683.17578125 c 0,22,23
 663 682 663 682 744.120117188 517.3203125 c 0,24,25
 827 349 827 349 825.626953125 155.51953125 c 0,26,27
 825 61 825 61 813.959960938 -2 c 0,28,29
 772 -243 772 -243 598 -371 c 28,0,1
495.267578125 508.27734375 m 0,30,31
 384 499 384 499 344.9375 309.765625 c 0,32,33
 315.635056087 164.155724952 315.635056087 164.155724952 522.51953125 166.217773438 c 4,34,35
 611 167 611 167 694.819335938 180.125976562 c 1,36,37
 681 326 681 326 636.850585938 415.609375 c 0,38,39
 587 516 587 516 495.267578125 508.27734375 c 0,30,31
EndSplineSet
PairPos2: "'kern' Horizontal Kerning lookup 15-1" uniFB90 dx=-150 dy=0 dh=-150 dv=0 dx=0 dy=0 dh=0 dv=0
PairPos2: "'kern' Horizontal Kerning lookup 15-1" uniFB8E dx=-150 dy=0 dh=-150 dv=0 dx=0 dy=0 dh=0 dv=0
PairPos2: "'kern' Horizontal Kerning lookup 15-1" uni06A9 dx=-150 dy=0 dh=-150 dv=0 dx=0 dy=0 dh=0 dv=0
PairPos2: "'kern' Horizontal Kerning lookup 15-1" uni064A dx=-50 dy=0 dh=-50 dv=0 dx=0 dy=0 dh=0 dv=0
PairPos2: "'kern' Horizontal Kerning lookup 15-1" afii57414 dx=-50 dy=0 dh=-50 dv=0 dx=0 dy=0 dh=0 dv=0
PairPos2: "'kern' Horizontal Kerning lookup 15-1" uni0649 dx=-50 dy=0 dh=-50 dv=0 dx=0 dy=0 dh=0 dv=0
PairPos2: "'kern' Horizontal Kerning lookup 15-1" uni0648 dx=-50 dy=0 dh=-50 dv=0 dx=0 dy=0 dh=0 dv=0
PairPos2: "'kern' Horizontal Kerning lookup 15-1" afii57412 dx=-50 dy=0 dh=-50 dv=0 dx=0 dy=0 dh=0 dv=0
PairPos2: "'kern' Horizontal Kerning lookup 15-1" uniFEEB dx=-50 dy=0 dh=-50 dv=0 dx=0 dy=0 dh=0 dv=0
PairPos2: "'kern' Horizontal Kerning lookup 15-1" uni0647 dx=-50 dy=0 dh=-50 dv=0 dx=0 dy=0 dh=0 dv=0
PairPos2: "'kern' Horizontal Kerning lookup 15-1" uniFEE7 dx=-50 dy=0 dh=-50 dv=0 dx=0 dy=0 dh=0 dv=0
PairPos2: "'kern' Horizontal Kerning lookup 15-1" uni0646 dx=-50 dy=0 dh=-50 dv=0 dx=0 dy=0 dh=0 dv=0
PairPos2: "'kern' Horizontal Kerning lookup 15-1" uniFEE3 dx=-50 dy=0 dh=-50 dv=0 dx=0 dy=0 dh=0 dv=0
PairPos2: "'kern' Horizontal Kerning lookup 15-1" uni0645 dx=-50 dy=0 dh=-50 dv=0 dx=0 dy=0 dh=0 dv=0
PairPos2: "'kern' Horizontal Kerning lookup 15-1" uniFEFB dx=-50 dy=0 dh=-50 dv=0 dx=0 dy=0 dh=0 dv=0
PairPos2: "'kern' Horizontal Kerning lookup 15-1" uniFEDF dx=-50 dy=0 dh=-50 dv=0 dx=0 dy=0 dh=0 dv=0
PairPos2: "'kern' Horizontal Kerning lookup 15-1" uni0644 dx=-50 dy=0 dh=-50 dv=0 dx=0 dy=0 dh=0 dv=0
PairPos2: "'kern' Horizontal Kerning lookup 15-1" uniFEDB dx=-150 dy=0 dh=-150 dv=0 dx=0 dy=0 dh=0 dv=0
PairPos2: "'kern' Horizontal Kerning lookup 15-1" uni0643 dx=-50 dy=0 dh=-50 dv=0 dx=0 dy=0 dh=0 dv=0
PairPos2: "'kern' Horizontal Kerning lookup 15-1" uniFED7 dx=-50 dy=0 dh=-50 dv=0 dx=0 dy=0 dh=0 dv=0
PairPos2: "'kern' Horizontal Kerning lookup 15-1" uni0642 dx=-50 dy=0 dh=-50 dv=0 dx=0 dy=0 dh=0 dv=0
PairPos2: "'kern' Horizontal Kerning lookup 15-1" uniFED3 dx=-50 dy=0 dh=-50 dv=0 dx=0 dy=0 dh=0 dv=0
PairPos2: "'kern' Horizontal Kerning lookup 15-1" uni0641 dx=-50 dy=0 dh=-50 dv=0 dx=0 dy=0 dh=0 dv=0
PairPos2: "'kern' Horizontal Kerning lookup 15-1" uniFECF dx=-50 dy=0 dh=-50 dv=0 dx=0 dy=0 dh=0 dv=0
PairPos2: "'kern' Horizontal Kerning lookup 15-1" uniFECB dx=-50 dy=0 dh=-50 dv=0 dx=0 dy=0 dh=0 dv=0
PairPos2: "'kern' Horizontal Kerning lookup 15-1" uniFEC7 dx=-50 dy=0 dh=-50 dv=0 dx=0 dy=0 dh=0 dv=0
PairPos2: "'kern' Horizontal Kerning lookup 15-1" uni0638 dx=-50 dy=0 dh=-50 dv=0 dx=0 dy=0 dh=0 dv=0
PairPos2: "'kern' Horizontal Kerning lookup 15-1" uniFEC3 dx=-50 dy=0 dh=-50 dv=0 dx=0 dy=0 dh=0 dv=0
PairPos2: "'kern' Horizontal Kerning lookup 15-1" uni0637 dx=-50 dy=0 dh=-50 dv=0 dx=0 dy=0 dh=0 dv=0
PairPos2: "'kern' Horizontal Kerning lookup 15-1" uniFEBF dx=-50 dy=0 dh=-50 dv=0 dx=0 dy=0 dh=0 dv=0
PairPos2: "'kern' Horizontal Kerning lookup 15-1" uni0636 dx=-50 dy=0 dh=-50 dv=0 dx=0 dy=0 dh=0 dv=0
PairPos2: "'kern' Horizontal Kerning lookup 15-1" uniFEBB dx=-50 dy=0 dh=-50 dv=0 dx=0 dy=0 dh=0 dv=0
PairPos2: "'kern' Horizontal Kerning lookup 15-1" uni0635 dx=-50 dy=0 dh=-50 dv=0 dx=0 dy=0 dh=0 dv=0
PairPos2: "'kern' Horizontal Kerning lookup 15-1" uniFEB7 dx=-50 dy=0 dh=-50 dv=0 dx=0 dy=0 dh=0 dv=0
PairPos2: "'kern' Horizontal Kerning lookup 15-1" uni0634 dx=-50 dy=0 dh=-50 dv=0 dx=0 dy=0 dh=0 dv=0
PairPos2: "'kern' Horizontal Kerning lookup 15-1" uniFEB3 dx=-50 dy=0 dh=-50 dv=0 dx=0 dy=0 dh=0 dv=0
PairPos2: "'kern' Horizontal Kerning lookup 15-1" uni0633 dx=-50 dy=0 dh=-50 dv=0 dx=0 dy=0 dh=0 dv=0
PairPos2: "'kern' Horizontal Kerning lookup 15-1" uni0632 dx=-50 dy=0 dh=-50 dv=0 dx=0 dy=0 dh=0 dv=0
PairPos2: "'kern' Horizontal Kerning lookup 15-1" uni0631 dx=-50 dy=0 dh=-50 dv=0 dx=0 dy=0 dh=0 dv=0
PairPos2: "'kern' Horizontal Kerning lookup 15-1" uni0630 dx=-50 dy=0 dh=-50 dv=0 dx=0 dy=0 dh=0 dv=0
PairPos2: "'kern' Horizontal Kerning lookup 15-1" uni062F dx=-50 dy=0 dh=-50 dv=0 dx=0 dy=0 dh=0 dv=0
PairPos2: "'kern' Horizontal Kerning lookup 15-1" uniFEA7 dx=-50 dy=0 dh=-50 dv=0 dx=0 dy=0 dh=0 dv=0
PairPos2: "'kern' Horizontal Kerning lookup 15-1" uniFEA3 dx=-50 dy=0 dh=-50 dv=0 dx=0 dy=0 dh=0 dv=0
PairPos2: "'kern' Horizontal Kerning lookup 15-1" uniFE9F dx=-50 dy=0 dh=-50 dv=0 dx=0 dy=0 dh=0 dv=0
PairPos2: "'kern' Horizontal Kerning lookup 15-1" uniFE9B dx=-50 dy=0 dh=-50 dv=0 dx=0 dy=0 dh=0 dv=0
PairPos2: "'kern' Horizontal Kerning lookup 15-1" uni062B dx=-50 dy=0 dh=-50 dv=0 dx=0 dy=0 dh=0 dv=0
PairPos2: "'kern' Horizontal Kerning lookup 15-1" uniFE97 dx=-50 dy=0 dh=-50 dv=0 dx=0 dy=0 dh=0 dv=0
PairPos2: "'kern' Horizontal Kerning lookup 15-1" uni062A dx=-50 dy=0 dh=-50 dv=0 dx=0 dy=0 dh=0 dv=0
PairPos2: "'kern' Horizontal Kerning lookup 15-1" uni0629 dx=-50 dy=0 dh=-50 dv=0 dx=0 dy=0 dh=0 dv=0
PairPos2: "'kern' Horizontal Kerning lookup 15-1" uni0628 dx=-50 dy=0 dh=-50 dv=0 dx=0 dy=0 dh=0 dv=0
PairPos2: "'kern' Horizontal Kerning lookup 15-1" uni0627 dx=-50 dy=0 dh=-50 dv=0 dx=0 dy=0 dh=0 dv=0
PairPos2: "'kern' Horizontal Kerning lookup 15-1" uni0623 dx=-50 dy=0 dh=-50 dv=0 dx=0 dy=0 dh=0 dv=0
PairPos2: "'kern' Horizontal Kerning lookup 15-1" uni0622 dx=-100 dy=0 dh=-100 dv=0 dx=0 dy=0 dh=0 dv=0
PairPos2: "'kern' Horizontal Kerning lookup 15-1" uni0621 dx=-50 dy=0 dh=-50 dv=0 dx=0 dy=0 dh=0 dv=0
PairPos2: "'kern' Horizontal Kerning lookup 15-1" uniFB94 dx=-150 dy=0 dh=-150 dv=0 dx=0 dy=0 dh=0 dv=0
PairPos2: "'kern' Horizontal Kerning lookup 15-1" uniFB92 dx=-150 dy=0 dh=-150 dv=0 dx=0 dy=0 dh=0 dv=0
PairPos2: "'kern' Horizontal Kerning lookup 15-1" afii57509 dx=-150 dy=0 dh=-150 dv=0 dx=0 dy=0 dh=0 dv=0
PairPos2: "'kern' Horizontal Kerning lookup 15-1" afii57508 dx=-50 dy=0 dh=-50 dv=0 dx=0 dy=0 dh=0 dv=0
PairPos2: "'kern' Horizontal Kerning lookup 15-1" uniFB7C dx=-50 dy=0 dh=-50 dv=0 dx=0 dy=0 dh=0 dv=0
PairPos2: "'kern' Horizontal Kerning lookup 15-1" afii57506 dx=-50 dy=0 dh=-50 dv=0 dx=0 dy=0 dh=0 dv=0
PairPos2: "'kern' Horizontal Kerning lookup 15-1" uniFE8B dx=-50 dy=0 dh=-50 dv=0 dx=0 dy=0 dh=0 dv=0
Substitution2: "'fina' Terminal Forms in Arabic lookup 9 subtable" uniFEEE
EndChar

StartChar: uni0649
Encoding: 1609 1609 41
Width: 1520
VWidth: 2488
GlyphClass: 2
Flags: W
AnchorPoint: "Anchor-10" 711.452 1021.8 basechar 0
AnchorPoint: "Anchor-7" 672.419 -647.612 basechar 0
LayerCount: 2
Fore
SplineSet
711.930664062 -452.655273438 m 0,0,1
 180 -460 180 -460 105.83984375 -97.2001953125 c 0,2,3
 81 24 81 24 102.599609375 165.240234375 c 0,4,5
 121 283 121 283 180.360351562 398.51953125 c 0,6,7
 254 541 254 541 298.360351562 531.649414062 c 0,8,9
 333 524 333 524 310.736328125 474.225585938 c 0,10,11
 276 397 276 397 258.229492188 339.173828125 c 0,12,13
 233 256 233 256 223.3359375 162.052734375 c 0,14,15
 205 -16 205 -16 285.7890625 -117.728515625 c 0,16,17
 406 -271 406 -271 728.87890625 -269.61328125 c 0,18,19
 1075 -268 1075 -268 1254.92089844 -92.1162109375 c 24,20,21
 1333 -16 1333 -16 1300.95214844 22.130859375 c 0,22,23
 1274.35890869 53.5756141148 1274.35890869 53.5756141148 1168.41210938 53.578125 c 2,24,25
 1086 53.580078125 l 6,26,27
 949 54 949 54 896.022460938 102.650390625 c 0,28,29
 790 201 790 201 879.83984375 433.919921875 c 0,30,31
 1007 764 1007 764 1223.48339844 783.45703125 c 0,32,33
 1393.69940125 798.972599753 1393.69940125 798.972599753 1408.07617188 612.19140625 c 2,34,-1
 1409.99902344 587.209960938 l 1,35,36
 1165 615 1165 615 1053.35058594 486 c 0,37,38
 964 382 964 382 969.190429688 289.756835938 c 0,39,40
 973.022831277 227.629882812 973.022831277 227.629882812 1090 227.629882812 c 6,41,42
 1177.77441406 227.629882812 l 2,43,44
 1295.69469595 227.989908485 1295.69469595 227.989908485 1356.55957031 193.290039062 c 0,45,46
 1436 148 1436 148 1429.73242188 25.759765625 c 0,47,48
 1421 -150 1421 -150 1222 -300.007861778 c 0,49,50
 1024 -448 1024 -448 711.930664062 -452.655273438 c 0,0,1
EndSplineSet
Substitution2: "'fina' Terminal Forms in Arabic lookup 9 subtable" uniFEF0
Substitution2: "'medi' Medial Forms in Arabic lookup 11 subtable" uniFBE9
Substitution2: "'init' Initial Forms in Arabic lookup 13 subtable" uniFBE8
EndChar

StartChar: uni064B
Encoding: 1611 1611 43
Width: -22
VWidth: 1990
GlyphClass: 4
Flags: W
AnchorPoint: "Anchor-10" 526.624 960.612 mark 0
AnchorPoint: "Anchor-9" 526.624 960.612 mark 0
AnchorPoint: "Anchor-1" 492.064 1434.91 basemark 0
AnchorPoint: "Anchor-1" 526.624 960.612 mark 0
LayerCount: 2
Fore
SplineSet
260.94140625 914.122070312 m 1,0,-1
 260.94140625 1013.25683594 l 1,1,-1
 696.107421875 1191.20019531 l 1,2,-1
 696.107421875 1092.06347656 l 1,3,-1
 260.94140625 914.122070312 l 1,0,-1
260.94140625 1150.4296875 m 1,4,-1
 260.94140625 1249.56445312 l 1,5,-1
 696.107421875 1427.50683594 l 1,6,-1
 696.107421875 1328.37109375 l 1,7,-1
 260.94140625 1150.4296875 l 1,4,-1
EndSplineSet
EndChar

StartChar: uni064C
Encoding: 1612 1612 44
Width: -22
VWidth: 1990
GlyphClass: 4
Flags: W
AnchorPoint: "Anchor-10" 584.438 1050.75 mark 0
AnchorPoint: "Anchor-9" 584.438 1050.75 mark 0
AnchorPoint: "Anchor-1" 490.738 1648.81 basemark 0
AnchorPoint: "Anchor-1" 584.438 1050.75 mark 0
LayerCount: 2
Fore
SplineSet
492.016601562 1433.06542969 m 0,0,1
 492 1387 492 1387 545.577148438 1365.15039062 c 0,2,3
 566 1357 566 1357 604.827148438 1345.06347656 c 1,4,5
 647.434101339 1444.46372026 647.434101339 1444.46372026 604.626953125 1479.48632812 c 0,6,7
 582 1498 582 1498 558 1498.86738189 c 0,8,9
 530 1499 530 1499 512 1482.54492188 c 0,10,11
 492 1464 492 1464 492.016601562 1433.06542969 c 0,0,1
291.37109375 1198.14257812 m 0,12,13
 310 1116 310 1116 383.407226563 1116.0859375 c 0,14,15
 447 1116 447 1116 512.15234375 1178.99511719 c 0,16,17
 550 1216 550 1216 580.659179688 1277.00097656 c 1,18,19
 412 1313 412 1313 413.362153218 1437 c 0,20,21
 414 1486 414 1486 444.467773438 1525.08203125 c 4,22,23
 483 1574 483 1574 549.816894531 1573.94824219 c 0,24,25
 619 1574 619 1574 661.059570312 1533 c 128,-1,26
 703 1492 703 1492 702.887695312 1421.34960938 c 0,27,28
 703.000064997 1385.97954114 703.000064997 1385.97954114 691.883789062 1350.78710938 c 2,29,-1
 685.924804688 1331.921875 l 1,30,-1
 705.685546875 1330.88476562 l 2,31,32
 725 1330 725 1330 760.486328125 1329.06640625 c 1,33,-1
 760.486328125 1252.21777344 l 1,34,35
 733.056324004 1252.00044625 733.056324004 1252.00044625 711.861328125 1254.03808594 c 2,36,-1
 649.938476562 1259.99121094 l 1,37,38
 589 1117 589 1117 469.83203125 1059.11914062 c 0,39,40
 429 1039 429 1039 386.279296875 1039.33300781 c 0,41,42
 264 1039 264 1039 234.702148438 1179.625 c 0,43,44
 222 1242 222 1242 221.065429688 1309.38378906 c 1,45,-1
 278.30078125 1309.38378906 l 1,46,47
 281 1243 281 1243 291.37109375 1198.14257812 c 0,12,13
738.28125 1329.88574219 m 2,48,-1
 738.19140625 1329.89160156 l 2,49,50
 738.237304688 1329.88769531 738.237304688 1329.88769531 738.28125 1329.88574219 c 2,48,-1
EndSplineSet
EndChar

StartChar: uni064D
Encoding: 1613 1613 45
Width: -22
VWidth: 1990
GlyphClass: 4
Flags: W
AnchorPoint: "Anchor-7" 477.467 65.4287 mark 0
AnchorPoint: "Anchor-6" 477.467 65.4287 mark 0
AnchorPoint: "Anchor-0" 549.088 -404.448 basemark 0
AnchorPoint: "Anchor-0" 477.467 65.4287 mark 0
LayerCount: 2
Fore
SplineSet
265.50390625 -445.330078125 m 1,0,-1
 265.50390625 -346.1953125 l 1,1,-1
 700.668945312 -168.252929688 l 1,2,-1
 700.668945312 -267.387695312 l 1,3,-1
 265.50390625 -445.330078125 l 1,0,-1
265.50390625 -209.0234375 m 1,4,-1
 265.50390625 -109.887695312 l 1,5,-1
 700.668945312 68.0546875 l 1,6,-1
 700.668945312 -31.0810546875 l 1,7,-1
 265.50390625 -209.0234375 l 1,4,-1
EndSplineSet
EndChar

StartChar: uni064E
Encoding: 1614 1614 46
Width: -22
VWidth: 1990
GlyphClass: 4
Flags: W
AnchorPoint: "Anchor-10" 499.253 1176.03 mark 0
AnchorPoint: "Anchor-9" 499.253 1176.03 mark 0
AnchorPoint: "Anchor-1" 464.692 1456.81 basemark 0
AnchorPoint: "Anchor-1" 499.253 1176.03 mark 0
LayerCount: 2
Fore
SplineSet
234.482421875 1149.51660156 m 1,0,-1
 234.482421875 1248.65234375 l 1,1,-1
 669.6484375 1426.59472656 l 1,2,-1
 669.6484375 1327.45898438 l 1,3,-1
 234.482421875 1149.51660156 l 1,0,-1
EndSplineSet
EndChar

StartChar: uni064F
Encoding: 1615 1615 47
Width: -22
VWidth: 1990
GlyphClass: 4
Flags: W
AnchorPoint: "Anchor-10" 531.897 1106.79 mark 0
AnchorPoint: "Anchor-9" 531.897 1106.79 mark 0
AnchorPoint: "Anchor-1" 472.192 1661.64 basemark 0
AnchorPoint: "Anchor-1" 531.897 1106.79 mark 0
LayerCount: 2
Fore
SplineSet
710.8359375 1265.08984375 m 1,0,1
 661.82421875 1265.75976562 661.82421875 1265.75976562 596.794921875 1272.68945312 c 1,2,3
 551.232421875 1208.73632812 551.232421875 1208.73632812 486.758789062 1168.99121094 c 0,4,5
 384.48046875 1105.05664062 384.48046875 1105.05664062 268.704101562 1100.73632812 c 1,6,-1
 268.704101562 1177.40917969 l 1,7,8
 361.62210347 1180.42921517 361.62210347 1180.42921517 449.551757812 1237.6015625 c 0,9,10
 484 1260 484 1260 510.866210938 1295.84960938 c 1,11,12
 429.2819663 1313.96001551 429.2819663 1313.96001551 387.81640625 1370.79589844 c 4,13,14
 363.744140625 1404 363.744140625 1404 363.661132812 1444.41992188 c 0,15,16
 363.711484922 1492.2271764 363.711484922 1492.2271764 386.232025092 1528 c 0,17,18
 423.582104768 1587.32885276 423.582104768 1587.32885276 508.86328125 1586.77636719 c 0,19,20
 569.375976562 1587.16796875 569.375976562 1587.16796875 611.41015625 1545.828125 c 0,21,22
 653.18359375 1505.08789062 653.18359375 1505.08789062 653.237304688 1434.17871094 c 0,23,24
 653.18359375 1405.08105469 653.18359375 1405.08105469 640.26171875 1363.55566406 c 2,25,-1
 634.447265625 1344.86914062 l 1,26,-1
 653.98828125 1343.71386719 l 2,27,28
 686.879882812 1341.79199219 686.879882812 1341.79199219 710.8359375 1341.81640625 c 1,29,-1
 710.8359375 1265.08984375 l 1,0,1
555.177734375 1357.89257812 m 1,30,-1
 566.4609375 1384.21386719 l 2,31,32
 576.484375 1407.60644531 576.484375 1407.60644531 576.484375 1441.10644531 c 128,-1,33
 576.484375 1474.60546875 576.484375 1474.60546875 554.974609375 1492.31445312 c 128,-1,34
 533.463867188 1510.0234375 533.463867188 1510.0234375 507.396484375 1510.0234375 c 0,35,36
 459.324641112 1510.0234375 459.324641112 1510.0234375 446.915647557 1473 c 0,37,38
 424.627076137 1406.49988238 424.627076137 1406.49988238 495.927734375 1377.97753906 c 0,39,40
 515.947265625 1369.97167969 515.947265625 1369.97167969 555.177734375 1357.89257812 c 1,30,-1
EndSplineSet
EndChar

StartChar: uni0650
Encoding: 1616 1616 48
Width: -22
VWidth: 1990
GlyphClass: 4
Flags: W
AnchorPoint: "Anchor-7" 490.226 -13.9971 mark 0
AnchorPoint: "Anchor-6" 490.226 -13.9971 mark 0
AnchorPoint: "Anchor-0" 531.381 -282.48 basemark 0
AnchorPoint: "Anchor-0" 490.226 -13.9971 mark 0
LayerCount: 2
Fore
SplineSet
274.627929688 -304.823242188 m 1,0,-1
 274.627929688 -205.6875 l 1,1,-1
 709.79296875 -27.74609375 l 1,2,-1
 709.79296875 -126.880859375 l 1,3,-1
 274.627929688 -304.823242188 l 1,0,-1
EndSplineSet
EndChar

StartChar: uni0651
Encoding: 1617 1617 49
Width: -22
VWidth: 1990
GlyphClass: 4
Flags: W
AnchorPoint: "Anchor-10" 486.624 1189.15 mark 0
AnchorPoint: "Anchor-9" 486.624 1189.15 mark 0
AnchorPoint: "Anchor-1" 490.123 1570.05 basemark 0
AnchorPoint: "Anchor-1" 486.624 1189.15 mark 0
LayerCount: 2
Fore
SplineSet
491.879882812 1287.58007812 m 1,0,1
 472 1171 472 1171 357.74609375 1170.98144531 c 4,2,3
 223 1171 223 1171 222.20709422 1342.45929558 c 0,4,5
 222 1375 222 1375 235.623046875 1463.30371094 c 1,6,7
 298 1463 298 1463 299.440429688 1361.6640625 c 0,8,9
 300 1264 300 1264 358.516601562 1264.09863281 c 0,10,11
 441 1264 441 1264 448 1437 c 0,12,13
 450 1492 450 1492 523.690429688 1491.96191406 c 1,14,15
 525 1461 525 1461 525.560546875 1419.41601562 c 0,16,17
 524.999062086 1297.79684532 524.999062086 1297.79684532 611.11328125 1297.95117188 c 2,18,-1
 611.658203125 1297.95214844 l 2,19,20
 689 1298 689 1298 687.75390625 1411.08398438 c 0,21,22
 687 1546 687 1546 755.086914062 1545.85742188 c 1,23,24
 766 1464 766 1464 766.639648438 1415.09667969 c 0,25,26
 766 1209 766 1209 613.9296875 1209.58105469 c 4,27,28
 522 1210 522 1210 491.879882812 1287.58007812 c 1,0,1
EndSplineSet
EndChar

StartChar: uni0652
Encoding: 1618 1618 50
Width: -29
VWidth: 2488
GlyphClass: 4
Flags: W
AnchorPoint: "Anchor-10" 635.609 1282.72 mark 0
AnchorPoint: "Anchor-9" 635.609 1282.72 mark 0
AnchorPoint: "Anchor-1" 619.643 1936.77 basemark 0
AnchorPoint: "Anchor-1" 635.609 1282.72 mark 0
LayerCount: 2
Fore
SplineSet
763.932617188 1573.67089844 m 0,0,1
 763.932617188 1626.24609375 763.932617188 1626.24609375 727.1640625 1663.01464844 c 128,-1,2
 690.399414062 1699.78320312 690.399414062 1699.78320312 637.075195312 1699.78320312 c 0,3,4
 583.004882812 1699.78320312 583.004882812 1699.78320312 546.614257812 1663.390625 c 128,-1,5
 510.221679688 1626.99902344 510.221679688 1626.99902344 510.221679688 1573.67089844 c 0,6,7
 510.221679688 1519.6015625 510.221679688 1519.6015625 546.614257812 1483.20996094 c 128,-1,8
 583.004882812 1446.81835938 583.004882812 1446.81835938 637.075195312 1446.81835938 c 0,9,10
 690.401367188 1446.81835938 690.401367188 1446.81835938 727.1640625 1483.58691406 c 128,-1,11
 763.932617188 1520.35449219 763.932617188 1520.35449219 763.932617188 1573.67089844 c 0,0,1
841.771484375 1573.79589844 m 128,-1,13
 841.771484375 1487.93164062 841.771484375 1487.93164062 782.490234375 1428.27050781 c 128,-1,14
 723.248046875 1368.65527344 723.248046875 1368.65527344 637.4296875 1368.65527344 c 0,15,16
 608.748046875 1368.65527344 608.748046875 1368.65527344 583.114257812 1375.26757812 c 128,-1,17
 557.481445312 1381.87890625 557.481445312 1381.87890625 534.819335938 1395.11816406 c 128,-1,18
 512.158203125 1408.35839844 512.158203125 1408.35839844 492.370117188 1428.27050781 c 0,19,20
 462.672851562 1458.15820312 462.672851562 1458.15820312 447.880859375 1494.46191406 c 128,-1,21
 433.086914062 1530.76464844 433.086914062 1530.76464844 433.086914062 1573.79589844 c 0,22,23
 433.086914062 1659.63085938 433.086914062 1659.63085938 492.336914062 1718.890625 c 128,-1,24
 551.584960938 1778.13867188 551.584960938 1778.13867188 637.4296875 1778.13867188 c 128,-1,25
 723.274414062 1778.13867188 723.274414062 1778.13867188 782.521484375 1718.890625 c 128,-1,12
 841.771484375 1659.63085938 841.771484375 1659.63085938 841.771484375 1573.79589844 c 128,-1,13
EndSplineSet
EndChar

StartChar: uni0653
Encoding: 1619 1619 51
Width: -3
VWidth: 2459
GlyphClass: 4
Flags: W
AnchorPoint: "Anchor-10" 504.319 1404.45 mark 0
AnchorPoint: "Anchor-9" 504.319 1404.45 mark 0
AnchorPoint: "Anchor-1" 504.319 1829.56 basemark 0
AnchorPoint: "Anchor-1" 504.319 1404.45 mark 0
LayerCount: 2
Fore
SplineSet
349.712890625 1479.8984375 m 4,0,1
 245 1487 245 1487 182.056105073 1422.87393039 c 0,2,3
 164 1405 164 1405 152.039487084 1407.0242072 c 128,-1,4
 140 1409 140 1409 139.81562286 1424.12192167 c 0,5,6
 139.322769595 1433.11224041 139.322769595 1433.11224041 143.810937121 1449.60505296 c 0,7,8
 165 1527 165 1527 217.444576628 1581.58453678 c 0,9,10
 255 1620 255 1620 306.507942574 1621.97143522 c 0,11,12
 346 1624 346 1624 388.670440814 1618.67700286 c 0,13,14
 431 1614 431 1614 548.323195724 1615.41580723 c 0,15,16
 665 1617 665 1617 689.072829829 1622.18150115 c 0,17,18
 713 1627 713 1627 722.913884117 1623.07841555 c 0,19,20
 734 1619 734 1619 722.977484178 1601.49400935 c 0,21,22
 656 1502 656 1502 579.953125 1481.41601562 c 4,23,24
 528 1467 528 1467 349.712890625 1479.8984375 c 4,0,1
EndSplineSet
EndChar

StartChar: uni0657
Encoding: 1623 1623 54
Width: -31
VWidth: 2687
GlyphClass: 4
Flags: W
AnchorPoint: "Anchor-10" 664.286 1572.39 mark 0
AnchorPoint: "Anchor-9" 664.286 1572.39 mark 0
AnchorPoint: "Anchor-1" 664.286 2429.06 basemark 0
AnchorPoint: "Anchor-1" 664.286 1572.39 mark 0
LayerCount: 2
Fore
SplineSet
768.813476562 1871.73046875 m 0,0,1
 768.657226562 1669.03222656 768.657226562 1669.03222656 572.7890625 1670.83398438 c 0,2,3
 491.053710938 1671.36425781 491.053710938 1671.36425781 434.354492188 1726.11523438 c 0,4,5
 377.913085938 1781.00683594 377.913085938 1781.00683594 377.884765625 1876.84179688 c 0,6,7
 377.913085938 1915.97070312 377.913085938 1915.97070312 395.40234375 1972.18261719 c 2,8,-1
 403.251953125 1997.41015625 l 1,9,-1
 376.870117188 1998.96777344 l 2,10,11
 334.756835938 2001.45605469 334.756835938 2001.45605469 300.126953125 2001.53027344 c 1,12,-1
 300.126953125 2105.11132812 l 1,13,14
 366.25 2104.09960938 366.25 2104.09960938 454.083984375 2094.85253906 c 1,15,16
 515.548828125 2182.24804688 515.548828125 2182.24804688 602.633789062 2234.84472656 c 0,17,18
 814.147460938 2364.20605469 814.147460938 2364.20605469 915.624023438 2369.73632812 c 5,19,-1
 915.624023438 2266.22949219 l 5,20,21
 807.149414062 2262.72949219 807.149414062 2262.72949219 652.860351562 2142.21875 c 0,22,23
 621.690429688 2118.09667969 621.690429688 2118.09667969 595.259765625 2090.10058594 c 2,24,-1
 570.08984375 2063.60351562 l 1,25,-1
 605.763671875 2055.66503906 l 2,26,27
 615.859375 2053.94335938 615.859375 2053.94335938 659.262695312 2030.55566406 c 0,28,29
 703.33984375 2007.28710938 703.33984375 2007.28710938 736.204101562 1962.40625 c 0,30,31
 768.657226562 1917.47558594 768.657226562 1917.47558594 768.813476562 1871.73046875 c 0,0,1
560.067382812 1774.453125 m 0,32,33
 662.559570312 1774.453125 662.559570312 1774.453125 662.559570312 1861.02636719 c 0,34,35
 662.559570312 1923.78710938 662.559570312 1923.78710938 590.255859375 1952.71191406 c 0,36,37
 563.344726562 1963.48144531 563.344726562 1963.48144531 510.267578125 1979.83007812 c 1,38,-1
 495.03515625 1944.29394531 l 2,39,40
 481.501953125 1912.71972656 481.501953125 1912.71972656 481.501953125 1867.5 c 128,-1,41
 481.501953125 1822.28027344 481.501953125 1822.28027344 510.537109375 1798.36621094 c 128,-1,42
 539.572265625 1774.453125 539.572265625 1774.453125 560.067382812 1774.453125 c 0,32,33
EndSplineSet
EndChar

StartChar: uni065A
Encoding: 1626 1626 55
Width: 1316
VWidth: 2687
GlyphClass: 4
Flags: W
AnchorPoint: "Anchor-10" 664.286 1572.39 mark 0
AnchorPoint: "Anchor-9" 664.286 1572.39 mark 0
AnchorPoint: "Anchor-1" 661.651 2165.48 basemark 0
AnchorPoint: "Anchor-1" 664.286 1572.39 mark 0
LayerCount: 2
Fore
SplineSet
578.485351562 1674.78808594 m 1,0,-1
 346.224609375 2063.08007812 l 1,1,-1
 481.889648438 2063.08007812 l 1,2,-1
 664.286132812 1789.47753906 l 1,3,-1
 846.682617188 2063.08007812 l 1,4,-1
 982.349609375 2063.08007812 l 1,5,-1
 750.084960938 1674.78808594 l 1,6,-1
 578.485351562 1674.78808594 l 1,0,-1
EndSplineSet
EndChar

StartChar: afii57392
Encoding: 1632 1632 56
Width: 824
VWidth: 2457
GlyphClass: 2
Flags: W
LayerCount: 2
Fore
SplineSet
283.16015625 622.879882812 m 4,0,1
 284 569.120117188 284 569.120117188 320.959960938 532.16015625 c 132,-1,2
 357.919921875 495.200195312 357.919921875 495.200195312 410.83984375 495.200195312 c 132,-1,3
 463.759765625 495.200195312 463.759765625 495.200195312 500.719726562 532.16015625 c 132,-1,4
 537.6796875 569.120117188 537.6796875 569.120117188 538.51953125 622.879882812 c 4,5,6
 537.6796875 676.639648438 537.6796875 676.639648438 500.719726562 713.599609375 c 132,-1,7
 463.759765625 750.559570312 463.759765625 750.559570312 410.83984375 750.559570312 c 132,-1,8
 357.919921875 750.559570312 357.919921875 750.559570312 320.959960938 713.599609375 c 132,-1,9
 284 676.639648438 284 676.639648438 283.16015625 622.879882812 c 4,0,1
142.6328125 618.606445312 m 132,-1,11
 142.6328125 730.637695312 142.6328125 730.637695312 221.728515625 810.194335938 c 132,-1,12
 300.741210938 889.671875 300.741210938 889.671875 411.943359375 889.671875 c 132,-1,13
 523.147460938 889.671875 523.147460938 889.671875 602.158203125 810.194335938 c 132,-1,14
 681.250976562 730.63671875 681.250976562 730.63671875 681.250976562 618.606445312 c 132,-1,15
 681.250976562 506.568359375 681.250976562 506.568359375 602.158203125 427.020507812 c 132,-1,16
 523.137695312 347.543945312 523.137695312 347.543945312 411.943359375 347.543945312 c 132,-1,17
 300.73828125 347.543945312 300.73828125 347.543945312 221.728515625 427.020507812 c 132,-1,10
 142.6328125 506.57421875 142.6328125 506.57421875 142.6328125 618.606445312 c 132,-1,11
EndSplineSet
EndChar

StartChar: afii57393
Encoding: 1633 1633 57
Width: 704
VWidth: 2299
GlyphClass: 2
Flags: W
LayerCount: 2
Fore
SplineSet
207.435546875 1382.98339844 m 5,0,1
 419.313926441 974.466655393 419.313926441 974.466655393 459.559570312 486.959960938 c 4,2,3
 491 104 491 104 357.470703125 18.8505859375 c 1,4,5
 346 614 346 614 128.423828125 1154.39941406 c 4,6,7
 60.0373062601 1323.90752982 60.0373062601 1323.90752982 192.124023438 1376.84667969 c 6,8,-1
 207.435546875 1382.98339844 l 5,0,1
EndSplineSet
EndChar

StartChar: afii57394
Encoding: 1634 1634 58
Width: 1082
VWidth: 2299
GlyphClass: 2
Flags: W
LayerCount: 2
Fore
SplineSet
205.795898438 1380.98339844 m 5,0,1
 269 1232 269 1232 286.711914062 1201.35546875 c 4,2,3
 397 1012 397 1012 562.759765625 1011.09277344 c 4,4,5
 763 1010 763 1010 798.879882812 1245.79980469 c 4,6,7
 819.934706272 1382.57583984 819.934706272 1382.57583984 951.470703125 1350.60644531 c 6,8,-1
 973.766601562 1345.1875 l 5,9,10
 972 1293 972 1293 954.232421875 1201.63769531 c 4,11,12
 883 846 883 846 562.360351562 847.559570312 c 4,13,14
 480 848 480 848 405 872.400390625 c 5,15,16
 469 522 469 522 470.049804688 357 c 4,17,18
 473 90 473 90 355.830078125 18.8505859375 c 1,19,20
 347 661 347 661 128.784179688 1152.39941406 c 4,21,22
 57.9648787917 1312.07918952 57.9648787917 1312.07918952 190.484375 1373.84667969 c 6,23,-1
 205.795898438 1380.98339844 l 5,0,1
EndSplineSet
EndChar

StartChar: afii57395
Encoding: 1635 1635 59
Width: 1248
VWidth: 2299
GlyphClass: 2
Flags: W
LayerCount: 2
Fore
SplineSet
206.680664062 1382.84863281 m 5,0,1
 248 1296 248 1296 280.5234375 1220.07421875 c 4,2,3
 372 1011 372 1011 511 1013.03320312 c 4,4,5
 568 1014 568 1014 612.5 1069 c 132,-1,6
 657 1124 657 1124 658.479492188 1316.50976562 c 5,7,-1
 770.010742188 1338.33105469 l 5,8,9
 774 1165 774 1165 784.1171875 1120.40527344 c 4,10,11
 808 1012 808 1012 913.842773438 1013.36328125 c 4,12,13
 1018 1015 1018 1015 1010.28710938 1233.1640625 c 4,14,15
 1007 1327 1007 1327 1078.76464844 1360.06933594 c 4,16,17
 1098 1369 1098 1369 1143.69042969 1361.35058594 c 5,18,19
 1157 1046 1157 1046 1076.61230469 939.900390625 c 4,20,21
 1011 854 1011 854 903 854 c 132,-1,22
 795 854 795 854 719.458984375 969.580078125 c 5,23,24
 648 848 648 848 512 849.388671875 c 4,25,26
 438 850 438 850 396.126953125 878.0625 c 5,27,28
 471 502 471 502 471.890625 351 c 4,29,30
 473 75 473 75 359.637695312 18.41796875 c 1,31,32
 347 652 347 652 127.987304688 1150.265625 c 4,33,34
 55 1316 55 1316 206.680664062 1382.84863281 c 5,0,1
EndSplineSet
EndChar

StartChar: afii57396
Encoding: 1636 1636 60
Width: 972
VWidth: 2626
GlyphClass: 2
Flags: W
LayerCount: 2
Fore
SplineSet
411.409179688 681.01171875 m 1,0,1
 165 804 165 804 107.203125 884.69140625 c 1,2,3
 159 1208 159 1208 613.36328125 1391.55371094 c 5,4,5
 642 1347 642 1347 647.40625 1210.36914062 c 5,6,7
 260 1012 260 1012 228.551757812 934.388671875 c 1,8,9
 411 844 411 844 718.150390625 792.391601562 c 1,10,11
 712 723 712 723 707.278320312 658.431640625 c 1,12,13
 251 392 251 392 221.903320312 335.17578125 c 1,14,15
 448 226 448 226 846.296875 271.969726562 c 1,16,-1
 878.603515625 55.0986328125 l 1,17,18
 370 18 370 18 93.431640625 234.61328125 c 1,19,20
 109 434 109 434 411.409179688 681.01171875 c 1,0,1
EndSplineSet
EndChar

StartChar: afii57397
Encoding: 1637 1637 61
Width: 1288
VWidth: 2452
GlyphClass: 2
Flags: W
LayerCount: 2
Fore
SplineSet
395.017578125 770.459960938 m 4,0,1
 245 507 245 507 321.46875 387.279296875 c 0,2,3
 395 273 395 273 578.728515625 252.891601562 c 0,4,5
 756 234 756 234 889.405273438 314.333984375 c 0,6,7
 966 360 966 360 996.319419606 443.794681084 c 0,8,9
 1027 527 1027 527 974.991210938 653.529296875 c 0,10,11
 914.141826208 803.650102221 914.141826208 803.650102221 626.331054688 1048.42480469 c 6,12,-1
 596.471679688 1073.81933594 l 5,13,14
 493 942 493 942 395.017578125 770.459960938 c 4,0,1
529.453125 1174.71679688 m 5,15,-1
 494.349609375 1206.25390625 l 5,16,17
 496 1250 496 1250 562.436523438 1400.26074219 c 5,18,19
 1003 986 1003 986 1095.28808594 716.196289062 c 0,20,21
 1214 365 1214 365 1017.44238281 173.658203125 c 0,22,23
 898 57 898 57 628.723632812 54.0068359375 c 0,24,25
 422 51 422 51 291.918457031 128.915039062 c 128,-1,26
 162 207 162 207 131.8046875 361.860351562 c 0,27,28
 79.9150586262 631.441293879 79.9150586262 631.441293879 504.96875 1145.12695312 c 6,29,-1
 529.453125 1174.71679688 l 5,15,-1
EndSplineSet
EndChar

StartChar: afii57398
Encoding: 1638 1638 62
Width: 1289
VWidth: 2451
GlyphClass: 2
Flags: W
LayerCount: 2
Fore
SplineSet
967.237304688 1376.89941406 m 1,0,1
 971 806 971 806 1012.58984375 580.369140625 c 0,2,3
 1055 345 1055 345 1158.9140625 14.03125 c 1,4,5
 905 14 905 14 848.482421875 646.576171875 c 0,6,7
 813.45127563 1042.19696451 813.45127563 1042.19696451 811.869140625 1155.70507812 c 2,8,-1
 811.293945312 1196.97167969 l 1,9,-1
 771.673828125 1185.41699219 l 2,10,11
 667 1155 667 1155 502.434570312 1155.36035156 c 0,12,13
 377 1156 377 1156 257.700195312 1172.53515625 c 0,14,15
 176 1184 176 1184 136.928710938 1223.54296875 c 0,16,17
 97.7333984375 1262.26337128 97.7333984375 1262.26337128 97.7333984375 1332.48046875 c 2,18,-1
 97.7333984375 1375.58300781 l 1,19,20
 301 1324 301 1324 488.9296875 1323.78613281 c 0,21,22
 729 1324 729 1324 967.237304688 1376.89941406 c 1,0,1
EndSplineSet
EndChar

StartChar: afii57399
Encoding: 1639 1639 63
Width: 1085
VWidth: 2451
GlyphClass: 2
Flags: W
LayerCount: 2
Fore
SplineSet
541.825195312 322.271484375 m 5,0,1
 591 650 591 650 866.44140625 1290.6328125 c 4,2,3
 921.2578125 1418.90722656 921.2578125 1418.90722656 967.806640625 1300 c 6,4,-1
 1014 1182 l 5,5,6
 654 421 654 421 574.328125 -8.2822265625 c 5,7,-1
 510.65625 -8.2822265625 l 5,8,9
 428 436 428 436 75 1178.93652344 c 5,10,-1
 117.177734375 1300 l 6,11,12
 160.883789062 1425.08105469 160.883789062 1425.08105469 218.54296875 1290.6328125 c 4,13,14
 495 646 495 646 541.825195312 322.271484375 c 5,0,1
EndSplineSet
EndChar

StartChar: afii57400
Encoding: 1640 1640 64
Width: 1085
VWidth: 2451
GlyphClass: 2
Flags: W
LayerCount: 2
Fore
SplineSet
547.174804688 1029.44628906 m 5,0,1
 497.80859375 707.278320312 497.80859375 707.278320312 222.55859375 61.0849609375 c 4,2,3
 167.827148438 -67.40625 167.827148438 -67.40625 121.193359375 51.7177734375 c 6,4,-1
 75 169.717773438 l 5,5,6
 435 931 435 931 514.671875 1360 c 5,7,-1
 578.34375 1360 l 5,8,9
 661 916 661 916 1014 172.78125 c 5,10,-1
 971.822265625 51.7177734375 l 6,11,12
 928 -73 928 -73 870.45703125 61.0849609375 c 4,13,14
 594 705 594 705 547.174804688 1029.44628906 c 5,0,1
EndSplineSet
EndChar

StartChar: afii57401
Encoding: 1641 1641 65
Width: 1155
VWidth: 2451
GlyphClass: 2
Flags: W
LayerCount: 2
Fore
SplineSet
750 665 m 1,0,1
 295 630 295 630 172.599609375 773.200195312 c 0,2,3
 98 860 98 860 98.2802734375 974.299804688 c 0,4,5
 98 1142 98 1142 211.743164062 1265.38867188 c 4,6,7
 325 1390 325 1390 470.243164062 1389.82519531 c 0,8,9
 627 1390 627 1390 745.120117188 1276.6796875 c 0,10,11
 858 1168 858 1168 872.122070312 964.192382812 c 0,12,13
 900 546 900 546 921.700195312 415.540039062 c 0,14,15
 943 284 943 284 1024.77734375 12.126953125 c 1,16,-1
 1015.61914062 12.126953125 l 2,17,18
 853 12 853 12 798.309570312 270.228515625 c 0,19,20
 768 414 768 414 750 665 c 1,0,1
729.860351562 840.8359375 m 1,21,-1
 719.596679688 920.31640625 l 2,22,23
 703 1050 703 1050 657.069335938 1116.58300781 c 0,24,25
 588 1217 588 1217 481.604492188 1217.671875 c 0,26,27
 404 1218 404 1218 339 1163.5 c 0,28,29
 255 1092 255 1092 249.123046875 1004.31738281 c 0,30,31
 243 913 243 913 325.08984375 863.708984375 c 24,32,33
 417 808 417 808 729.860351562 840.8359375 c 1,21,-1
EndSplineSet
EndChar

StartChar: afii57381
Encoding: 1642 1642 66
Width: 1275
VWidth: 3432
GlyphClass: 2
Flags: W
LayerCount: 2
Fore
SplineSet
778.860351562 359.670898438 m 0,0,1
 778.860351562 365.845703125 778.860351562 365.845703125 779.290039062 371.8359375 c 128,-1,2
 779.71875 377.826171875 779.71875 377.826171875 780.578125 383.637695312 c 128,-1,3
 781.4375 389.448242188 781.4375 389.448242188 782.727539062 395.078125 c 128,-1,4
 784.016601562 400.708007812 784.016601562 400.708007812 785.737304688 406.162109375 c 128,-1,5
 787.45703125 411.615234375 787.45703125 411.615234375 789.608398438 416.890625 c 128,-1,6
 791.758789062 422.166015625 791.758789062 422.166015625 794.341796875 427.267578125 c 128,-1,7
 796.924804688 432.369140625 796.924804688 432.369140625 799.938476562 437.295898438 c 128,-1,8
 802.952148438 442.221679688 802.952148438 442.221679688 806.399414062 446.977539062 c 128,-1,9
 809.846679688 451.733398438 809.846679688 451.733398438 813.724609375 456.31640625 c 128,-1,10
 817.602539062 460.899414062 817.602539062 460.899414062 821.916015625 465.315429688 c 0,11,12
 867.057617188 509.430664062 867.057617188 509.430664062 928.620117188 509.430664062 c 0,13,14
 942.340820312 509.430664062 942.340820312 509.430664062 955.193359375 507.16015625 c 128,-1,15
 968.045898438 504.889648438 968.045898438 504.889648438 980.088867188 500.33984375 c 128,-1,16
 992.130859375 495.790039062 992.130859375 495.790039062 1003.43652344 488.9375 c 0,17,18
 1038.36621094 468.390625 1038.36621094 468.390625 1057.87597656 434.506835938 c 0,19,20
 1078.37988281 400.673828125 1078.37988281 400.673828125 1078.37988281 359.670898438 c 0,21,22
 1078.37988281 298.107421875 1078.37988281 298.107421875 1034.26464844 252.966796875 c 0,23,24
 1027.95605469 246.8046875 1027.95605469 246.8046875 1021.30566406 241.530273438 c 128,-1,25
 1014.65429688 236.255859375 1014.65429688 236.255859375 1007.65039062 231.859375 c 128,-1,26
 1000.64550781 227.463867188 1000.64550781 227.463867188 993.288085938 223.952148438 c 128,-1,27
 985.930664062 220.440429688 985.930664062 220.440429688 978.212890625 217.805664062 c 128,-1,28
 970.49609375 215.171875 970.49609375 215.171875 962.415039062 213.41796875 c 128,-1,29
 954.333984375 211.6640625 954.333984375 211.6640625 945.887695312 210.788085938 c 128,-1,30
 937.44140625 209.911132812 937.44140625 209.911132812 928.620117188 209.911132812 c 0,31,32
 887.5234375 209.911132812 887.5234375 209.911132812 852.66796875 229.388671875 c 0,33,34
 817.814453125 249.890625 817.814453125 249.890625 798.348632812 283.697265625 c 0,35,36
 778.860351562 318.573242188 778.860351562 318.573242188 778.860351562 359.670898438 c 0,0,1
196.024414062 1126.92871094 m 0,37,38
 196 1190 196 1190 239.080078125 1232.57324219 c 0,39,40
 283 1276 283 1276 345.784179688 1276.68847656 c 0,41,42
 366 1277 366 1277 385.000976562 1271.58007812 c 128,-1,43
 404 1266 404 1266 420.600585938 1256.1953125 c 0,44,45
 453 1237 453 1237 475.040039062 1201.76464844 c 0,46,47
 482 1190 482 1190 486.456054688 1178.39355469 c 0,48,49
 491 1166 491 1166 493.275390625 1153.50292969 c 0,50,51
 496 1141 496 1141 495.543945312 1126.92871094 c 0,52,53
 496 1106 496 1106 490.655273438 1087.68457031 c 0,54,55
 486 1069 486 1069 475.967773438 1052.15917969 c 0,56,57
 466 1035 466 1035 451.428710938 1020.22460938 c 0,58,59
 407 977 407 977 345.784179688 977.168945312 c 0,60,61
 325 977 325 977 306.229492188 982.044921875 c 0,62,63
 287 987 287 987 269.83203125 996.646484375 c 0,64,65
 261 1002 261 1002 253.370117188 1007.73242188 c 0,66,67
 246 1014 246 1014 238.8203125 1020.49023438 c 0,68,69
 232 1027 232 1027 226.198242188 1034.90234375 c 0,70,71
 220 1043 220 1043 215.512695312 1050.95507812 c 0,72,73
 206 1068 206 1068 200.897460938 1087.37109375 c 0,74,75
 196 1106 196 1106 196.024414062 1126.92871094 c 0,37,38
862.502929688 1361.80859375 m 5,76,-1
 998 1292 l 5,77,-1
 332.383789062 2.4375 l 1,78,-1
 197.321289062 76.6611328125 l 1,79,-1
 862.502929688 1361.80859375 l 5,76,-1
EndSplineSet
EndChar

StartChar: uni066B
Encoding: 1643 1643 67
Width: 818
VWidth: 3435
GlyphClass: 2
Flags: W
LayerCount: 2
Fore
SplineSet
578.796875 529.668945312 m 5,0,-1
 698.693359375 455.4609375 l 5,1,-1
 185.013671875 -500.555664062 l 5,2,-1
 63.0546875 -419.609375 l 5,3,-1
 578.796875 529.668945312 l 5,0,-1
EndSplineSet
EndChar

StartChar: uni066C
Encoding: 1644 1644 68
Width: 489
VWidth: 3387
GlyphClass: 2
Flags: W
LayerCount: 2
Fore
SplineSet
244.903320312 297.616210938 m 0,0,1
 252 298 252 298 258.465820312 297.326171875 c 0,2,3
 399 290 399 290 388.07421875 89.28515625 c 0,4,5
 373 -172 373 -172 114.354492188 -325.986328125 c 0,6,7
 65 -355 65 -355 49.1611328125 -329.025390625 c 0,8,9
 43 -319 43 -319 60.630859375 -305.564453125 c 0,10,11
 140 -247 140 -247 195.099609375 -161.001953125 c 0,12,13
 250.253446557 -73.5983572206 250.253446557 -73.5983572206 243.451171875 1.927734375 c 6,14,-1
 243.100585938 5.8203125 l 5,15,-1
 212.703125 8.54296875 l 1,16,-1
 212.485351562 8.5576171875 l 2,17,18
 147 13 147 13 115.220703125 60.033203125 c 0,19,20
 83 107 83 107 95.962890625 172.607421875 c 0,21,22
 109 238 109 238 153.48828125 267.747070312 c 0,23,24
 194 295 194 295 244.903320312 297.616210938 c 0,0,1
EndSplineSet
EndChar

StartChar: afii63167
Encoding: 1645 1645 69
Width: 1289
VWidth: 2360
GlyphClass: 2
Flags: W
LayerCount: 2
Fore
SplineSet
143.533203125 858.200195312 m 1,0,-1
 525.563476562 858.200195312 l 1,1,-1
 644.826171875 1221.30761719 l 1,2,-1
 764.0859375 858.200195312 l 1,3,-1
 1146.1171875 858.200195312 l 1,4,-1
 837.489257812 632.583007812 l 1,5,-1
 955.581054688 269.793945312 l 1,6,-1
 644.826171875 494.34765625 l 1,7,-1
 334.068359375 269.793945312 l 1,8,-1
 452.16015625 632.583007812 l 1,9,-1
 143.533203125 858.200195312 l 1,0,-1
EndSplineSet
EndChar

StartChar: uni066E
Encoding: 1646 1646 70
Width: 1764
VWidth: 2471
GlyphClass: 2
Flags: W
AnchorPoint: "Anchor-10" 804.34 1180.13 basechar 0
AnchorPoint: "Anchor-7" 541.037 -262.897 basechar 0
LayerCount: 2
Fore
SplineSet
789 -43.47265625 m 0,0,1
 457 -43 457 -43 281.400390625 68.4404296875 c 0,2,3
 100 184 100 184 102.040039062 455.759765625 c 0,4,5
 103 587 103 587 140.919921875 671.759765625 c 0,6,7
 163 721 163 721 192.759765625 717.66015625 c 0,8,9
 223 714 223 714 207.145507812 643.064453125 c 0,10,11
 193 578 193 578 194.919921875 490.3203125 c 0,12,13
 203 149 203 149 801 150.458984375 c 0,14,15
 1145 151 1145 151 1340.79980469 213.383789062 c 0,16,17
 1443 246 1443 246 1503.15625 293.32421875 c 0,18,19
 1594 363 1594 363 1563.796875 438.475585938 c 4,20,21
 1507 582 1507 582 1497.10742188 612.040039062 c 4,22,23
 1442.96397655 777.109826455 1442.96397655 777.109826455 1569.44628906 837.56640625 c 2,24,-1
 1586.03613281 845.49609375 l 1,25,26
 1656 637 1656 637 1664.97265625 459.475585938 c 0,27,28
 1676 223 1676 223 1465.91796875 97.853515625 c 0,29,30
 1227 -44 1227 -44 789 -43.47265625 c 0,0,1
EndSplineSet
Substitution2: "'init' Initial Forms in Arabic lookup 13 subtable" uni066E.init
Substitution2: "'medi' Medial Forms in Arabic lookup 11 subtable" uni066E.medi
Substitution2: "'fina' Terminal Forms in Arabic lookup 9 subtable" uni066E.fina
EndChar

StartChar: uni066F
Encoding: 1647 1647 71
Width: 1409
VWidth: 2491
GlyphClass: 2
Flags: W
AnchorPoint: "Anchor-10" 354.999 1265.61 basechar 0
AnchorPoint: "Anchor-7" 496.955 -621.591 basechar 0
LayerCount: 2
Fore
SplineSet
1006.546875 770.423828125 m 0,0,1
 1175.29707055 772.97426249 1175.29707055 772.97426249 1254.22070312 576.637695312 c 0,2,3
 1319 415 1319 415 1318.24902344 232.52734375 c 0,4,5
 1318 54 1318 54 1292.25683594 -37.7998046875 c 0,6,7
 1178 -453 1178 -453 659.930664062 -463.7109375 c 0,8,9
 345 -470 345 -470 187.1328125 -264.81640625 c 0,10,11
 56 -94 56 -94 114.48046875 196.559570312 c 0,12,13
 135 299 135 299 190.567382812 419.075195312 c 0,14,15
 219 481 219 481 255.419921875 470.33984375 c 0,16,17
 292 460 292 460 265.825195312 389.879882812 c 0,18,19
 180 154 180 154 235.631835938 -27.3291015625 c 0,20,21
 313 -282 313 -282 665.359375 -280.587890625 c 0,22,23
 1168 -279 1168 -279 1195.05664062 66.994140625 c 0,24,25
 1197 92 1197 92 1197.79296875 117.440429688 c 1,26,27
 1086 86 1086 86 996.59375 86.4560546875 c 0,28,29
 820 87 820 87 748.654296875 186.858398438 c 0,30,31
 667 300 667 300 732.548828125 489.086914062 c 0,32,33
 829 767 829 767 1006.546875 770.423828125 c 0,0,1
835.138671875 404.26953125 m 0,34,35
 806 263 806 263 1014.59375 268.086914062 c 0,36,37
 1099 270 1099 270 1200.13769531 294.112304688 c 1,38,39
 1186 408 1186 408 1144.58007812 488.140625 c 4,40,41
 1096 585 1096 585 1010.9140625 585.59375 c 0,42,43
 873 586 873 586 835.138671875 404.26953125 c 0,34,35
EndSplineSet
Substitution2: "'init' Initial Forms in Arabic lookup 13 subtable" uni066F.init
Substitution2: "'medi' Medial Forms in Arabic lookup 11 subtable" uni066F.medi
Substitution2: "'fina' Terminal Forms in Arabic lookup 9 subtable" uni066F.fina
EndChar

StartChar: uni0670
Encoding: 1648 1648 72
Width: 0
VWidth: 2655
GlyphClass: 4
Flags: W
AnchorPoint: "Anchor-10" 675.06 1564.84 mark 0
AnchorPoint: "Anchor-9" 675.06 1564.84 mark 0
AnchorPoint: "Anchor-1" 664.561 2214.49 basemark 0
AnchorPoint: "Anchor-1" 675.06 1564.84 mark 0
LayerCount: 2
Fore
SplineSet
655.760742188 1614.21386719 m 1,0,-1
 622.377929688 1929 l 6,1,2
 605 2091 605 2091 722.418945312 2159.80078125 c 5,3,-1
 722.418945312 1614.21386719 l 1,4,-1
 655.760742188 1614.21386719 l 1,0,-1
EndSplineSet
EndChar

StartChar: uni0674
Encoding: 1652 1652 73
Width: 690
VWidth: 2360
GlyphClass: 2
Flags: W
LayerCount: 2
Fore
SplineSet
232.438934885 1669.73930398 m 1,0,1
 142 1727 142 1727 142 1827.5 c 128,-1,2
 142 1928 142 1928 202.843261719 1984.97900391 c 0,3,4
 264 2042 264 2042 351.913085938 2042.06542969 c 4,5,6
 514 2042 514 2042 514.046875 1913 c 0,7,8
 514 1892 514 1892 459 1910.69522616 c 0,9,10
 407 1929 407 1929 367.609212832 1924.5121335 c 0,11,12
 260 1912 260 1912 252.63642297 1832.841186 c 0,13,14
 245 1753 245 1753 360.923692855 1717.87216059 c 0,15,16
 396 1707 396 1707 538.314453125 1740.05023572 c 1,17,-1
 534.41015625 1619.42871094 l 1,18,-1
 140.0234375 1530.88593699 l 1,19,-1
 140.0234375 1648.41323107 l 1,20,-1
 232.438934885 1669.73930398 l 1,0,1
EndSplineSet
EndChar

StartChar: uni06A1
Encoding: 1697 1697 77
Width: 1738
VWidth: 2491
GlyphClass: 2
Flags: W
AnchorPoint: "Anchor-10" 505.175 1372.5 basechar 0
AnchorPoint: "Anchor-7" 627.668 -205.226 basechar 0
LayerCount: 2
Fore
SplineSet
1627.99414062 384.403320312 m 0,0,1
 1615 223 1615 223 1560.17382812 129 c 0,2,3
 1460 -44 1460 -44 789 -43.47265625 c 0,4,5
 457 -43 457 -43 281.400390625 68.4404296875 c 0,6,7
 100 184 100 184 102.040039062 455.759765625 c 0,8,9
 103 587 103 587 140.919921875 671.759765625 c 0,10,11
 163 721 163 721 192.759765625 717.66015625 c 0,12,13
 223 714 223 714 207.145507812 643.064453125 c 0,14,15
 193 578 193 578 194.919921875 490.3203125 c 0,16,17
 203 149 203 149 801 150.458984375 c 0,18,19
 1333 152 1333 152 1467 235 c 0,20,21
 1509 261 1509 261 1514.99414062 397.403320312 c 1,22,23
 1404 366 1404 366 1315.99414062 366.403320312 c 0,24,25
 1138 367 1138 367 1065.99414062 467.403320312 c 0,26,27
 1024 525 1024 525 1023.99414062 603.403320312 c 0,28,29
 1024 665 1024 665 1049.99414062 739.403320312 c 0,30,31
 1149 1020 1149 1020 1328.99414062 1020.40332031 c 0,32,33
 1496 1020 1496 1020 1571.99414062 829.403320312 c 0,34,35
 1632 678 1632 678 1631.99414062 485.403320312 c 0,36,37
 1632 436 1632 436 1627.99414062 384.403320312 c 0,0,1
1154.99414062 654.403320312 m 0,38,39
 1153 644 1153 644 1153.19824219 634.016601562 c 0,40,41
 1153 596 1153 596 1181.99414062 575.790039062 c 0,42,43
 1222 548 1222 548 1314.99414062 548.403320312 c 0,44,45
 1407 548 1407 548 1517.99414062 574.403320312 c 1,46,47
 1508 653 1508 653 1465.99414062 734.403320312 c 0,48,49
 1412.24940827 836.424818564 1412.24940827 836.424818564 1327.99414062 836.403320312 c 0,50,51
 1185 836 1185 836 1154.99414062 654.403320312 c 0,38,39
EndSplineSet
Substitution2: "'init' Initial Forms in Arabic lookup 13 subtable" uni06A1.init
Substitution2: "'medi' Medial Forms in Arabic lookup 11 subtable" uni06A1.medi
Substitution2: "'fina' Terminal Forms in Arabic lookup 9 subtable" uni06A1.fina
EndChar

StartChar: uni06A9
Encoding: 1705 1705 78
Width: 1978
VWidth: 2471
GlyphClass: 2
Flags: W
AnchorPoint: "Anchor-10" 1254.27 1477.11 basechar 0
AnchorPoint: "Anchor-7" 827.068 -268.854 basechar 0
LayerCount: 2
Fore
SplineSet
1575.88183594 523.799804688 m 0,0,1
 1750.36645697 258.775863249 1750.36645697 258.775863249 1474.55761719 102.173828125 c 0,2,3
 1217 -44 1217 -44 789 -43.47265625 c 24,4,5
 457 -43 457 -43 281.400390625 68.4404296875 c 0,6,7
 100 184 100 184 102.040039062 455.759765625 c 0,8,9
 103 587 103 587 140.919921875 671.759765625 c 0,10,11
 163 721 163 721 192.759765625 717.66015625 c 0,12,13
 223 714 223 714 207.145507812 643.064453125 c 0,14,15
 193 578 193 578 194.919921875 490.3203125 c 0,16,17
 203 149 203 149 801 150.458984375 c 0,18,19
 1122 152 1122 152 1323.80078125 208.71875 c 0,20,21
 1524 266 1524 266 1510.36035156 340.740234375 c 0,22,23
 1504.73794567 373.785389757 1504.73794567 373.785389757 1456.08007812 441.719726562 c 0,24,25
 1135 883 1135 883 1108.11035156 983.353515625 c 0,26,27
 1062.62609953 1144.18694874 1062.62609953 1144.18694874 1239.65136719 1204.81738281 c 2,28,-1
 1934.14453125 1443.50585938 l 1,29,-1
 1934.14453125 1419.35644531 l 2,30,31
 1934.14453125 1250.51903315 1934.14453125 1250.51903315 1696.36035156 1178.71972656 c 2,32,-1
 1255.75976562 1045.6796875 l 1,33,34
 1279 974 1279 974 1575.88183594 523.799804688 c 0,0,1
EndSplineSet
Substitution2: "'init' Initial Forms in Arabic lookup 13 subtable" uniFB90
Substitution2: "'medi' Medial Forms in Arabic lookup 11 subtable" uniFB91
Substitution2: "'fina' Terminal Forms in Arabic lookup 9 subtable" uniFB8F
EndChar

StartChar: afii57514
Encoding: 1722 1722 80
Width: 1369
VWidth: 2501
GlyphClass: 2
Flags: W
AnchorPoint: "Anchor-10" 634.998 1076.75 basechar 0
AnchorPoint: "Anchor-7" 330.305 -818.087 basechar 0
LayerCount: 2
Fore
SplineSet
1261.28417969 252.587890625 m 0,0,1
 1292 46 1292 46 1252.25683594 -119.879882812 c 0,2,3
 1150 -539 1150 -539 664.930664062 -545.791015625 c 0,4,5
 342 -550 342 -550 187.1328125 -346.896484375 c 0,6,7
 56 -176 56 -176 114.48046875 114.48046875 c 0,8,9
 135 217 135 217 190.567382812 336.994140625 c 0,10,11
 219 399 219 399 255.419921875 388.259765625 c 0,12,13
 292 378 292 378 265.825195312 307.799804688 c 0,14,15
 180 72 180 72 235.631835938 -109.409179688 c 0,16,17
 313 -364 313 -364 665.360351562 -362.66796875 c 0,18,19
 1124 -361 1124 -361 1155.05664062 -15.0859375 c 0,20,21
 1164 88 1164 88 1102.65332031 237.984375 c 0,22,23
 991.165653018 512.591976592 991.165653018 512.591976592 1145.50878906 552.739257812 c 2,24,-1
 1180.71679688 561.897460938 l 1,25,26
 1245 355 1245 355 1261.28417969 252.587890625 c 0,0,1
EndSplineSet
Substitution2: "'init' Initial Forms in Arabic lookup 13 subtable" uni06BA.init
Substitution2: "'medi' Medial Forms in Arabic lookup 11 subtable" uni06BA.medi
Substitution2: "'fina' Terminal Forms in Arabic lookup 9 subtable" uniFB9F
EndChar

StartChar: uni06F4
Encoding: 1780 1780 87
Width: 1095
VWidth: 2451
GlyphClass: 2
Flags: W
LayerCount: 2
Fore
SplineSet
474.412109375 340 m 1052,0,-1
359.637695312 18.41796875 m 1,1,2
 347 652 347 652 127.987304688 1150.265625 c 4,3,4
 55 1316 55 1316 206.680664062 1382.84863281 c 5,5,6
 235.934589709 1314.49858765 235.934589709 1314.49858765 321.197265625 1096.49121094 c 6,7,-1
 344.02734375 1038.1171875 l 5,8,9
 451 1401 451 1401 733 1401.63085938 c 4,10,11
 862 1402 862 1402 933.041992188 1249 c 4,12,13
 952 1208 952 1208 907 1216.74609375 c 4,14,15
 821 1235 821 1235 775 1233.88867188 c 4,16,17
 638 1231 638 1231 567.745117188 1159.36035156 c 4,18,19
 452 1042 452 1042 500.8046875 962.600585938 c 4,20,21
 574 844 574 844 812.912109375 879.505859375 c 4,22,23
 823 881 823 881 919.416015625 912.934570312 c 4,24,25
 1029 949 1029 949 993 876 c 6,26,-1
 923 762 l 5,27,28
 838 714 838 714 739.25 713.502929688 c 4,29,30
 546 712 546 712 404.263671875 828.819335938 c 5,31,32
 476 516 476 516 474.412109375 340 c 4,33,34
 472 77 472 77 359.637695312 18.41796875 c 1,1,2
EndSplineSet
EndChar

StartChar: uni06F5
Encoding: 1781 1781 88
Width: 1232
VWidth: 2300
GlyphClass: 2
Flags: W
LayerCount: 2
Fore
SplineSet
658.831054688 401.984375 m 0,0,1
 725 187 725 187 876.66015625 186.83984375 c 0,2,3
 989 187 989 187 989.142578125 321 c 0,4,5
 988 597 988 597 581.952148438 1071.78808594 c 5,6,7
 241.038185417 502.393577262 241.038185417 502.393577262 256.594919724 317 c 0,8,9
 267 193 267 193 380.883789062 187.603515625 c 0,10,11
 514 182 514 182 570.719726562 398.840820312 c 0,12,13
 583 446 583 446 613.120117188 445.559570312 c 0,14,15
 645 446 645 446 658.831054688 401.984375 c 0,0,1
375.548828125 10.6806640625 m 0,16,17
 100 11 100 11 104.1796875 315 c 0,18,19
 109 640 109 640 470.079101562 1168.37207031 c 5,20,-1
 446.391601562 1188.93945312 l 6,21,22
 409 1221 409 1221 491.625 1395.72851562 c 5,23,24
 1131.97035716 776.994892265 1131.97035716 776.994892265 1127.33308056 329 c 0,25,26
 1124 7 1124 7 870.758789062 11.2236328125 c 0,27,28
 695 14 695 14 617.458007812 200.500976562 c 1,29,30
 547 11 547 11 375.548828125 10.6806640625 c 0,16,17
EndSplineSet
EndChar

StartChar: uni06F6
Encoding: 1782 1782 89
Width: 1039
VWidth: 2451
GlyphClass: 2
Flags: W
LayerCount: 2
Fore
SplineSet
78.6513671875 6.48046875 m 1,0,1
 211 413 211 413 447.69140625 695.907226562 c 1,2,3
 161 770 161 770 163.931640625 938.400390625 c 0,4,5
 166 1087 166 1087 243 1204 c 0,6,7
 363 1387 363 1387 571 1387.44921875 c 0,8,9
 767 1388 767 1388 828 1242.08007812 c 0,10,11
 862 1161 862 1161 796 1184.38769531 c 0,12,13
 716 1213 716 1213 624 1212.80273438 c 0,14,15
 459 1213 459 1213 375 1099 c 0,16,17
 316 1019 316 1019 315.418945312 964 c 0,18,19
 314 887 314 887 625.891601562 832.547851562 c 1,20,21
 755 882 755 882 873.481445312 916.459960938 c 0,22,23
 944 937 944 937 932.154296875 900.989257812 c 2,24,-1
 880 742 l 1,25,26
 622 672 622 672 446 436 c 4,27,28
 359 320 359 320 238 124 c 0,29,30
 165.297239142 6.48046875 165.297239142 6.48046875 102.484375 6.48046875 c 2,31,-1
 78.6513671875 6.48046875 l 1,0,1
EndSplineSet
EndChar

StartChar: uniFB8F
Encoding: 64399 64399 104
Width: 2016
VWidth: 2471
GlyphClass: 2
Flags: W
AnchorPoint: "Anchor-7" 827.068 -268.854 basechar 0
AnchorPoint: "Anchor-10" 1254.27 1477.11 basechar 0
LayerCount: 2
Fore
SplineSet
2004.59375 183 m 2,0,-1
 2041.02636719 183 l 5,1,2
 2041.02636719 0 l 5,3,-1
 1980.12011719 0 l 2,4,5
 1775 0 1775 0 1610.46679688 218.16015625 c 1,6,7
 1564 152 1564 152 1474.55761719 102.173828125 c 0,8,9
 1212 -44 1212 -44 789 -43.47265625 c 24,10,11
 457 -43 457 -43 281.400390625 68.4404296875 c 0,12,13
 100 184 100 184 102.040039062 455.759765625 c 0,14,15
 103 587 103 587 140.919921875 671.759765625 c 0,16,17
 163 721 163 721 192.759765625 717.66015625 c 0,18,19
 223 714 223 714 207.145507812 643.064453125 c 0,20,21
 193 578 193 578 194.919921875 490.3203125 c 0,22,23
 203 148 203 148 801 150.458984375 c 0,24,25
 1122 152 1122 152 1323.80078125 208.71875 c 0,26,27
 1524 266 1524 266 1507.17578125 341.020507812 c 0,28,29
 1498 383 1498 383 1456.08007812 441.719726562 c 0,30,31
 1133 894 1133 894 1108.11035156 983.353515625 c 0,32,33
 1062.97322518 1144.09535019 1062.97322518 1144.09535019 1239.65136719 1204.81738281 c 2,34,-1
 1934.14453125 1443.50585938 l 1,35,-1
 1934.14453125 1419.35644531 l 2,36,37
 1933.99969339 1250.64284209 1933.99969339 1250.64284209 1696.36035156 1178.71972656 c 2,38,-1
 1256.78613281 1045.6796875 l 1,39,40
 1307 914 1307 914 1707.31445312 336.665039062 c 0,41,42
 1814 183 1814 183 2004.59375 183 c 2,0,-1
EndSplineSet
EndChar

StartChar: uniFB9F
Encoding: 64415 64415 112
Width: 1441
VWidth: 2501
GlyphClass: 2
Flags: W
AnchorPoint: "Anchor-10" 364.705 813.531 basechar 0
AnchorPoint: "Anchor-7" 256.66 -803.562 basechar 0
LayerCount: 2
Fore
SplineSet
1425.09375 0 m 2,0,1
 1313 0 1313 0 1269.77050781 68.0400390625 c 1,2,3
 1272 -40 1272 -40 1252.25683594 -119.879882812 c 0,4,5
 1148 -544 1148 -544 661.930664062 -545.791015625 c 0,6,7
 343 -547 343 -547 187.1328125 -346.896484375 c 0,8,9
 56 -178 56 -178 114.48046875 114.48046875 c 0,10,11
 135 217 135 217 190.567382812 336.994140625 c 0,12,13
 219 399 219 399 255.419921875 388.259765625 c 0,14,15
 292 378 292 378 265.825195312 307.799804688 c 0,16,17
 179 75 179 75 235.631835938 -109.409179688 c 0,18,19
 313 -364 313 -364 665.360351562 -362.66796875 c 0,20,21
 1124 -361 1124 -361 1155.05664062 -15.0859375 c 0,22,23
 1164 84 1164 84 1092.65332031 257.984375 c 0,24,25
 988.98942972 512.025903813 988.98942972 512.025903813 1145.50878906 552.739257812 c 2,26,-1
 1180.71679688 561.897460938 l 1,27,28
 1216 386 1216 386 1248.03222656 291.599609375 c 0,29,30
 1284 183 1284 183 1429.56738281 183 c 2,31,-1
 1466 183 l 5,32,33
 1466 0 l 5,34,-1
 1425.09375 0 l 2,0,1
EndSplineSet
EndChar

StartChar: uniFBE8
Encoding: 64488 64488 115
Width: 634
VWidth: 2473
GlyphClass: 2
Flags: W
AnchorPoint: "Anchor-10" 242.869 1140.81 basechar 0
AnchorPoint: "Anchor-7" 248.422 -233.744 basechar 0
LayerCount: 2
Fore
SplineSet
118.879882812 183 m 2,0,1
 438 183 438 183 404.639648438 366.439453125 c 0,2,3
 401 386 401 386 385.83984375 427.120117188 c 0,4,5
 351 522 351 522 342.37890625 554.717773438 c 0,6,7
 298.970906152 711.104817103 298.970906152 711.104817103 443.6328125 780.275390625 c 2,8,-1
 460.216796875 788.205078125 l 1,9,10
 537 559 537 559 536.354492188 367 c 0,11,12
 536 213 536 213 452.73046875 117.666992188 c 0,13,14
 351 0 351 0 120.092773438 0 c 2,15,-1
 -24.947265625 0 l 5,16,17
 -24.947265625 183 l 5,18,-1
 118.879882812 183 l 2,0,1
EndSplineSet
EndChar

StartChar: uniFBE9
Encoding: 64489 64489 116
Width: 727
VWidth: 2477
GlyphClass: 2
Flags: W
AnchorPoint: "Anchor-10" 341.202 1085.49 basechar 0
AnchorPoint: "Anchor-7" 380.596 -156.627 basechar 0
LayerCount: 2
Fore
SplineSet
752 0 m 5,0,-1
 711.09375 0 l 2,1,2
 535 0 535 0 455.959960938 164.803710938 c 1,3,4
 344 0 344 0 70.0927734375 0 c 2,5,-1
 -24.947265625 0 l 1,6,7
 -24.947265625 183 l 1,8,-1
 68.8798828125 183 l 2,9,10
 225 183 225 183 302.600585938 213.803710938 c 0,11,12
 370.334114148 241.13481816 370.334114148 241.13481816 385.760742188 361.36328125 c 2,13,-1
 399.120117188 465.48046875 l 2,14,15
 412.029927165 563.226592362 412.029927165 563.226592362 523.28125 567.498046875 c 2,16,-1
 538.440429688 568.080078125 l 1,17,-1
 521.940429688 438.5390625 l 2,18,19
 489 183 489 183 715.567382812 183 c 2,20,-1
 752 183 l 5,21,-1
 752 0 l 5,0,-1
EndSplineSet
EndChar

StartChar: uniFE73
Encoding: 65139 65139 124
Width: 618
VWidth: 2360
GlyphClass: 2
Flags: W
AnchorPoint: "Anchor-10" 227.653 1373.86 basechar 0
AnchorPoint: "Anchor-7" 227.653 -128.42 basechar 0
LayerCount: 2
Fore
SplineSet
319.928710938 370.798828125 m 2,0,1
 319.928710938 301.426757812 319.928710938 301.426757812 380.665039062 240.689453125 c 0,2,3
 435.622070312 185.73046875 435.622070312 185.73046875 555.84375 185.73046875 c 2,4,-1
 628.473632812 185.73046875 l 5,5,-1
 628.473632812 1.1796875 l 1,6,-1
 492.28515625 1.1796875 l 2,7,8
 334.006835938 1.1796875 334.006835938 1.1796875 231.803710938 103.383789062 c 0,9,10
 135.377929688 199.80859375 135.377929688 199.80859375 135.377929688 356.931640625 c 2,11,-1
 135.377929688 392.583007812 l 1,12,-1
 319.928710938 392.583007812 l 1,13,-1
 319.928710938 370.798828125 l 2,0,1
EndSplineSet
EndChar

StartChar: uniFE8E
Encoding: 65166 65166 150
Width: 544
VWidth: 2448
GlyphClass: 2
Flags: W
AnchorPoint: "Anchor-10" 203.317 1557.96 basechar 0
AnchorPoint: "Anchor-7" 260.601 -284.03 basechar 0
LayerCount: 2
Fore
SplineSet
478.125976562 -0.1083984375 m 2,0,1
 198.217748238 -0.1083984375 198.217748238 -0.1083984375 180.142578125 382.80078125 c 2,2,-1
 149.038085938 1041.7265625 l 6,3,4
 135.010734799 1334.77573643 135.010734799 1334.77573643 286.94921875 1416.58398438 c 6,5,-1
 303.657226562 1425.58007812 l 5,6,7
 301 1294 301 1294 302.400390625 676.3203125 c 0,8,9
 303 278 303 278 346.872070312 217.046875 c 0,10,11
 372.080002301 182.891601562 372.080002301 182.891601562 522.599609375 182.891601562 c 2,12,-1
 569.032226562 182.891601562 l 1,13,14
 569.032226562 -0.1083984375 l 1,15,-1
 478.125976562 -0.1083984375 l 2,0,1
EndSplineSet
EndChar

StartChar: uniFEA2
Encoding: 65186 65186 170
Width: 1257
VWidth: 2474
GlyphClass: 2
Flags: W
AnchorPoint: "Anchor-7" 611.843 -857.215 basechar 0
AnchorPoint: "Anchor-10" 581.688 1232.94 basechar 0
LayerCount: 2
Fore
SplineSet
802 386.974609375 m 1,0,1
 203 222 203 222 206.396484375 -159.360351562 c 0,2,3
 209 -461 209 -461 707.346679688 -461.000976562 c 0,4,5
 917 -461 917 -461 1065 -425.177734375 c 0,6,7
 1103 -416 1103 -416 1081 -457.633789062 c 0,8,9
 980 -647 980 -647 670.318359375 -646.75 c 0,10,11
 101 -647 101 -647 101.49609375 -166.178710938 c 0,12,13
 102 389 102 389 808.16015625 560.397460938 c 1,14,15
 682 602 682 602 631.959960938 620.796875 c 0,16,17
 473 680 473 680 361.9765625 661.044921875 c 8,18,19
 241 640 241 640 160.959960938 543.133789062 c 0,20,21
 125 500 125 500 108.959960938 506.796875 c 0,22,23
 88 516 88 516 103.7421875 566.2578125 c 0,24,25
 187 830 187 830 401.919921875 842.396484375 c 24,26,27
 538 850 538 850 820.959960938 719.357421875 c 0,28,29
 923 672 923 672 1008.24023438 654.59765625 c 0,30,31
 1075 641 1075 641 1123.16992188 646.0625 c 1,32,-1
 1076 446 l 1,33,34
 985 431 985 431 903 412.267578125 c 1,35,36
 917 188 917 188 1245.56738281 188 c 2,37,-1
 1282 188 l 5,38,39
 1282 0 l 5,40,-1
 1241.09375 0 l 2,41,42
 820 0 820 0 802 386.974609375 c 1,0,1
EndSplineSet
EndChar

StartChar: uniFEA3
Encoding: 65187 65187 171
Width: 1349
VWidth: 2474
GlyphClass: 2
Flags: W
AnchorPoint: "Anchor-10" 544.819 1152.41 basechar 0
AnchorPoint: "Anchor-7" 493.893 -260.763 basechar 0
LayerCount: 2
Fore
SplineSet
1253.65625 529.91796875 m 1,0,-1
 1211.19042969 368.11328125 l 1,1,2
 1094 368 1094 368 955 312 c 0,3,4
 770 238 770 238 526.5 125 c 0,5,6
 257 0 257 0 50.0927734375 0 c 2,7,-1
 -24.947265625 0 l 5,8,9
 -24.947265625 183 l 5,10,-1
 58.8798828125 183 l 2,11,12
 276 183 276 183 586 309 c 0,13,14
 670 343 670 343 905.166015625 439.932617188 c 1,15,16
 844 472 844 472 690 540 c 0,17,18
 515 617 515 617 390.016601562 600.248046875 c 0,19,20
 273 585 273 585 189 482.336914062 c 0,21,22
 153 439 153 439 137 446 c 0,23,24
 116 455 116 455 131.782226562 505.4609375 c 0,25,26
 217 777 217 777 429.959960938 777.599609375 c 0,27,28
 572 778 572 778 811 662 c 0,29,30
 1070 536 1070 536 1120 530 c 128,-1,31
 1170 524 1170 524 1253.65625 529.91796875 c 1,0,-1
EndSplineSet
EndChar

StartChar: uniFEA4
Encoding: 65188 65188 172
Width: 1359
VWidth: 2474
GlyphClass: 2
Flags: W
AnchorPoint: "Anchor-7" 493.893 -260.763 basechar 0
AnchorPoint: "Anchor-10" 544.819 1152.41 basechar 0
LayerCount: 2
Fore
SplineSet
866 275.560546875 m 1,0,1
 716 213 716 213 526.5 125 c 0,2,3
 257 0 257 0 50.0927734375 0 c 2,4,-1
 -24.947265625 0 l 5,5,6
 -24.947265625 183 l 5,7,-1
 58.8798828125 183 l 2,8,9
 276 183 276 183 586 309 c 0,10,11
 670 343 670 343 905.166015625 439.932617188 c 1,12,13
 844 472 844 472 690 540 c 0,14,15
 515 617 515 617 390.016601562 600.248046875 c 0,16,17
 273 585 273 585 189 482.336914062 c 0,18,19
 153 439 153 439 137 446 c 0,20,21
 116 455 116 455 131.782226562 505.4609375 c 0,22,23
 217 777 217 777 429.959960938 777.599609375 c 0,24,25
 572 778 572 778 811 662 c 0,26,27
 1070 536 1070 536 1120 530 c 128,-1,28
 1170 524 1170 524 1253.65625 529.91796875 c 1,29,-1
 1211.19042969 368.11328125 l 1,30,31
 1097 368 1097 368 962 314.790039062 c 1,32,33
 974 183 974 183 1172.06640625 183 c 2,34,-1
 1384 183 l 1,35,-1
 1384 0 l 1,36,-1
 1169.41015625 0 l 2,37,38
 886 0 886 0 866 275.560546875 c 1,0,1
EndSplineSet
EndChar

StartChar: uniFEAA
Encoding: 65194 65194 178
Width: 1162
VWidth: 2467
GlyphClass: 2
Flags: W
AnchorPoint: "Anchor-10" 578.198 1228.83 basechar 0
AnchorPoint: "Anchor-7" 443.75 -278.564 basechar 0
LayerCount: 2
Fore
SplineSet
1150.56738281 183 m 6,0,1
 1187 183 l 5,2,3
 1187 0 l 5,4,-1
 1146.09375 0 l 6,5,6
 991 0 991 0 868.416992188 163.204101562 c 5,7,8
 703 -28 703 -28 415 -31.4970703125 c 4,9,10
 357 -32 357 -32 339.008789062 -31.1240234375 c 4,11,12
 95.466796875 -20.021484375 95.466796875 -20.021484375 95.466796875 191.30078125 c 6,13,-1
 95.466796875 221.221679688 l 5,14,15
 223 167 223 167 391.09765625 162.935546875 c 4,16,17
 551 159 551 159 686.639648438 219.240234375 c 4,18,19
 791.708984375 266.419921875 791.708984375 266.419921875 774.413085938 345.032226562 c 4,20,21
 771.840820312 355.65625 771.840820312 355.65625 763.140625 369.313476562 c 6,22,-1
 622.823242188 589.575195312 l 6,23,24
 457.037109375 849.94140625 457.037109375 849.94140625 606.795898438 929.463867188 c 6,25,-1
 628.403320312 940.9375 l 5,26,-1
 884.26171875 441.012695312 l 6,27,28
 1016 183 1016 183 1150.56738281 183 c 6,0,1
EndSplineSet
PairPos2: "'kern' Horizontal Kerning lookup 15-2" uniFB90 dx=-110 dy=0 dh=-110 dv=0 dx=0 dy=0 dh=0 dv=0
PairPos2: "'kern' Horizontal Kerning lookup 15-2" uni06A9 dx=-110 dy=0 dh=-110 dv=0 dx=0 dy=0 dh=0 dv=0
PairPos2: "'kern' Horizontal Kerning lookup 15-2" uniFB94 dx=-110 dy=0 dh=-110 dv=0 dx=0 dy=0 dh=0 dv=0
PairPos2: "'kern' Horizontal Kerning lookup 15-2" afii57509 dx=-110 dy=0 dh=-110 dv=0 dx=0 dy=0 dh=0 dv=0
EndChar

StartChar: uniFEAE
Encoding: 65198 65198 182
Width: 990
VWidth: 2499
GlyphClass: 2
Flags: W
AnchorPoint: "Anchor-10" 651.056 1007.93 basechar 0
AnchorPoint: "Anchor-7" 441.147 -657.422 basechar 0
LayerCount: 2
Fore
SplineSet
964.09375 0 m 2,0,1
 842 0 842 0 790 61 c 1,2,3
 756 -232 756 -232 567 -371 c 0,4,5
 461 -449 461 -449 375 -449 c 0,6,7
 238 -449 238 -449 73 -408.690429688 c 0,8,9
 14 -394 14 -394 8.65234375 -371 c 0,10,11
 3 -345 3 -345 89 -330.262695312 c 0,12,13
 705 -225 705 -225 671.178710938 131.9609375 c 0,14,15
 666 187 666 187 618.494140625 304.325195312 c 0,16,17
 554.199226715 464.503664779 554.199226715 464.503664779 669.220703125 552.122070312 c 2,18,-1
 709.796875 583.03125 l 1,19,20
 758 432 758 432 793.0703125 300.6015625 c 0,21,22
 824 183 824 183 968.567382812 183 c 2,23,-1
 1015 183 l 5,24,25
 1015 0 l 5,26,-1
 964.09375 0 l 2,0,1
EndSplineSet
PairPos2: "'kern' Horizontal Kerning lookup 15-1" uniFB7C dx=-150 dy=0 dh=-150 dv=0 dx=0 dy=0 dh=0 dv=0
PairPos2: "'kern' Horizontal Kerning lookup 15-1" uniFB90 dx=-350 dy=0 dh=-350 dv=0 dx=0 dy=0 dh=0 dv=0
PairPos2: "'kern' Horizontal Kerning lookup 15-1" uniFB8E dx=-350 dy=0 dh=-350 dv=0 dx=0 dy=0 dh=0 dv=0
PairPos2: "'kern' Horizontal Kerning lookup 15-1" uni06A9 dx=-350 dy=0 dh=-350 dv=0 dx=0 dy=0 dh=0 dv=0
PairPos2: "'kern' Horizontal Kerning lookup 15-1" uni064A dx=-100 dy=0 dh=-100 dv=0 dx=0 dy=0 dh=0 dv=0
PairPos2: "'kern' Horizontal Kerning lookup 15-1" afii57414 dx=-100 dy=0 dh=-100 dv=0 dx=0 dy=0 dh=0 dv=0
PairPos2: "'kern' Horizontal Kerning lookup 15-1" uni0649 dx=-100 dy=0 dh=-100 dv=0 dx=0 dy=0 dh=0 dv=0
PairPos2: "'kern' Horizontal Kerning lookup 15-1" uni0648 dx=-80 dy=0 dh=-80 dv=0 dx=0 dy=0 dh=0 dv=0
PairPos2: "'kern' Horizontal Kerning lookup 15-1" afii57412 dx=-80 dy=0 dh=-80 dv=0 dx=0 dy=0 dh=0 dv=0
PairPos2: "'kern' Horizontal Kerning lookup 15-1" uniFEEB dx=-250 dy=0 dh=-250 dv=0 dx=0 dy=0 dh=0 dv=0
PairPos2: "'kern' Horizontal Kerning lookup 15-1" uni0647 dx=-250 dy=0 dh=-250 dv=0 dx=0 dy=0 dh=0 dv=0
PairPos2: "'kern' Horizontal Kerning lookup 15-1" uniFEE7 dx=-250 dy=0 dh=-250 dv=0 dx=0 dy=0 dh=0 dv=0
PairPos2: "'kern' Horizontal Kerning lookup 15-1" uni0646 dx=-100 dy=0 dh=-100 dv=0 dx=0 dy=0 dh=0 dv=0
PairPos2: "'kern' Horizontal Kerning lookup 15-1" uniFEE3 dx=-250 dy=0 dh=-250 dv=0 dx=0 dy=0 dh=0 dv=0
PairPos2: "'kern' Horizontal Kerning lookup 15-1" uni0645 dx=-250 dy=0 dh=-250 dv=0 dx=0 dy=0 dh=0 dv=0
PairPos2: "'kern' Horizontal Kerning lookup 15-1" uniFEFB dx=-250 dy=0 dh=-250 dv=0 dx=0 dy=0 dh=0 dv=0
PairPos2: "'kern' Horizontal Kerning lookup 15-1" uniFEDF dx=-250 dy=0 dh=-250 dv=0 dx=0 dy=0 dh=0 dv=0
PairPos2: "'kern' Horizontal Kerning lookup 15-1" uni0644 dx=-80 dy=0 dh=-80 dv=0 dx=0 dy=0 dh=0 dv=0
PairPos2: "'kern' Horizontal Kerning lookup 15-1" uniFEDB dx=-350 dy=0 dh=-350 dv=0 dx=0 dy=0 dh=0 dv=0
PairPos2: "'kern' Horizontal Kerning lookup 15-1" uni0643 dx=-250 dy=0 dh=-250 dv=0 dx=0 dy=0 dh=0 dv=0
PairPos2: "'kern' Horizontal Kerning lookup 15-1" uniFED7 dx=-250 dy=0 dh=-250 dv=0 dx=0 dy=0 dh=0 dv=0
PairPos2: "'kern' Horizontal Kerning lookup 15-1" uni0642 dx=-100 dy=0 dh=-100 dv=0 dx=0 dy=0 dh=0 dv=0
PairPos2: "'kern' Horizontal Kerning lookup 15-1" uniFED3 dx=-250 dy=0 dh=-250 dv=0 dx=0 dy=0 dh=0 dv=0
PairPos2: "'kern' Horizontal Kerning lookup 15-1" uni0641 dx=-250 dy=0 dh=-250 dv=0 dx=0 dy=0 dh=0 dv=0
PairPos2: "'kern' Horizontal Kerning lookup 15-1" uniFECF dx=-250 dy=0 dh=-250 dv=0 dx=0 dy=0 dh=0 dv=0
PairPos2: "'kern' Horizontal Kerning lookup 15-1" uniFECB dx=-250 dy=0 dh=-250 dv=0 dx=0 dy=0 dh=0 dv=0
PairPos2: "'kern' Horizontal Kerning lookup 15-1" uniFEC7 dx=-250 dy=0 dh=-250 dv=0 dx=0 dy=0 dh=0 dv=0
PairPos2: "'kern' Horizontal Kerning lookup 15-1" uni0638 dx=-250 dy=0 dh=-250 dv=0 dx=0 dy=0 dh=0 dv=0
PairPos2: "'kern' Horizontal Kerning lookup 15-1" uniFEC3 dx=-250 dy=0 dh=-250 dv=0 dx=0 dy=0 dh=0 dv=0
PairPos2: "'kern' Horizontal Kerning lookup 15-1" uni0637 dx=-250 dy=0 dh=-250 dv=0 dx=0 dy=0 dh=0 dv=0
PairPos2: "'kern' Horizontal Kerning lookup 15-1" uniFEBF dx=-250 dy=0 dh=-250 dv=0 dx=0 dy=0 dh=0 dv=0
PairPos2: "'kern' Horizontal Kerning lookup 15-1" uni0636 dx=-250 dy=0 dh=-250 dv=0 dx=0 dy=0 dh=0 dv=0
PairPos2: "'kern' Horizontal Kerning lookup 15-1" uniFEBB dx=-250 dy=0 dh=-250 dv=0 dx=0 dy=0 dh=0 dv=0
PairPos2: "'kern' Horizontal Kerning lookup 15-1" uni0635 dx=-250 dy=0 dh=-250 dv=0 dx=0 dy=0 dh=0 dv=0
PairPos2: "'kern' Horizontal Kerning lookup 15-1" uniFEB7 dx=-250 dy=0 dh=-250 dv=0 dx=0 dy=0 dh=0 dv=0
PairPos2: "'kern' Horizontal Kerning lookup 15-1" uni0634 dx=-250 dy=0 dh=-250 dv=0 dx=0 dy=0 dh=0 dv=0
PairPos2: "'kern' Horizontal Kerning lookup 15-1" uniFEB3 dx=-250 dy=0 dh=-250 dv=0 dx=0 dy=0 dh=0 dv=0
PairPos2: "'kern' Horizontal Kerning lookup 15-1" uni0633 dx=-250 dy=0 dh=-250 dv=0 dx=0 dy=0 dh=0 dv=0
PairPos2: "'kern' Horizontal Kerning lookup 15-1" uni0632 dx=-80 dy=0 dh=-80 dv=0 dx=0 dy=0 dh=0 dv=0
PairPos2: "'kern' Horizontal Kerning lookup 15-1" uni0631 dx=-80 dy=0 dh=-80 dv=0 dx=0 dy=0 dh=0 dv=0
PairPos2: "'kern' Horizontal Kerning lookup 15-1" uni0630 dx=-250 dy=0 dh=-250 dv=0 dx=0 dy=0 dh=0 dv=0
PairPos2: "'kern' Horizontal Kerning lookup 15-1" uni062F dx=-250 dy=0 dh=-250 dv=0 dx=0 dy=0 dh=0 dv=0
PairPos2: "'kern' Horizontal Kerning lookup 15-1" uniFEA7 dx=-250 dy=0 dh=-250 dv=0 dx=0 dy=0 dh=0 dv=0
PairPos2: "'kern' Horizontal Kerning lookup 15-1" uniFEA3 dx=-250 dy=0 dh=-250 dv=0 dx=0 dy=0 dh=0 dv=0
PairPos2: "'kern' Horizontal Kerning lookup 15-1" uniFE9F dx=-250 dy=0 dh=-250 dv=0 dx=0 dy=0 dh=0 dv=0
PairPos2: "'kern' Horizontal Kerning lookup 15-1" uniFE9B dx=-250 dy=0 dh=-250 dv=0 dx=0 dy=0 dh=0 dv=0
PairPos2: "'kern' Horizontal Kerning lookup 15-1" uni062B dx=-250 dy=0 dh=-250 dv=0 dx=0 dy=0 dh=0 dv=0
PairPos2: "'kern' Horizontal Kerning lookup 15-1" uniFE97 dx=-250 dy=0 dh=-250 dv=0 dx=0 dy=0 dh=0 dv=0
PairPos2: "'kern' Horizontal Kerning lookup 15-1" uni062A dx=-250 dy=0 dh=-250 dv=0 dx=0 dy=0 dh=0 dv=0
PairPos2: "'kern' Horizontal Kerning lookup 15-1" uni0629 dx=-250 dy=0 dh=-250 dv=0 dx=0 dy=0 dh=0 dv=0
PairPos2: "'kern' Horizontal Kerning lookup 15-1" uniFE91 dx=-50 dy=0 dh=-50 dv=0 dx=0 dy=0 dh=0 dv=0
PairPos2: "'kern' Horizontal Kerning lookup 15-1" uni0628 dx=-250 dy=0 dh=-250 dv=0 dx=0 dy=0 dh=0 dv=0
PairPos2: "'kern' Horizontal Kerning lookup 15-1" uni0627 dx=-250 dy=0 dh=-250 dv=0 dx=0 dy=0 dh=0 dv=0
PairPos2: "'kern' Horizontal Kerning lookup 15-1" uni0623 dx=-250 dy=0 dh=-250 dv=0 dx=0 dy=0 dh=0 dv=0
PairPos2: "'kern' Horizontal Kerning lookup 15-1" uni0622 dx=-250 dy=0 dh=-250 dv=0 dx=0 dy=0 dh=0 dv=0
PairPos2: "'kern' Horizontal Kerning lookup 15-1" uni0621 dx=-250 dy=0 dh=-250 dv=0 dx=0 dy=0 dh=0 dv=0
PairPos2: "'kern' Horizontal Kerning lookup 15-1" uniFB94 dx=-350 dy=0 dh=-350 dv=0 dx=0 dy=0 dh=0 dv=0
PairPos2: "'kern' Horizontal Kerning lookup 15-1" uniFB92 dx=-350 dy=0 dh=-350 dv=0 dx=0 dy=0 dh=0 dv=0
PairPos2: "'kern' Horizontal Kerning lookup 15-1" afii57509 dx=-350 dy=0 dh=-350 dv=0 dx=0 dy=0 dh=0 dv=0
PairPos2: "'kern' Horizontal Kerning lookup 15-1" afii57508 dx=-80 dy=0 dh=-80 dv=0 dx=0 dy=0 dh=0 dv=0
PairPos2: "'kern' Horizontal Kerning lookup 15-1" afii57506 dx=-250 dy=0 dh=-250 dv=0 dx=0 dy=0 dh=0 dv=0
PairPos2: "'kern' Horizontal Kerning lookup 15-1" afii57440 dx=-250 dy=0 dh=-250 dv=0 dx=0 dy=0 dh=0 dv=0
PairPos2: "'kern' Horizontal Kerning lookup 15-1" uniFE8B dx=-250 dy=0 dh=-250 dv=0 dx=0 dy=0 dh=0 dv=0
EndChar

StartChar: uniFEB2
Encoding: 65202 65202 186
Width: 2412
VWidth: 2501
GlyphClass: 2
Flags: W
AnchorPoint: "Anchor-10" 1675.99 1018.06 basechar 0
AnchorPoint: "Anchor-7" 664.176 -751.198 basechar 0
LayerCount: 2
Fore
SplineSet
1431 183 m 24,0,1
 1559.98976115 182.000079371 1559.98976115 182.000079371 1595.12695312 330.99609375 c 2,2,-1
 1610.27050781 395.2109375 l 2,3,4
 1641.96827051 528.866210938 1641.96827051 528.866210938 1730.47167969 528.866210938 c 2,5,-1
 1743.60253906 528.866210938 l 1,6,-1
 1737.12011719 453.689453125 l 2,7,8
 1714 180 1714 180 1928.13769531 184.817382812 c 24,9,10
 2060.55648044 187.989375821 2060.55648044 187.989375821 2067.25390625 335.858398438 c 2,11,-1
 2069.70507812 389.9765625 l 2,12,13
 2078 572 2078 572 2182.93261719 572 c 2,14,-1
 2213.76660156 572 l 1,15,-1
 2205.66601562 372.297851562 l 2,16,17
 2197.99128648 184.787109375 2197.99128648 184.787109375 2401.06054688 184.787109375 c 2,18,-1
 2437.49316406 184.787109375 l 5,19,20
 2437.49316406 1.787109375 l 5,21,-1
 2396.58691406 1.787109375 l 2,22,23
 2206 2 2206 2 2151.48242188 180.521484375 c 1,24,25
 2077 6 2077 6 1904.58203125 2.14453125 c 8,26,27
 1721 -1 1721 -1 1656.90039062 185.731445312 c 1,28,29
 1593 2 1593 2 1431 -1.0439453125 c 24,30,31
 1315 -3 1315 -3 1269.77050781 68.0400390625 c 1,32,33
 1272 -40 1272 -40 1252.25683594 -119.879882812 c 0,34,35
 1148 -542 1148 -542 663.930664062 -545.791015625 c 0,36,37
 341 -548 341 -548 187.1328125 -346.896484375 c 0,38,39
 56 -175 56 -175 114.48046875 114.48046875 c 0,40,41
 135 217 135 217 190.567382812 336.995117188 c 0,42,43
 219 399 219 399 255.419921875 388.259765625 c 0,44,45
 292 378 292 378 265.825195312 307.799804688 c 0,46,47
 179 75 179 75 235.631835938 -109.409179688 c 0,48,49
 313 -364 313 -364 665.359375 -362.66796875 c 0,50,51
 1124 -361 1124 -361 1155.05664062 -15.0859375 c 0,52,53
 1164 84 1164 84 1092.65332031 257.984375 c 0,54,55
 988.98942972 512.025903813 988.98942972 512.025903813 1145.50878906 552.739257812 c 2,56,-1
 1180.71679688 561.897460938 l 1,57,58
 1212 403 1212 403 1248.03222656 291.599609375 c 0,59,60
 1283 184 1283 184 1431 183 c 24,0,1
EndSplineSet
EndChar

StartChar: uniFEB3
Encoding: 65203 65203 187
Width: 1443
VWidth: 2490
GlyphClass: 2
Flags: W
AnchorPoint: "Anchor-10" 802.558 1032.67 basechar 0
AnchorPoint: "Anchor-7" 765.093 -230.408 basechar 0
LayerCount: 2
Fore
SplineSet
1041.08886719 0.357421875 m 24,0,1
 975 -0 975 -0 937.421875 17.5615234375 c 0,2,3
 834 67 834 67 793.407226562 183.944335938 c 1,4,5
 730 0 730 0 547.458007812 -0.208984375 c 0,6,7
 375 -0 375 -0 306.887695312 177.46484375 c 1,8,9
 231 0 231 0 20.0927734375 0 c 2,10,-1
 -24.947265625 0 l 5,11,12
 -24.947265625 183 l 5,13,-1
 18.8798828125 183 l 2,14,15
 239.581309035 183 239.581309035 183 259.708984375 313.203125 c 2,16,-1
 271.579101562 389.989257812 l 2,17,18
 293.012367107 527.079101562 293.012367107 527.079101562 388.795898438 527.079101562 c 2,19,-1
 407.66015625 527.079101562 l 1,20,-1
 394.682617188 411.583007812 l 2,21,22
 369 186 369 186 551.119140625 183.462890625 c 0,23,24
 696.918219326 182.000820095 696.918219326 182.000820095 731.633789062 329.208984375 c 2,25,-1
 746.77734375 393.423828125 l 2,26,27
 778.018489532 527.079101562 778.018489532 527.079101562 866.978515625 527.079101562 c 2,28,-1
 880.109375 527.079101562 l 1,29,-1
 873.626953125 451.90234375 l 2,30,31
 850 182 850 182 1059.09277344 184.744140625 c 24,32,33
 1184 186 1184 186 1213.08007812 280.799804688 c 0,34,35
 1231 339 1231 339 1210.5625 388.254882812 c 0,36,37
 1165 496 1165 496 1159.19726562 515.302734375 c 0,38,39
 1116.13053265 669.532538838 1116.13053265 669.532538838 1265.296875 740.827148438 c 2,40,-1
 1281.88574219 748.755859375 l 1,41,42
 1342 573 1342 573 1350.68261719 416.634765625 c 0,43,44
 1362 228 1362 228 1264.82226562 114.775390625 c 0,45,46
 1167 2 1167 2 1041.08886719 0.357421875 c 24,0,1
EndSplineSet
EndChar

StartChar: uniFEB4
Encoding: 65204 65204 188
Width: 1549
VWidth: 2478
GlyphClass: 2
Flags: W
AnchorPoint: "Anchor-7" 759.093 -228.408 basechar 0
AnchorPoint: "Anchor-10" 802.558 1032.67 basechar 0
LayerCount: 2
Fore
SplineSet
1054.64453125 183.030273438 m 24,0,1
 1197.05420635 186.001130817 1197.05420635 186.001130817 1203.76074219 334.071289062 c 2,2,-1
 1206.21191406 388.189453125 l 2,3,4
 1214.00911944 570.212890625 1214.00911944 570.212890625 1319.43945312 570.212890625 c 2,5,-1
 1350.2734375 570.212890625 l 1,6,-1
 1342.17285156 370.510742188 l 2,7,8
 1335 183 1335 183 1537.56738281 183 c 2,9,-1
 1574 183 l 1,10,11
 1574 0 l 1,12,-1
 1533.09375 0 l 2,13,14
 1343 0 1343 0 1287.98925781 178.734375 c 1,15,16
 1214 4 1214 4 1051.08886719 0.357421875 c 8,17,18
 858 -3 858 -3 793.407226562 183.944335938 c 1,19,20
 730 0 730 0 547.458007812 -0.208984375 c 0,21,22
 375 0 375 0 306.887695312 177.46484375 c 1,23,24
 231 0 231 0 20.0927734375 0 c 2,25,-1
 -24.947265625 0 l 5,26,-1
 -24.947265625 183 l 5,27,-1
 18.8798828125 183 l 2,28,29
 239.581309035 183 239.581309035 183 259.708984375 313.203125 c 2,30,-1
 271.579101562 389.989257812 l 2,31,32
 293.012367107 527.079101562 293.012367107 527.079101562 388.795898438 527.079101562 c 2,33,-1
 407.66015625 527.079101562 l 1,34,-1
 394.682617188 411.583007812 l 2,35,36
 369 186 369 186 551.119140625 183.462890625 c 0,37,38
 696.918219326 182.000820095 696.918219326 182.000820095 731.633789062 329.208984375 c 2,39,-1
 746.77734375 393.423828125 l 2,40,41
 778.018489532 527.079101562 778.018489532 527.079101562 866.978515625 527.079101562 c 2,42,-1
 880.109375 527.079101562 l 1,43,-1
 873.626953125 451.90234375 l 2,44,45
 850 179 850 179 1054.64453125 183.030273438 c 24,0,1
EndSplineSet
EndChar

StartChar: uniFEBA
Encoding: 65210 65210 194
Width: 2522
VWidth: 2474
GlyphClass: 2
Flags: W
AnchorPoint: "Anchor-7" 664.176 -751.198 basechar 0
AnchorPoint: "Anchor-10" 1957.99 1060.06 basechar 0
LayerCount: 2
Fore
SplineSet
1527.60253906 183.426757812 m 1,0,-1
 1732.26464844 183.426757812 l 2,1,2
 2010.28027344 183 2010.28027344 183 2174.76074219 247.239257812 c 0,3,4
 2290.28027344 292 2290.28027344 292 2287.78027344 344.5 c 0,5,6
 2283.28027344 411 2283.28027344 411 2148.83984375 506.400390625 c 0,7,8
 2072.28027344 560 2072.28027344 560 2004.12011719 560.087890625 c 0,9,10
 1826.04492188 558.999023438 1826.04492188 558.999023438 1643.28027344 329 c 2,11,-1
 1527.60253906 183.426757812 l 1,0,-1
1401.35644531 185.829101562 m 1,12,13
 1506.24023438 349.200195312 l 2,14,15
 1764 750 1764 750 1995.48046875 748.165039062 c 0,16,17
 2139 747 2139 747 2268.72070312 626.6796875 c 0,18,19
 2388 515 2388 515 2392.03613281 385.240234375 c 0,20,21
 2395 265 2395 265 2322.02441406 183 c 1,22,-1
 2510.84765625 183 l 2,23,-1
 2547.28027344 183 l 5,24,25
 2547.28027344 0 l 5,26,-1
 2506.37402344 0 l 2,27,28
 2370 0 2370 0 2213.28027344 99 c 1,29,30
 2024.42962222 -1.77075347618 2024.42962222 -1.77075347618 1728.41503906 -0.767578125 c 2,31,-1
 1501.91992188 0 l 2,32,33
 1317 1 1317 1 1269.77050781 68.0400390625 c 1,34,35
 1272 -40 1272 -40 1252.25683594 -119.879882812 c 0,36,37
 1148 -541 1148 -541 669.930664062 -545.791015625 c 0,38,39
 341 -549 341 -549 187.1328125 -346.896484375 c 0,40,41
 56 -176 56 -176 114.48046875 114.48046875 c 0,42,43
 135 217 135 217 190.567382812 336.995117188 c 0,44,45
 219 399 219 399 255.419921875 388.259765625 c 0,46,47
 292 378 292 378 265.825195312 307.799804688 c 0,48,49
 179 75 179 75 235.631835938 -109.409179688 c 0,50,51
 313 -364 313 -364 665.359375 -362.66796875 c 0,52,53
 1124 -361 1124 -361 1155.05664062 -15.0859375 c 0,54,55
 1164 84 1164 84 1092.65332031 257.984375 c 0,56,57
 988.98942972 512.025903813 988.98942972 512.025903813 1145.50878906 552.739257812 c 2,58,-1
 1180.71679688 561.897460938 l 1,59,60
 1207 426 1207 426 1250.19238281 291.599609375 c 0,61,62
 1283 187 1283 187 1401.35644531 185.829101562 c 1,12,13
EndSplineSet
EndChar

StartChar: uniFEBB
Encoding: 65211 65211 195
Width: 1708
VWidth: 2474
GlyphClass: 2
Flags: W
AnchorPoint: "Anchor-10" 1122.36 1126.25 basechar 0
AnchorPoint: "Anchor-7" 714.591 -311.358 basechar 0
LayerCount: 2
Fore
SplineSet
736.322265625 183.426757812 m 1,0,-1
 940.984375 183.426757812 l 2,1,2
 1219 183 1219 183 1383.48046875 247.239257812 c 0,3,4
 1499 292 1499 292 1496.5 344.5 c 0,5,6
 1492 411 1492 411 1357.55957031 506.400390625 c 0,7,8
 1281 560 1281 560 1212.83984375 560.087890625 c 0,9,10
 1034.76513119 558.998563249 1034.76513119 558.998563249 852 329 c 2,11,-1
 736.322265625 183.426757812 l 1,0,-1
18.8798828125 183 m 2,12,13
 254.028215338 183 254.028215338 183 274.692382812 344.598632812 c 2,14,-1
 287.192382812 442.3515625 l 2,15,16
 302.968907831 562.762695312 302.968907831 562.762695312 421.200195312 562.762695312 c 2,17,-1
 431.221679688 562.762695312 l 1,18,-1
 414.912109375 416.799804688 l 2,19,20
 393 217 393 217 615.076171875 192.829101562 c 1,21,-1
 714.959960938 349.200195312 l 2,22,23
 971 750 971 750 1204.20019531 748.165039062 c 0,24,25
 1348 747 1348 747 1477.44042969 626.6796875 c 0,26,27
 1597 515 1597 515 1600.75585938 385.240234375 c 0,28,29
 1605.95580059 186.687692965 1605.95580059 186.687692965 1403.77050781 90.3388671875 c 0,30,31
 1211.63082592 -1.6978285158 1211.63082592 -1.6978285158 937.134765625 -0.767578125 c 2,32,-1
 710.639648438 0 l 2,33,34
 456 1 456 1 346.766601562 178.680664062 c 1,35,36
 215 0 215 0 20.0927734375 0 c 2,37,-1
 -24.947265625 0 l 5,38,39
 -24.947265625 183 l 5,40,-1
 18.8798828125 183 l 2,12,13
EndSplineSet
EndChar

StartChar: uniFEBC
Encoding: 65212 65212 196
Width: 1731
VWidth: 2474
GlyphClass: 2
Flags: W
AnchorPoint: "Anchor-10" 1128.23 1093.32 basechar 0
AnchorPoint: "Anchor-7" 706.685 -319.104 basechar 0
LayerCount: 2
Fore
SplineSet
736.322265625 183.426757812 m 1,0,-1
 940.984375 183.426757812 l 2,1,2
 1219 183 1219 183 1383.48046875 247.239257812 c 0,3,4
 1499 292 1499 292 1496.5 344.5 c 0,5,6
 1492 411 1492 411 1357.55957031 506.400390625 c 0,7,8
 1281 560 1281 560 1212.83984375 560.087890625 c 0,9,10
 1034.76513119 558.998563249 1034.76513119 558.998563249 852 329 c 2,11,-1
 736.322265625 183.426757812 l 1,0,-1
1422 99 m 1,12,13
 1233.42722388 -1.77169517785 1233.42722388 -1.77169517785 937.134765625 -0.767578125 c 2,14,-1
 710.639648438 0 l 2,15,16
 456 1 456 1 346.766601562 178.680664062 c 1,17,18
 215 0 215 0 20.0927734375 0 c 2,19,-1
 -24.947265625 0 l 1,20,21
 -24.947265625 183 l 1,22,-1
 18.8798828125 183 l 2,23,24
 254.028215338 183 254.028215338 183 274.692382812 344.598632812 c 2,25,-1
 287.192382812 442.3515625 l 2,26,27
 302.968907831 562.762695312 302.968907831 562.762695312 421.200195312 562.762695312 c 2,28,-1
 431.221679688 562.762695312 l 1,29,-1
 414.912109375 416.799804688 l 2,30,31
 393 217 393 217 615.076171875 192.829101562 c 1,32,-1
 714.959960938 349.200195312 l 2,33,34
 971 750 971 750 1204.20019531 748.165039062 c 0,35,36
 1348 747 1348 747 1477.44042969 626.6796875 c 0,37,38
 1597 515 1597 515 1600.75585938 385.240234375 c 0,39,40
 1604 265 1604 265 1530.74414062 183 c 1,41,-1
 1719.56738281 183 l 2,42,-1
 1756 183 l 5,43,44
 1756 0 l 5,45,-1
 1715.09375 0 l 2,46,47
 1579 0 1579 0 1422 99 c 1,12,13
EndSplineSet
EndChar

StartChar: uniFEC2
Encoding: 65218 65218 202
Width: 1445
VWidth: 2474
GlyphClass: 2
Flags: W
AnchorPoint: "Anchor-7" 640.88 -271.015 basechar 0
AnchorPoint: "Anchor-10" 373.774 1557.94 basechar 0
LayerCount: 2
Fore
SplineSet
926.83984375 560.087890625 m 0,0,1
 743.604513955 558.997646872 743.604513955 558.997646872 564 329 c 2,2,-1
 450.322265625 183.426757812 l 1,3,-1
 654.984375 183.426757812 l 2,4,5
 932 183 932 183 1097.48046875 247.239257812 c 0,6,7
 1214 292 1214 292 1210.5 344.5 c 0,8,9
 1206 411 1206 411 1071.55957031 506.400390625 c 0,10,11
 995 560 995 560 926.83984375 560.087890625 c 0,0,1
918.200195312 748.165039062 m 0,12,13
 1062 747 1062 747 1191.44042969 626.6796875 c 0,14,15
 1311 515 1311 515 1314.75585938 385.240234375 c 0,16,17
 1318 265 1318 265 1244.74414062 183 c 1,18,-1
 1433.56738281 183 l 2,19,-1
 1470 183 l 1,20,21
 1470 0 l 1,22,-1
 1429.09375 0 l 2,23,24
 1293 0 1293 0 1136 99 c 1,25,26
 947.427223875 -1.77169517785 947.427223875 -1.77169517785 651.134765625 -0.767578125 c 2,27,-1
 424.639648438 0 l 2,28,-1
 375.192382812 0.1533203125 l 2,29,30
 91 1 91 1 91.15234375 183.274414062 c 1,31,-1
 319 183 l 1,32,-1
 268.788085938 1037.68164062 l 6,33,34
 251.98840713 1326.19909579 251.98840713 1326.19909579 410.482421875 1412.90625 c 6,35,-1
 432.0390625 1424.69921875 l 5,36,-1
 431.959960938 353.200195312 l 1,37,38
 693 750 693 750 918.200195312 748.165039062 c 0,12,13
EndSplineSet
EndChar

StartChar: uniFEC3
Encoding: 65219 65219 203
Width: 1299
VWidth: 2474
GlyphClass: 2
Flags: W
AnchorPoint: "Anchor-10" 264.798 1564.96 basechar 0
AnchorPoint: "Anchor-7" 521.478 -320.118 basechar 0
LayerCount: 2
Fore
SplineSet
330.322265625 183.426757812 m 1,0,-1
 534.984375 183.426757812 l 2,1,2
 814 183 814 183 977.48046875 247.239257812 c 0,3,4
 1093 292 1093 292 1090.58789062 340 c 0,5,6
 1086 412 1086 412 951.559570312 507.400390625 c 0,7,8
 875 561 875 561 806.83984375 561.087890625 c 0,9,10
 626.973954654 559.999842446 626.973954654 559.999842446 445 329 c 2,11,-1
 330.322265625 183.426757812 l 1,0,-1
-24.947265625 183 m 1,12,-1
 199 183 l 1,13,-1
 148.788085938 1037.68164062 l 6,14,15
 131.98840713 1326.19909579 131.98840713 1326.19909579 290.482421875 1412.90625 c 6,16,-1
 312.0390625 1424.69921875 l 5,17,-1
 311.959960938 352.200195312 l 1,18,19
 574 750 574 750 798.200195312 748.165039062 c 0,20,21
 942 747 942 747 1071.44042969 626.6796875 c 0,22,23
 1192 514 1192 514 1194.75585938 385.240234375 c 0,24,25
 1198.9662269 192.545682842 1198.9662269 192.545682842 997.770507812 90.3388671875 c 0,26,27
 817.512726672 -1.73809555209 817.512726672 -1.73809555209 531.134765625 -0.767578125 c 2,28,-1
 304.639648438 0 l 2,29,-1
 -24.947265625 0 l 17,30,31
 -24.947265625 183 l 1,12,-1
EndSplineSet
EndChar

StartChar: uniFEC4
Encoding: 65220 65220 204
Width: 1325
VWidth: 2474
GlyphClass: 2
Flags: W
AnchorPoint: "Anchor-10" 245.935 1555.49 basechar 0
AnchorPoint: "Anchor-7" 514.011 -288.065 basechar 0
LayerCount: 2
Fore
SplineSet
330.322265625 183.426757812 m 1,0,-1
 534.984375 183.426757812 l 2,1,2
 814 183 814 183 977.48046875 247.239257812 c 0,3,4
 1093 292 1093 292 1090.58789062 340 c 0,5,6
 1086 412 1086 412 951.559570312 507.400390625 c 0,7,8
 875 561 875 561 806.83984375 561.087890625 c 0,9,10
 626.973632812 560 626.973632812 560 445 329 c 2,11,-1
 330.322265625 183.426757812 l 1,0,-1
1194.75585938 385.240234375 m 0,12,13
 1197 264 1197 264 1124.74414062 183 c 1,14,-1
 1313.56738281 183 l 2,15,-1
 1350 183 l 1,16,17
 1350 0 l 1,18,-1
 1309.09375 0 l 2,19,20
 1173 0 1173 0 1016 99 c 1,21,22
 827.427223875 -1.77169517785 827.427223875 -1.77169517785 531.134765625 -0.767578125 c 2,23,-1
 304.639648438 0 l 2,24,-1
 -24.947265625 0 l 17,25,-1
 -24.947265625 183 l 1,26,-1
 199 183 l 1,27,-1
 148.788085938 1037.68164062 l 6,28,29
 131.98840713 1326.19909579 131.98840713 1326.19909579 290.482421875 1412.90625 c 6,30,-1
 312.0390625 1424.69921875 l 5,31,-1
 311.959960938 352.200195312 l 1,32,33
 574 750 574 750 798.200195312 748.165039062 c 0,34,35
 942 747 942 747 1071.44042969 626.6796875 c 0,36,37
 1192 514 1192 514 1194.75585938 385.240234375 c 0,12,13
EndSplineSet
EndChar

StartChar: uniFECA
Encoding: 65226 65226 210
Width: 1209
VWidth: 2472
GlyphClass: 2
Flags: W
AnchorPoint: "Anchor-10" 669.277 1221.39 basechar 0
AnchorPoint: "Anchor-7" 611.334 -830.048 basechar 0
LayerCount: 2
Fore
SplineSet
101.49609375 -166.178710938 m 0,0,1
 100 239 100 239 476 419.657226562 c 1,2,3
 378 508 378 508 279.48046875 596.739257812 c 1,4,5
 299 690 299 690 309 735.5390625 c 5,6,7
 463 896 463 896 742.48046875 896.739257812 c 4,8,9
 917 897 917 897 1031.48046875 817.739257812 c 4,10,11
 1110 763 1110 763 1106.59179688 688.049804688 c 0,12,13
 1097 502 1097 502 741.48046875 357.739257812 c 1,14,15
 928 183 928 183 1197.56738281 183 c 2,16,-1
 1234 183 l 1,17,-1
 1234 0 l 1,18,-1
 1193.09375 0 l 2,19,20
 886 0 886 0 607 283 c 1,21,22
 203 140 203 140 206.396484375 -159.360351562 c 0,23,24
 209 -461 209 -461 707.346679688 -461.000976562 c 0,25,26
 917 -461 917 -461 1065 -425.177734375 c 0,27,28
 1103 -416 1103 -416 1081 -457.633789062 c 0,29,30
 980 -647 980 -647 670.318359375 -646.75 c 0,31,32
 103 -647 103 -647 101.49609375 -166.178710938 c 0,0,1
660.48046875 740.739257812 m 0,33,34
 527 726 527 726 441 644.5390625 c 1,35,-1
 633.227539062 474.362304688 l 1,36,37
 802 541 802 541 882.466796875 588.44140625 c 0,38,39
 977 644 977 644 958.603515625 675.452148438 c 0,40,41
 920 743 920 743 728 744.638671875 c 0,42,43
 695 745 695 745 660.48046875 740.739257812 c 0,33,34
EndSplineSet
EndChar

StartChar: uniFECB
Encoding: 65227 65227 211
Width: 1040
VWidth: 2469
GlyphClass: 2
Flags: W
AnchorPoint: "Anchor-10" 491.774 1246.36 basechar 0
AnchorPoint: "Anchor-7" 463.778 -275.026 basechar 0
LayerCount: 2
Fore
SplineSet
70.0927734375 0 m 2,0,1
 -24.947265625 0 l 5,2,3
 -24.947265625 183 l 5,4,-1
 88.8798828125 183 l 2,5,-1
 295.309570312 188.481445312 l 1,6,7
 167 310 167 310 161.169921875 447.265625 c 0,8,9
 156 594 156 594 237.989257812 696.365234375 c 0,10,11
 361 851 361 851 540.850585938 850.759765625 c 0,12,13
 693 851 693 851 779.190429688 750.306640625 c 0,14,15
 810 714 810 714 824.3359375 664.645507812 c 0,16,17
 848 583 848 583 794.309570312 619.784179688 c 0,18,19
 715 673 715 673 585.229492188 672.4453125 c 0,20,21
 460 672 460 672 374.909179688 597.10546875 c 0,22,23
 298 529 298 529 305.5 440 c 0,24,25
 312 358 312 358 385.547851562 292 c 0,26,27
 403 276 403 276 424 260.037109375 c 0,28,29
 468 225 468 225 526 237.990234375 c 0,30,31
 589 252 589 252 642 263.51171875 c 0,32,33
 847 308 847 308 884.309570312 314.21484375 c 0,34,35
 946.463099963 323.916196925 946.463099963 323.916196925 934.309570312 285.645507812 c 2,36,-1
 887.309570312 137.645507812 l 1,37,38
 704 100 704 100 440 42 c 0,39,40
 248 0 248 0 70.0927734375 0 c 2,0,1
EndSplineSet
EndChar

StartChar: uniFECC
Encoding: 65228 65228 212
Width: 1125
VWidth: 2472
GlyphClass: 2
Flags: W
AnchorPoint: "Anchor-10" 573.108 1140.24 basechar 0
AnchorPoint: "Anchor-7" 572.321 -253.778 basechar 0
LayerCount: 2
Fore
SplineSet
1049.09375 0 m 2,0,1
 819 0 819 0 596.934570312 166.5390625 c 1,2,3
 404 0 404 0 30.0927734375 0 c 2,4,-1
 -24.947265625 0 l 1,5,6
 -24.947265625 183 l 1,7,-1
 28.8798828125 183 l 2,8,9
 327 183 327 183 464 254 c 1,10,-1
 180 460 l 1,11,-1
 205 616.569335938 l 5,12,13
 370 790 370 790 636 789 c 4,14,15
 799 789 799 789 925 704 c 4,16,17
 1014 644 1014 644 1000.11132812 555.310546875 c 0,18,19
 983 446 983 446 700 259 c 1,20,21
 845 183 845 183 1053.56738281 183 c 2,22,-1
 1150 183 l 1,23,-1
 1150 0 l 1,24,-1
 1049.09375 0 l 2,0,1
334 528 m 1,25,-1
 590.747070312 345.623046875 l 1,26,27
 638 370 638 370 775.986328125 475.702148438 c 0,28,29
 869 546 869 546 852.123046875 562.712890625 c 0,30,31
 783 633 783 633 617 631.982421875 c 4,32,33
 454 631 454 631 334 528 c 1,25,-1
EndSplineSet
EndChar

StartChar: uniFEDA
Encoding: 65242 65242 226
Width: 1879
VWidth: 2448
GlyphClass: 2
Flags: W
AnchorPoint: "Anchor-7" 813.141 -273.584 basechar 0
AnchorPoint: "Anchor-10" 854.321 1367.31 basechar 0
LayerCount: 2
Fore
SplineSet
801 150.458984375 m 0,0,1
 1121 152 1121 152 1323.80078125 208.71875 c 0,2,3
 1520.86973683 263.963483066 1520.86973683 263.963483066 1513 424 c 2,4,-1
 1480.24316406 1090.1328125 l 6,5,6
 1467.99660667 1345.07063931 1467.99660667 1345.07063931 1621.0546875 1420.26660156 c 6,7,-1
 1638.37792969 1428.77734375 l 5,8,-1
 1638.37792969 464.50390625 l 0,9,10
 1638 362 1638 362 1612.8125 284 c 1,11,-1
 1614.61621094 281.571289062 l 2,12,13
 1688 183 1688 183 1867.56738281 183 c 2,14,-1
 1904 183 l 1,15,16
 1904 0 l 1,17,-1
 1863.09375 0 l 2,18,19
 1673 0 1673 0 1540 154 c 1,20,21
 1518 130 1518 130 1474.55761719 102.173828125 c 0,22,23
 1246 -44 1246 -44 789 -43.47265625 c 24,24,25
 457 -43 457 -43 281.400390625 68.4404296875 c 0,26,27
 100 185 100 185 102.040039062 455.759765625 c 0,28,29
 103 587 103 587 140.919921875 671.759765625 c 0,30,31
 163 721 163 721 192.759765625 717.66015625 c 0,32,33
 223 714 223 714 207.145507812 643.064453125 c 0,34,35
 193 578 193 578 194.919921875 490.3203125 c 0,36,37
 203 148 203 148 801 150.458984375 c 0,0,1
1091.28222656 1204.37402344 m 5,38,-1
 1091.28222656 1095.19238281 l 5,39,-1
 1068.25878906 1093.36621094 l 6,40,41
 899 1080 899 1080 860.751953125 1014.53222656 c 4,42,43
 815 937 815 937 942.327148438 919.318359375 c 4,44,45
 1031 907 1031 907 1066.50878906 874.374023438 c 4,46,47
 1102 842 1102 842 1101.8984375 785.338867188 c 4,48,49
 1102 659 1102 659 986.887695312 595.719726562 c 4,50,51
 897 546 897 546 787.87890625 547 c 4,52,53
 716.912056058 547 716.912056058 547 655.01953125 557.404296875 c 6,54,-1
 634.1640625 560.91015625 l 5,55,-1
 634.1640625 677.391601562 l 5,56,-1
 662.350585938 673.76953125 l 6,57,58
 896 644 896 644 970.518554688 720.833984375 c 4,59,60
 1013 764 1013 764 970.513671875 799.369140625 c 4,61,62
 950 816 950 816 887.591796875 825.303710938 c 4,63,64
 825 835 825 835 783.362304688 877.231445312 c 4,65,66
 742 920 742 920 743.181640625 996.034179688 c 4,67,68
 745 1097 745 1097 840.803710938 1146.05078125 c 4,69,70
 934.018071845 1194.48973981 934.018071845 1194.48973981 1064.71289062 1202.70410156 c 6,71,-1
 1091.28222656 1204.37402344 l 5,38,-1
EndSplineSet
EndChar

StartChar: uniFEDB
Encoding: 65243 65243 227
Width: 978
VWidth: 2449
GlyphClass: 2
Flags: W
AnchorPoint: "Anchor-10" 292.371 1414.19 basechar 0
AnchorPoint: "Anchor-7" 374.999 -310.351 basechar 0
LayerCount: 2
Fore
SplineSet
70.0927734375 0 m 6,0,1
 -24.947265625 0 l 5,2,3
 -24.947265625 183 l 5,4,-1
 68.8798828125 183 l 6,5,6
 311 183 311 183 442.040039062 253.799804688 c 4,7,8
 514 293 514 293 506.149414062 341.020507812 c 4,9,10
 499 381 499 381 456.080078125 441.719726562 c 4,11,12
 134 886 134 886 108.110351562 983.353515625 c 4,13,14
 65.0508327761 1144.80939753 65.0508327761 1144.80939753 239.651367188 1204.81738281 c 6,15,-1
 934.14453125 1443.50585938 l 5,16,-1
 934.14453125 1419.35644531 l 6,17,18
 933.999549516 1250.47525569 933.999549516 1250.47525569 696.360351562 1178.71972656 c 6,19,-1
 255.759765625 1045.6796875 l 5,20,21
 281 972 281 972 619.16015625 451.440429688 c 4,22,23
 663 384 663 384 651.7890625 294.610351562 c 4,24,25
 644 234 644 234 600.491210938 178.015625 c 20,26,27
 461 0 461 0 70.0927734375 0 c 6,0,1
EndSplineSet
EndChar

StartChar: uniFEDC
Encoding: 65244 65244 228
Width: 1015
VWidth: 2449
GlyphClass: 2
Flags: W
AnchorPoint: "Anchor-10" 318.625 1402.83 basechar 0
AnchorPoint: "Anchor-7" 329.765 -299.492 basechar 0
LayerCount: 2
Fore
SplineSet
255.759765625 1045.6796875 m 1,0,1
 306 914 306 914 706.288085938 336.665039062 c 0,2,3
 813 183 813 183 1003.56738281 183 c 2,4,-1
 1040 183 l 1,5,6
 1040 0 l 1,7,-1
 979.09375 0 l 2,8,9
 774 0 774 0 609.440429688 218.16015625 c 1,10,11
 496 0 496 0 70.0927734375 0 c 2,12,-1
 -24.947265625 0 l 5,13,-1
 -24.947265625 183 l 5,14,-1
 68.8798828125 183 l 2,15,16
 315 183 315 183 442.040039062 253.799804688 c 0,17,18
 513 294 513 294 506.149414062 341.020507812 c 0,19,20
 500 378 500 378 455.559570312 441.080078125 c 0,21,22
 135 883 135 883 108.040039062 982.240234375 c 0,23,24
 65.0504385655 1144.80926204 65.0504385655 1144.80926204 239.651367188 1204.81738281 c 2,25,-1
 934.14453125 1443.50585938 l 1,26,-1
 934.14453125 1419.35644531 l 2,27,28
 933.999549516 1250.47525569 933.999549516 1250.47525569 696.360351562 1178.71972656 c 2,29,-1
 255.759765625 1045.6796875 l 1,0,1
EndSplineSet
EndChar

StartChar: uniFEDE
Encoding: 65246 65246 230
Width: 1414
VWidth: 2461
GlyphClass: 2
Flags: W
AnchorPoint: "Anchor-7" 624.402 -751.555 basechar 0
AnchorPoint: "Anchor-10" 620.118 1012.71 basechar 0
LayerCount: 2
Fore
SplineSet
1382.56738281 183 m 6,0,-1
 1439 183 l 5,1,-1
 1439 0 l 5,2,-1
 1378.09375 0 l 6,3,4
 1267 0 1267 0 1176.4921875 91.4970703125 c 5,5,6
 1176 50 1176 50 1174.25195312 13.7373046875 c 4,7,8
 1148 -522 1148 -522 636.391601562 -522.719726562 c 0,9,10
 309 -523 309 -523 167.788085938 -336.904296875 c 0,11,12
 89 -234 89 -234 91.2353515625 -63 c 0,13,14
 93 124 93 124 173.83984375 315.360351562 c 0,15,16
 216 416 216 416 254.83984375 408.100585938 c 0,17,18
 287 402 287 402 263.896484375 336.959960938 c 0,19,20
 159 41 159 41 247.143554688 -133.298828125 c 0,21,22
 350 -337 350 -337 641.08984375 -337.14453125 c 0,23,24
 1061.07822692 -338.002201879 1061.07822692 -338.002201879 1076.1875 3.4453125 c 28,25,26
 1078.99721778 66.9371295979 1078.99721778 66.9371295979 1071.06738281 189.528320312 c 6,27,-1
 1018.85449219 996.712890625 l 6,28,29
 997.032796501 1330.49834353 997.032796501 1330.49834353 1147.01953125 1408.63574219 c 6,30,-1
 1176.41601562 1423.95019531 l 5,31,-1
 1176.41601562 509.20703125 l 6,32,33
 1176 183 1176 183 1382.56738281 183 c 6,0,-1
EndSplineSet
EndChar

StartChar: uniFEDF
Encoding: 65247 65247 231
Width: 525
VWidth: 2448
GlyphClass: 2
Flags: W
AnchorPoint: "Anchor-10" 307.844 1542.41 basechar 0
AnchorPoint: "Anchor-7" 199.143 -270.325 basechar 0
LayerCount: 2
Fore
SplineSet
120.092773438 0 m 2,0,1
 -24.947265625 0 l 1,2,3
 -24.947265625 183 l 1,4,-1
 18.8798828125 183 l 2,5,6
 211 183 211 183 251.813476562 239.8671875 c 0,7,8
 281.331880663 281.467722204 281.331880663 281.467722204 264.171875 514.48046875 c 2,9,-1
 225.345703125 1041.69433594 l 6,10,11
 204.002521797 1335.96523051 204.002521797 1335.96523051 368.177734375 1418.21386719 c 6,12,-1
 385.103515625 1426.69335938 l 5,13,-1
 385.103515625 359.78125 l 2,14,15
 385 0 385 0 120.092773438 0 c 2,0,1
EndSplineSet
EndChar

StartChar: uniFEE0
Encoding: 65248 65248 232
Width: 633
VWidth: 2448
GlyphClass: 2
Flags: W
AnchorPoint: "Anchor-10" 330.005 1539.39 basechar 0
AnchorPoint: "Anchor-7" 259.081 -327.53 basechar 0
LayerCount: 2
Fore
SplineSet
571.567382812 183 m 2,0,-1
 658 183 l 1,1,2
 658 0 l 1,3,-1
 597.09375 0 l 2,4,5
 434 0 434 0 334.248046875 142.651367188 c 1,6,7
 209 0 209 0 50.0927734375 0 c 2,8,-1
 -24.947265625 0 l 1,9,-1
 -24.947265625 183 l 1,10,-1
 78.8798828125 183 l 2,11,12
 298.159953247 183 298.159953247 183 283 399 c 2,13,-1
 238.08203125 1038.99414062 l 6,14,15
 216.986908769 1332.18194676 216.986908769 1332.18194676 373.561523438 1412.85839844 c 6,16,-1
 398.10546875 1425.50488281 l 5,17,-1
 398.10546875 408.166992188 l 2,18,19
 398 183 398 183 571.567382812 183 c 2,0,-1
EndSplineSet
EndChar

StartChar: uniFEE2
Encoding: 65250 65250 234
Width: 1176
VWidth: 2498
GlyphClass: 2
Flags: W
AnchorPoint: "Anchor-10" 621.958 1026.14 basechar 0
AnchorPoint: "Anchor-7" 690.103 -462.682 basechar 0
LayerCount: 2
Fore
SplineSet
1164.56738281 183 m 2,0,-1
 1201 183 l 5,1,2
 1201 0 l 5,3,-1
 1160.09375 0 l 2,4,5
 1096 0 1096 0 1009 71 c 1,6,7
 935 -183 935 -183 745 -181.741210938 c 0,8,9
 400 -179 400 -179 443.198242188 362.432617188 c 1,10,11
 205.911903963 340.992039871 205.911903963 340.992039871 235.69921875 -30.26171875 c 2,12,-1
 263.018554688 -370.755859375 l 2,13,14
 279.984594903 -584.805643642 279.984594903 -584.805643642 129.137695312 -660.311523438 c 2,15,-1
 98.7568359375 -675.518554688 l 1,16,-1
 101.997070312 37.7578125 l 2,17,18
 104 502 104 502 499.23046875 508.219726562 c 1,19,20
 530 586 530 586 577.490234375 642.073242188 c 1,21,22
 699 542 699 542 1026 242 c 0,23,24
 1090 183 1090 183 1164.56738281 183 c 2,0,-1
589.275390625 432.396484375 m 1,25,26
 543 204 543 204 603 73 c 0,27,28
 644 -16 644 -16 757.346679688 -14.751953125 c 0,29,30
 865 -14 865 -14 891 98 c 0,31,32
 900.512288676 141.333759522 900.512288676 141.333759522 727 309 c 0,33,34
 697 338 697 338 589.275390625 432.396484375 c 1,25,26
EndSplineSet
EndChar

StartChar: uniFEE3
Encoding: 65251 65251 235
Width: 973
VWidth: 2477
GlyphClass: 2
Flags: W
AnchorPoint: "Anchor-10" 538.35 1056.82 basechar 0
AnchorPoint: "Anchor-7" 497.138 -262.05 basechar 0
LayerCount: 2
Fore
SplineSet
10.0927734375 0 m 2,0,1
 -24.947265625 0 l 5,2,3
 -24.947265625 183 l 5,4,-1
 8.8798828125 183 l 2,5,6
 131 183 131 183 243.099609375 377.296875 c 0,7,8
 421 686 421 686 572 685 c 0,9,10
 774 683 774 683 842.400390625 419.3203125 c 0,11,12
 905 178 905 178 776 52 c 0,13,14
 714 -9 714 -9 626 -11.994140625 c 0,15,16
 546 -15 546 -15 453 20 c 0,17,18
 334 66 334 66 245.16015625 137.16015625 c 1,19,20
 154 0 154 0 10.0927734375 0 c 2,0,1
496 202.959960938 m 0,21,22
 634 140 634 140 703.524414062 185.990234375 c 0,23,24
 759 222 759 222 724.959960938 341.559570312 c 0,25,26
 674 523 674 523 556 518.634765625 c 0,27,28
 507 517 507 517 454.400390625 454.400390625 c 0,29,30
 402 391 402 391 340.19921875 290.6796875 c 1,31,32
 415 240 415 240 496 202.959960938 c 0,21,22
EndSplineSet
EndChar

StartChar: uniFEE4
Encoding: 65252 65252 236
Width: 1083
VWidth: 2477
GlyphClass: 2
Flags: W
AnchorPoint: "Anchor-7" 497.138 -262.05 basechar 0
AnchorPoint: "Anchor-10" 538.35 1056.82 basechar 0
LayerCount: 2
Fore
SplineSet
496 172.959960938 m 0,0,1
 634 110 634 110 703.524414062 155.990234375 c 0,2,3
 759 192 759 192 724.959960938 311.559570312 c 0,4,5
 674 493 674 493 556 488.634765625 c 0,6,7
 507 487 507 487 454.400390625 424.400390625 c 0,8,9
 402 361 402 361 340.19921875 260.6796875 c 1,10,11
 415 210 415 210 496 172.959960938 c 0,0,1
245.16015625 107.16015625 m 1,12,13
 126 0 126 0 10.0927734375 0 c 2,14,-1
 -24.947265625 0 l 5,15,16
 -24.947265625 183 l 5,17,-1
 8.8798828125 183 l 2,18,19
 148 183 148 183 243.099609375 347.296875 c 0,20,21
 421 656 421 656 572 655 c 0,22,23
 768 653 768 653 842.400390625 389.3203125 c 0,24,25
 847 373 847 373 849.76953125 358 c 8,26,27
 882 183 882 183 1071.56738281 183 c 2,28,-1
 1108 183 l 1,29,30
 1108 0 l 1,31,-1
 1067.09375 0 l 2,32,33
 903 0 903 0 836.815429688 104 c 1,34,35
 814 59 814 59 776 22 c 0,36,37
 714 -39 714 -39 626 -41.994140625 c 0,38,39
 546 -45 546 -45 453 -10 c 0,40,41
 337 34 337 34 245.16015625 107.16015625 c 1,12,13
EndSplineSet
EndChar

StartChar: uniFEEA
Encoding: 65258 65258 242
Width: 1055
VWidth: 2465
GlyphClass: 2
Flags: W
AnchorPoint: "Anchor-7" 549.771 -246.746 basechar 0
AnchorPoint: "Anchor-10" 659.893 1250.8 basechar 0
LayerCount: 2
Fore
SplineSet
1043.56738281 183 m 2,0,1
 1080 183 l 5,2,3
 1080 0 l 5,4,-1
 1039.09375 0 l 2,5,6
 778 0 778 0 700.787109375 207.73046875 c 1,7,8
 419 151 419 151 239.860351562 239.33203125 c 0,9,10
 106 305 106 305 104.216796875 449.260742188 c 0,11,12
 100 697 100 697 609.970703125 796.536132812 c 1,13,14
 603 853 603 853 601.95703125 865.731445312 c 0,15,16
 596.029093989 949.588434531 596.029093989 949.588434531 701.751953125 978.340820312 c 2,17,-1
 721.07421875 983.595703125 l 1,18,-1
 798.158203125 411.33984375 l 2,19,20
 829 183 829 183 1043.56738281 183 c 2,0,1
676.508789062 372.196289062 m 1,21,-1
 630.755859375 644.092773438 l 1,22,23
 220 558 220 558 239.462890625 453.104492188 c 0,24,25
 247.218747818 408.929827307 247.218747818 408.929827307 326.416992188 377.244140625 c 0,26,27
 462 323 462 323 676.508789062 372.196289062 c 1,21,-1
EndSplineSet
EndChar

StartChar: uniFEEB
Encoding: 65259 65259 243
Width: 1213
VWidth: 2469
GlyphClass: 2
Flags: W
AnchorPoint: "Anchor-10" 553.718 1278.26 basechar 0
AnchorPoint: "Anchor-7" 453.937 -291.033 basechar 0
LayerCount: 2
Fore
SplineSet
-24.947265625 183 m 1,0,1
 263.719726562 183.040039062 l 1,2,3
 163 276 163 276 166 421.569335938 c 0,4,5
 171 667 171 667 447.233398438 774.1328125 c 1,6,7
 437 778 437 778 427.12890625 782.493164062 c 0,8,9
 369.86559224 812.069421034 369.86559224 812.069421034 413.176757812 936.217773438 c 2,10,-1
 419.186523438 953.444335938 l 1,11,-1
 741.142578125 756.556640625 l 2,12,13
 1114 529 1114 529 1112.609375 304 c 0,14,15
 1112 206 1112 206 1065.48925781 126 c 0,16,17
 1004 20 1004 20 856 0 c 0,18,19
 688 -23 688 -23 414.465820312 79.2060546875 c 1,20,21
 268 0 268 0 87.0009765625 0 c 6,22,-1
 -24.947265625 0 l 1,23,24
 -24.947265625 183 l 1,0,1
766.838867188 552.302734375 m 1,25,26
 758 352 758 352 587.75 203.987304688 c 1,27,28
 746 154 746 154 833 154.296875 c 0,29,30
 993 155 993 155 993.634765625 284 c 0,31,32
 994 412 994 412 766.838867188 552.302734375 c 1,25,26
615.919921875 424.440429688 m 0,33,34
 701 570 701 570 598.6171875 635.520507812 c 0,35,36
 559 661 559 661 512 661 c 0,37,38
 413 661 413 661 350.240234375 584.280273438 c 0,39,40
 293 515 293 515 291 439 c 0,41,42
 288 345 288 345 446 256 c 1,43,44
 571 347 571 347 615.919921875 424.440429688 c 0,33,34
EndSplineSet
EndChar

StartChar: uniFEEC
Encoding: 65260 65260 244
Width: 947
VWidth: 2489
GlyphClass: 2
Flags: W
AnchorPoint: "Anchor-7" 420.605 -776.244 basechar 0
AnchorPoint: "Anchor-10" 424.739 1208.91 basechar 0
LayerCount: 2
Fore
SplineSet
-24.947265625 183 m 2,0,-1
 220.303710938 183.376953125 l 1,1,2
 252 585 252 585 400.157226562 832 c 0,3,4
 433 887 433 887 483.00390625 848 c 0,5,6
 723 661 723 661 721 358 c 0,7,8
 720 189 720 189 616 96 c 0,9,10
 508 0 508 0 336.806640625 -0.1376953125 c 1,11,12
 400 -192 400 -192 526 -284 c 1,13,14
 635 183 635 183 935.567382812 183 c 2,15,-1
 972 183 l 5,16,-1
 972 0 l 5,17,-1
 931.09375 0 l 2,18,19
 551 0 551 0 705 -428 c 1,20,-1
 596.760742188 -546.600585938 l 1,21,22
 309 -330 309 -330 222.40625 -0.1376953125 c 1,23,-1
 -24.947265625 0 l 2,24,25
 -24.947265625 183 l 2,0,-1
329.758789062 183.21875 m 1,26,-1
 375.571289062 183.623046875 l 2,27,28
 477 185 477 185 529 218 c 0,29,30
 602 266 602 266 601.180664062 360 c 0,31,32
 599 515 599 515 464 638 c 1,33,34
 365 472 365 472 329.758789062 183.21875 c 1,26,-1
EndSplineSet
EndChar

StartChar: uniFEEE
Encoding: 65262 65262 246
Width: 925
VWidth: 2491
GlyphClass: 2
Flags: W
AnchorPoint: "Anchor-10" 519.056 1063.93 basechar 0
AnchorPoint: "Anchor-7" 441.147 -657.422 basechar 0
LayerCount: 2
Fore
SplineSet
521.481445312 683.17578125 m 0,0,1
 664 682 664 682 744.120117188 517.3203125 c 0,2,3
 811 379 811 379 817.626953125 183 c 9,4,-1
 950 183 l 5,5,6
 950 0 l 5,7,-1
 813.959960938 0 l 17,8,9
 772 -243 772 -243 598 -371 c 24,10,11
 492 -449 492 -449 406 -449 c 0,12,13
 269 -449 269 -449 104 -408.690429688 c 0,14,15
 45 -394 45 -394 39.65234375 -371 c 0,16,17
 34 -345 34 -345 120 -330.262695312 c 0,18,19
 541 -258 541 -258 657 -75.505859375 c 0,20,21
 680 -39 680 -39 692.854492188 1 c 1,22,23
 606 -4 606 -4 526.349609375 -4.7265625 c 0,24,25
 334 -6 334 -6 261.284179688 79.7919921875 c 24,26,27
 207 144 207 144 207.618164062 243 c 0,28,29
 208 372 208 372 282 514 c 0,30,31
 372 685 372 685 521.481445312 683.17578125 c 0,0,1
495.267578125 508.27734375 m 0,32,33
 384 499 384 499 344.9375 309.765625 c 0,34,35
 317 172 317 172 522.51953125 177.217773438 c 0,36,37
 609 179 609 179 694.819335938 181.125976562 c 1,38,39
 681 326 681 326 636.850585938 415.609375 c 0,40,41
 587 516 587 516 495.267578125 508.27734375 c 0,32,33
EndSplineSet
PairPos2: "'kern' Horizontal Kerning lookup 15-1" uniFB90 dx=-150 dy=0 dh=-150 dv=0 dx=0 dy=0 dh=0 dv=0
PairPos2: "'kern' Horizontal Kerning lookup 15-1" uniFB8E dx=-150 dy=0 dh=-150 dv=0 dx=0 dy=0 dh=0 dv=0
PairPos2: "'kern' Horizontal Kerning lookup 15-1" uni06A9 dx=-150 dy=0 dh=-150 dv=0 dx=0 dy=0 dh=0 dv=0
PairPos2: "'kern' Horizontal Kerning lookup 15-1" uni064A dx=-50 dy=0 dh=-50 dv=0 dx=0 dy=0 dh=0 dv=0
PairPos2: "'kern' Horizontal Kerning lookup 15-1" afii57414 dx=-50 dy=0 dh=-50 dv=0 dx=0 dy=0 dh=0 dv=0
PairPos2: "'kern' Horizontal Kerning lookup 15-1" uni0649 dx=-50 dy=0 dh=-50 dv=0 dx=0 dy=0 dh=0 dv=0
PairPos2: "'kern' Horizontal Kerning lookup 15-1" uni0648 dx=-50 dy=0 dh=-50 dv=0 dx=0 dy=0 dh=0 dv=0
PairPos2: "'kern' Horizontal Kerning lookup 15-1" afii57412 dx=-50 dy=0 dh=-50 dv=0 dx=0 dy=0 dh=0 dv=0
PairPos2: "'kern' Horizontal Kerning lookup 15-1" uniFEEB dx=-50 dy=0 dh=-50 dv=0 dx=0 dy=0 dh=0 dv=0
PairPos2: "'kern' Horizontal Kerning lookup 15-1" uni0647 dx=-50 dy=0 dh=-50 dv=0 dx=0 dy=0 dh=0 dv=0
PairPos2: "'kern' Horizontal Kerning lookup 15-1" uniFEE7 dx=-50 dy=0 dh=-50 dv=0 dx=0 dy=0 dh=0 dv=0
PairPos2: "'kern' Horizontal Kerning lookup 15-1" uni0646 dx=-50 dy=0 dh=-50 dv=0 dx=0 dy=0 dh=0 dv=0
PairPos2: "'kern' Horizontal Kerning lookup 15-1" uniFEE3 dx=-50 dy=0 dh=-50 dv=0 dx=0 dy=0 dh=0 dv=0
PairPos2: "'kern' Horizontal Kerning lookup 15-1" uni0645 dx=-50 dy=0 dh=-50 dv=0 dx=0 dy=0 dh=0 dv=0
PairPos2: "'kern' Horizontal Kerning lookup 15-1" uniFEFB dx=-50 dy=0 dh=-50 dv=0 dx=0 dy=0 dh=0 dv=0
PairPos2: "'kern' Horizontal Kerning lookup 15-1" uniFEDF dx=-50 dy=0 dh=-50 dv=0 dx=0 dy=0 dh=0 dv=0
PairPos2: "'kern' Horizontal Kerning lookup 15-1" uni0644 dx=-50 dy=0 dh=-50 dv=0 dx=0 dy=0 dh=0 dv=0
PairPos2: "'kern' Horizontal Kerning lookup 15-1" uniFEDB dx=-150 dy=0 dh=-150 dv=0 dx=0 dy=0 dh=0 dv=0
PairPos2: "'kern' Horizontal Kerning lookup 15-1" uni0643 dx=-50 dy=0 dh=-50 dv=0 dx=0 dy=0 dh=0 dv=0
PairPos2: "'kern' Horizontal Kerning lookup 15-1" uniFED7 dx=-50 dy=0 dh=-50 dv=0 dx=0 dy=0 dh=0 dv=0
PairPos2: "'kern' Horizontal Kerning lookup 15-1" uni0642 dx=-50 dy=0 dh=-50 dv=0 dx=0 dy=0 dh=0 dv=0
PairPos2: "'kern' Horizontal Kerning lookup 15-1" uniFED3 dx=-50 dy=0 dh=-50 dv=0 dx=0 dy=0 dh=0 dv=0
PairPos2: "'kern' Horizontal Kerning lookup 15-1" uni0641 dx=-50 dy=0 dh=-50 dv=0 dx=0 dy=0 dh=0 dv=0
PairPos2: "'kern' Horizontal Kerning lookup 15-1" uniFECF dx=-50 dy=0 dh=-50 dv=0 dx=0 dy=0 dh=0 dv=0
PairPos2: "'kern' Horizontal Kerning lookup 15-1" uniFECB dx=-50 dy=0 dh=-50 dv=0 dx=0 dy=0 dh=0 dv=0
PairPos2: "'kern' Horizontal Kerning lookup 15-1" uniFEC7 dx=-50 dy=0 dh=-50 dv=0 dx=0 dy=0 dh=0 dv=0
PairPos2: "'kern' Horizontal Kerning lookup 15-1" uni0638 dx=-50 dy=0 dh=-50 dv=0 dx=0 dy=0 dh=0 dv=0
PairPos2: "'kern' Horizontal Kerning lookup 15-1" uniFEC3 dx=-50 dy=0 dh=-50 dv=0 dx=0 dy=0 dh=0 dv=0
PairPos2: "'kern' Horizontal Kerning lookup 15-1" uni0637 dx=-50 dy=0 dh=-50 dv=0 dx=0 dy=0 dh=0 dv=0
PairPos2: "'kern' Horizontal Kerning lookup 15-1" uniFEBF dx=-50 dy=0 dh=-50 dv=0 dx=0 dy=0 dh=0 dv=0
PairPos2: "'kern' Horizontal Kerning lookup 15-1" uni0636 dx=-50 dy=0 dh=-50 dv=0 dx=0 dy=0 dh=0 dv=0
PairPos2: "'kern' Horizontal Kerning lookup 15-1" uniFEBB dx=-50 dy=0 dh=-50 dv=0 dx=0 dy=0 dh=0 dv=0
PairPos2: "'kern' Horizontal Kerning lookup 15-1" uni0635 dx=-50 dy=0 dh=-50 dv=0 dx=0 dy=0 dh=0 dv=0
PairPos2: "'kern' Horizontal Kerning lookup 15-1" uniFEB7 dx=-50 dy=0 dh=-50 dv=0 dx=0 dy=0 dh=0 dv=0
PairPos2: "'kern' Horizontal Kerning lookup 15-1" uni0634 dx=-50 dy=0 dh=-50 dv=0 dx=0 dy=0 dh=0 dv=0
PairPos2: "'kern' Horizontal Kerning lookup 15-1" uniFEB3 dx=-50 dy=0 dh=-50 dv=0 dx=0 dy=0 dh=0 dv=0
PairPos2: "'kern' Horizontal Kerning lookup 15-1" uni0633 dx=-50 dy=0 dh=-50 dv=0 dx=0 dy=0 dh=0 dv=0
PairPos2: "'kern' Horizontal Kerning lookup 15-1" uni0632 dx=-50 dy=0 dh=-50 dv=0 dx=0 dy=0 dh=0 dv=0
PairPos2: "'kern' Horizontal Kerning lookup 15-1" uni0631 dx=-50 dy=0 dh=-50 dv=0 dx=0 dy=0 dh=0 dv=0
PairPos2: "'kern' Horizontal Kerning lookup 15-1" uni0630 dx=-50 dy=0 dh=-50 dv=0 dx=0 dy=0 dh=0 dv=0
PairPos2: "'kern' Horizontal Kerning lookup 15-1" uni062F dx=-50 dy=0 dh=-50 dv=0 dx=0 dy=0 dh=0 dv=0
PairPos2: "'kern' Horizontal Kerning lookup 15-1" uniFEA7 dx=-50 dy=0 dh=-50 dv=0 dx=0 dy=0 dh=0 dv=0
PairPos2: "'kern' Horizontal Kerning lookup 15-1" uniFEA3 dx=-50 dy=0 dh=-50 dv=0 dx=0 dy=0 dh=0 dv=0
PairPos2: "'kern' Horizontal Kerning lookup 15-1" uniFE9F dx=-50 dy=0 dh=-50 dv=0 dx=0 dy=0 dh=0 dv=0
PairPos2: "'kern' Horizontal Kerning lookup 15-1" uniFE9B dx=-50 dy=0 dh=-50 dv=0 dx=0 dy=0 dh=0 dv=0
PairPos2: "'kern' Horizontal Kerning lookup 15-1" uni062B dx=-50 dy=0 dh=-50 dv=0 dx=0 dy=0 dh=0 dv=0
PairPos2: "'kern' Horizontal Kerning lookup 15-1" uniFE97 dx=-50 dy=0 dh=-50 dv=0 dx=0 dy=0 dh=0 dv=0
PairPos2: "'kern' Horizontal Kerning lookup 15-1" uni062A dx=-50 dy=0 dh=-50 dv=0 dx=0 dy=0 dh=0 dv=0
PairPos2: "'kern' Horizontal Kerning lookup 15-1" uni0629 dx=-50 dy=0 dh=-50 dv=0 dx=0 dy=0 dh=0 dv=0
PairPos2: "'kern' Horizontal Kerning lookup 15-1" uniFE91 dx=-50 dy=0 dh=-50 dv=0 dx=0 dy=0 dh=0 dv=0
PairPos2: "'kern' Horizontal Kerning lookup 15-1" uni0628 dx=-50 dy=0 dh=-50 dv=0 dx=0 dy=0 dh=0 dv=0
PairPos2: "'kern' Horizontal Kerning lookup 15-1" uni0627 dx=-50 dy=0 dh=-50 dv=0 dx=0 dy=0 dh=0 dv=0
PairPos2: "'kern' Horizontal Kerning lookup 15-1" uni0623 dx=-50 dy=0 dh=-50 dv=0 dx=0 dy=0 dh=0 dv=0
PairPos2: "'kern' Horizontal Kerning lookup 15-1" uni0622 dx=-100 dy=0 dh=-100 dv=0 dx=0 dy=0 dh=0 dv=0
PairPos2: "'kern' Horizontal Kerning lookup 15-1" uni0621 dx=-50 dy=0 dh=-50 dv=0 dx=0 dy=0 dh=0 dv=0
PairPos2: "'kern' Horizontal Kerning lookup 15-1" uniFB94 dx=-150 dy=0 dh=-150 dv=0 dx=0 dy=0 dh=0 dv=0
PairPos2: "'kern' Horizontal Kerning lookup 15-1" uniFB92 dx=-150 dy=0 dh=-150 dv=0 dx=0 dy=0 dh=0 dv=0
PairPos2: "'kern' Horizontal Kerning lookup 15-1" afii57509 dx=-150 dy=0 dh=-150 dv=0 dx=0 dy=0 dh=0 dv=0
PairPos2: "'kern' Horizontal Kerning lookup 15-1" afii57508 dx=-50 dy=0 dh=-50 dv=0 dx=0 dy=0 dh=0 dv=0
PairPos2: "'kern' Horizontal Kerning lookup 15-1" uniFB7C dx=-50 dy=0 dh=-50 dv=0 dx=0 dy=0 dh=0 dv=0
PairPos2: "'kern' Horizontal Kerning lookup 15-1" afii57506 dx=-50 dy=0 dh=-50 dv=0 dx=0 dy=0 dh=0 dv=0
PairPos2: "'kern' Horizontal Kerning lookup 15-1" uniFE8B dx=-50 dy=0 dh=-50 dv=0 dx=0 dy=0 dh=0 dv=0
EndChar

StartChar: uniFEF0
Encoding: 65264 65264 248
Width: 1477
VWidth: 2506
GlyphClass: 2
Flags: W
AnchorPoint: "Anchor-10" 717.247 570.899 basechar 0
AnchorPoint: "Anchor-7" 660.112 -798.444 basechar 0
LayerCount: 2
Fore
SplineSet
1502 0 m 5,0,1
 1156.03808594 0.3466796875 l 2,2,3
 1035 0 1035 0 1033.61230469 -52.11328125 c 0,4,5
 1033 -71 1033 -71 1048 -75 c 0,6,7
 1073 -82 1073 -82 1173 -83 c 0,8,9
 1260 -84 1260 -84 1302 -105 c 0,10,11
 1373 -141 1373 -141 1370.828125 -237 c 0,12,13
 1365 -434 1365 -434 1073 -537.158203125 c 0,14,15
 909 -595 909 -595 711.930664062 -597.85546875 c 0,16,17
 179 -604 179 -604 105.83984375 -242.400390625 c 0,18,19
 81 -121 81 -121 102.599609375 20.0400390625 c 0,20,21
 121 138 121 138 180.360351562 253.3203125 c 0,22,23
 254 396 254 396 298.360351562 386.44921875 c 0,24,25
 333 379 333 379 310.736328125 329.025390625 c 0,26,27
 276 252 276 252 258.229492188 193.973632812 c 0,28,29
 233 111 233 111 223.3359375 16.8525390625 c 0,30,31
 205 -160 205 -160 299.7890625 -279.928710938 c 0,32,33
 407 -416 407 -416 738.87890625 -414.8125 c 0,34,35
 985 -414 985 -414 1137 -347 c 0,36,37
 1271 -288 1271 -288 1249 -245 c 0,38,39
 1245 -237 1245 -237 1228.16015625 -237.032226562 c 0,40,41
 1147 -236 1147 -236 1065 -231 c 0,42,43
 895 -220 895 -220 894.748046875 -66.9853515625 c 0,44,45
 895 183 895 183 1241.48242188 183 c 2,46,-1
 1502 183 l 5,47,48
 1502 0 l 5,0,1
EndSplineSet
EndChar

StartChar: uniFEFB
Encoding: 65275 65275 259
Width: 1132
VWidth: 2448
GlyphClass: 3
Flags: W
AnchorPoint: "Anchor-9" 925.839 1539.37 baselig 0
AnchorPoint: "Anchor-6" 887.088 -231.465 baselig 0
AnchorPoint: "Anchor-6" 232.132 -262.106 baselig 1
AnchorPoint: "Anchor-9" 166.478 1479.76 baselig 1
LayerCount: 2
Fore
SplineSet
637.896484375 215.865234375 m 1,0,1
 744 232 744 232 812.309570312 316.375976562 c 0,2,3
 883.244485036 404.303050393 883.244485036 404.303050393 871.131835938 554.440429688 c 2,4,-1
 832.305664062 1035.69433594 l 6,5,6
 808.997493763 1325.03111125 808.997493763 1325.03111125 975.137695312 1417.29394531 c 6,7,-1
 992.063476562 1426.69335938 l 5,8,-1
 992.063476562 539.741210938 l 2,9,10
 992 328 992 328 886.830078125 190.015625 c 0,11,12
 741.892071163 -0.1416015625 741.892071163 -0.1416015625 429.4765625 -0.1416015625 c 2,13,-1
 310.478515625 -0.1416015625 l 2,14,15
 106.247132911 -0.000171139772476 106.247132911 -0.000171139772476 107.266601562 153.360351562 c 2,16,-1
 107.438476562 179.215820312 l 1,17,18
 450 156 450 156 545.918945312 185.759765625 c 1,19,20
 485 449 485 449 170.41796875 917.103515625 c 4,21,22
 -13.0294719836 1189.0436889 -13.0294719836 1189.0436889 130.360351562 1300.82714844 c 6,23,-1
 149.353515625 1315.63378906 l 5,24,25
 572 631 572 631 637.896484375 215.865234375 c 1,0,1
EndSplineSet
LCarets2: 1 0
Ligature2: "'rlig' Required Ligatures in Arabic lookup 16 subtable" uniFEDF uniFE8E
EndChar

StartChar: uniFEFC
Encoding: 65276 65276 260
Width: 1330
VWidth: 2448
GlyphClass: 3
Flags: W
AnchorPoint: "Anchor-9" 966.526 1491.34 baselig 0
AnchorPoint: "Anchor-6" 951.471 -252.037 baselig 0
AnchorPoint: "Anchor-6" 256.133 -280.884 baselig 1
AnchorPoint: "Anchor-9" 139.173 1471.51 baselig 1
LayerCount: 2
Fore
SplineSet
1304.09375 0 m 2,0,1
 1027 0 1027 0 949.020507812 397.043945312 c 1,2,3
 914 284 914 284 820.80078125 180.802734375 c 0,4,5
 654 -2 654 -2 338.375 -0.634765625 c 0,6,7
 102.255078344 0.998235882355 102.255078344 0.998235882355 105.143554688 158.36328125 c 2,8,-1
 105.540039062 179.963867188 l 1,9,10
 441 160 441 160 557.220703125 208.696289062 c 1,11,12
 496 474 496 474 181.719726562 940.040039062 c 4,13,14
 -1.89731490189 1211.84799545 -1.89731490189 1211.84799545 141.662109375 1323.76367188 c 6,15,-1
 160.655273438 1338.5703125 l 5,16,17
 582 658 582 658 647.038085938 252.840820312 c 1,18,19
 824 338 824 338 887.544921875 557.442382812 c 1,20,21
 930.223984503 726.889276285 930.223984503 726.889276285 909.446289062 884.2578125 c 6,22,-1
 882.197265625 1090.63964844 l 6,23,24
 849.988323427 1336.08898172 849.988323427 1336.08898172 1022.94238281 1413.2578125 c 6,25,-1
 1048.30957031 1424.57617188 l 5,26,-1
 1048.30957031 702.87890625 l 6,27,28
 1048.00575904 502.792829997 1048.00575904 502.792829997 1094.81738281 345.204101562 c 0,29,30
 1143 183 1143 183 1308.56738281 183 c 2,31,-1
 1355 183 l 1,32,33
 1355 0 l 1,34,-1
 1304.09375 0 l 2,0,1
EndSplineSet
LCarets2: 1 0
Ligature2: "'rlig' Required Ligatures in Arabic lookup 16 subtable" uniFEE0 uniFE8E
EndChar

StartChar: arabic_dot
Encoding: 65536 -1 261
Width: 162
VWidth: 2211
GlyphClass: 2
Flags: W
LayerCount: 2
Fore
SplineSet
107.772460938 204.717773438 m 6,0,-1
 201.240234375 111.25 l 6,1,2
 223.35546875 89.1318359375 223.35546875 89.1318359375 201.815429688 67.796875 c 6,3,-1
 103.807617188 -30.2099609375 l 6,4,5
 79.869140625 -53.224609375 79.869140625 -53.224609375 57.021484375 -30.177734375 c 6,6,-1
 -40.326171875 67.169921875 l 6,7,8
 -63.0244140625 88.6025390625 -63.0244140625 88.6025390625 -36.8125 114.814453125 c 6,9,-1
 54.0703125 205.697265625 l 6,10,11
 80.314453125 232.177734375 80.314453125 232.177734375 107.772460938 204.717773438 c 6,0,-1
EndSplineSet
EndChar

StartChar: arabic_2dots
Encoding: 65537 -1 262
Width: 512
VWidth: 2211
GlyphClass: 2
Flags: W
LayerCount: 2
Fore
SplineSet
115.880859375 200.616210938 m 2,0,-1
 209.138671875 107.359375 l 2,1,2
 227.264648438 89.2333984375 227.264648438 89.2333984375 209.732421875 71.703125 c 2,3,-1
 112.318359375 -25.712890625 l 2,4,5
 92.2197265625 -45.8095703125 92.2197265625 -45.8095703125 72.716796875 -26.306640625 c 2,6,-1
 -25.2275390625 71.6357421875 l 2,7,8
 -42.0673828125 89.3291015625 -42.0673828125 89.3291015625 -21.703125 110.356445312 c 2,9,-1
 69.74609375 201.8046875 l 2,10,11
 92.2197265625 224.280273438 92.2197265625 224.280273438 115.880859375 200.616210938 c 2,0,-1
417.436523438 200.6171875 m 2,12,-1
 510.696289062 107.359375 l 2,13,14
 528.793195358 89.2074335625 528.793195358 89.2074335625 511.26953125 71.68359375 c 2,15,-1
 413.873046875 -25.7138671875 l 2,16,17
 393.983085946 -46.0172656335 393.983085946 -46.0172656335 374.255859375 -26.2900390625 c 2,18,-1
 276.852539062 71.11328125 l 2,19,20
 258.74889195 89.2515888105 258.74889195 89.2515888105 280.420898438 110.923828125 c 2,21,-1
 371.321289062 201.825195312 l 2,22,23
 394 224 394 224 417.436523438 200.6171875 c 2,12,-1
EndSplineSet
EndChar

StartChar: arabic_3dots
Encoding: 65538 -1 263
Width: 515
VWidth: 2211
GlyphClass: 2
Flags: W
LayerCount: 2
Fore
SplineSet
264.125976562 402.76953125 m 6,0,-1
 358.190429688 308.704101562 l 6,1,2
 372.493164062 294.40234375 372.493164062 294.40234375 358.783203125 280.826171875 c 6,3,-1
 261.368164062 183.41015625 l 6,4,5
 245.091796875 167.131835938 245.091796875 167.131835938 229.546875 182.81640625 c 6,6,-1
 132.0703125 280.291015625 l 6,7,8
 117.486328125 294.063476562 117.486328125 294.063476562 135.694335938 312.267578125 c 6,9,-1
 226.576171875 403.149414062 l 6,10,11
 244.904296875 421.478515625 244.904296875 421.478515625 264.125976562 402.76953125 c 6,0,-1
417.984375 173.377929688 m 2,12,-1
 511.2421875 80.12109375 l 2,13,14
 525.292524597 65.6997511592 525.292524597 65.6997511592 511.8359375 52.2431640625 c 2,15,-1
 414.419921875 -45.1728515625 l 2,16,17
 397.913974547 -61.0829198595 397.913974547 -61.0829198595 382.59765625 -45.7666015625 c 2,18,-1
 285.182617188 51.6484375 l 2,19,20
 271.030674202 65.9689604028 271.030674202 65.9689604028 288.74609375 83.6845703125 c 2,21,-1
 379.626953125 174.56640625 l 6,22,23
 398 193 398 193 417.984375 173.377929688 c 2,12,-1
111.67578125 173.377929688 m 2,24,-1
 204.93359375 80.12109375 l 2,25,26
 219.142233399 65.857213625 219.142233399 65.857213625 205.528320312 52.2431640625 c 2,27,-1
 108.11328125 -45.1728515625 l 2,28,29
 91.7596619989 -61.2360701808 91.7596619989 -61.2360701808 76.2900390625 -45.7666015625 c 2,30,-1
 -21.60546875 52.1279296875 l 2,31,32
 -35.1213715987 66.1256987138 -35.1213715987 66.1256987138 -17.5625 83.6845703125 c 2,33,-1
 73.3193359375 174.56640625 l 2,34,35
 92 193 92 193 111.67578125 173.377929688 c 2,24,-1
EndSplineSet
EndChar

StartChar: arabic_3dots_a
Encoding: 65539 -1 264
Width: 490
VWidth: 2211
GlyphClass: 2
Flags: W
LayerCount: 2
Fore
SplineSet
264.125976562 -238.38671875 m 2,0,1
 244.904296875 -257.095703125 244.904296875 -257.095703125 226.576171875 -238.766601562 c 2,2,-1
 135.694335938 -147.884765625 l 2,3,4
 117.486328125 -129.680664062 117.486328125 -129.680664062 132.0703125 -115.908203125 c 2,5,-1
 229.546875 -18.43359375 l 2,6,7
 245.091796875 -2.7490234375 245.091796875 -2.7490234375 261.368164062 -19.02734375 c 2,8,-1
 358.783203125 -116.443359375 l 2,9,10
 372.493164062 -130.01953125 372.493164062 -130.01953125 358.190429688 -144.321289062 c 2,11,-1
 264.125976562 -238.38671875 l 2,0,1
417.984375 -8.9951171875 m 2,12,13
 398 -28.6171875 398 -28.6171875 379.626953125 -10.18359375 c 2,14,-1
 288.74609375 80.6982421875 l 2,15,16
 271.030273438 98.4140625 271.030273438 98.4140625 285.182617188 112.734375 c 2,17,-1
 382.59765625 210.149414062 l 2,18,19
 397.9140625 225.465820312 397.9140625 225.465820312 414.419921875 209.555664062 c 2,20,-1
 511.8359375 112.139648438 l 2,21,22
 525.29296875 98.6826171875 525.29296875 98.6826171875 511.2421875 84.26171875 c 2,23,-1
 417.984375 -8.9951171875 l 2,12,13
111.67578125 -8.9951171875 m 2,24,25
 92 -28.6171875 92 -28.6171875 73.3193359375 -10.18359375 c 2,26,-1
 -17.5625 80.6982421875 l 2,27,28
 -35.12109375 98.2568359375 -35.12109375 98.2568359375 -21.60546875 112.254882812 c 2,29,-1
 76.2900390625 210.149414062 l 2,30,31
 91.759765625 225.619140625 91.759765625 225.619140625 108.11328125 209.555664062 c 2,32,-1
 205.528320312 112.139648438 l 2,33,34
 219.142578125 98.525390625 219.142578125 98.525390625 204.93359375 84.26171875 c 2,35,-1
 111.67578125 -8.9951171875 l 2,24,25
EndSplineSet
EndChar

StartChar: uni066E.fina
Encoding: 65540 -1 265
Width: 1941
VWidth: 2471
GlyphClass: 2
Flags: W
AnchorPoint: "Anchor-10" 735.292 1191.76 basechar 0
AnchorPoint: "Anchor-7" 735.292 -227.22 basechar 0
LayerCount: 2
Fore
SplineSet
1923.73535156 0 m 2,0,1
 1640 0 1640 0 1645.36035156 238.6796875 c 1,2,3
 1386 -44 1386 -44 789 -43.4731256124 c 0,4,5
 457 -43 457 -43 281.400390625 68.4404296875 c 0,6,7
 100 185 100 185 102.040039062 455.759765625 c 0,8,9
 103 587 103 587 140.919921875 671.759765625 c 0,10,11
 163 721 163 721 192.759765625 717.66015625 c 0,12,13
 223 714 223 714 207.145507812 643.064453125 c 0,14,15
 193 578 193 578 194.919921875 490.3203125 c 0,16,17
 203 149 203 149 801 150.458984375 c 0,18,19
 1130 151 1130 151 1323.80078125 208.71875 c 24,20,21
 1587 287 1587 287 1603.20703125 416.084960938 c 0,22,23
 1622.97385332 570.795355927 1622.97385332 570.795355927 1731.90039062 566.3671875 c 2,24,-1
 1758.46875 565.287109375 l 1,25,26
 1732 459 1732 459 1729.38378906 406.848632812 c 24,27,28
 1718 183 1718 183 1929.56738281 183 c 2,29,-1
 1966 183 l 5,30,31
 1966 0 l 5,32,-1
 1923.73535156 0 l 2,0,1
EndSplineSet
EndChar

StartChar: uni06A1.fina
Encoding: 65543 -1 266
Width: 1936
VWidth: 2471
GlyphClass: 2
Flags: W
AnchorPoint: "Anchor-10" 529.959 1309.59 basechar 0
AnchorPoint: "Anchor-7" 652.452 -282.836 basechar 0
LayerCount: 2
Fore
SplineSet
801 150.458984375 m 0,0,1
 1141 151 1141 151 1319.64160156 197.357421875 c 1,2,3
 1125 340 1125 340 1124.84082031 486.638671875 c 0,4,5
 1125 604 1125 604 1198.84082031 693.638671875 c 0,6,7
 1311 830 1311 830 1452.72070312 831.818359375 c 0,8,9
 1585 834 1585 834 1708.4921875 680.518554688 c 0,10,11
 1763 613 1763 613 1761.89941406 502.598632812 c 0,12,13
 1761 372 1761 372 1634.84082031 207.638671875 c 1,14,15
 1705 183 1705 183 1884.56738281 183 c 2,16,-1
 1961 183 l 5,17,18
 1961 0 l 5,19,-1
 1880.09375 0 l 2,20,21
 1621 0 1621 0 1474.55761719 102.173828125 c 1,22,23
 1252 -44 1252 -44 789 -43.47265625 c 24,24,25
 457 -43 457 -43 281.400390625 68.4404296875 c 0,26,27
 100 185 100 185 102.040039062 455.759765625 c 0,28,29
 103 587 103 587 140.919921875 671.759765625 c 0,30,31
 163 721 163 721 192.759765625 717.66015625 c 0,32,33
 223 714 223 714 207.145507812 643.064453125 c 0,34,35
 193 578 193 578 194.919921875 490.3203125 c 0,36,37
 203 149 203 149 801 150.458984375 c 0,0,1
1486.84082031 259.638671875 m 1,38,39
 1625 364 1625 364 1650.48535156 516.638671875 c 1,40,41
 1568.88644607 656.480830939 1568.88644607 656.480830939 1448.34082031 660.138671875 c 0,42,43
 1387 662 1387 662 1324.84082031 597.638671875 c 0,44,45
 1262 534 1262 534 1262.74316406 482.638671875 c 0,46,47
 1263 386 1263 386 1486.84082031 259.638671875 c 1,38,39
EndSplineSet
EndChar

StartChar: uni06A1.init
Encoding: 65544 -1 267
Width: 753
VWidth: 2491
GlyphClass: 2
Flags: W
AnchorPoint: "Anchor-10" 470.555 1351.6 basechar 0
AnchorPoint: "Anchor-7" 367.522 -224.826 basechar 0
LayerCount: 2
Fore
SplineSet
-25 183 m 5,0,-1
 359 183 l 2,1,2
 533 183 533 183 542 396 c 1,3,4
 431 365 431 365 343 365 c 0,5,6
 166 365 166 365 93 466 c 0,7,8
 51 524 51 524 51 602 c 0,9,10
 51 664 51 664 77 738 c 0,11,12
 174 1019 174 1019 356 1019 c 0,13,14
 523 1019 523 1019 599 828 c 0,15,16
 659 677 659 677 659 484 c 0,17,18
 659 435 659 435 655 383 c 0,19,20
 628 0 628 0 353 0 c 2,21,-1
 -25 0 l 5,22,23
 -25 183 l 5,0,-1
182 653 m 0,24,25
 180.203758103 642.22254862 180.203758103 642.22254862 180.203758103 632.61308748 c 0,26,27
 180.203758103 594.13756461 180.203758103 594.13756461 209 574.386540667 c 0,28,29
 248.928534948 547 248.928534948 547 342 547 c 0,30,31
 434 547 434 547 545 573 c 1,32,33
 535 652 535 652 493 733 c 0,34,35
 440 834 440 834 355 835 c 0,36,37
 220 834 220 834 182 653 c 0,24,25
EndSplineSet
EndChar

StartChar: uni06A1.medi
Encoding: 65545 -1 268
Width: 997
VWidth: 2471
GlyphClass: 2
Flags: W
AnchorPoint: "Anchor-10" 601.923 1057.74 basechar 0
AnchorPoint: "Anchor-7" 601.923 -220.283 basechar 0
LayerCount: 2
Fore
SplineSet
911.09375 0 m 2,0,1
 752 0 752 0 547.805664062 91.626953125 c 1,2,3
 384 0 384 0 50.0927734375 0 c 2,4,-1
 -24.947265625 0 l 5,5,6
 -24.947265625 183 l 5,7,-1
 48.8798828125 183 l 2,8,9
 245 183 245 183 391.80078125 201.71875 c 1,10,11
 197 344 197 344 197 491 c 0,12,13
 197 608 197 608 271 698 c 0,14,15
 384 835 384 835 524.879882812 836.1796875 c 0,16,17
 657 838 657 838 780.651367188 684.879882812 c 0,18,19
 835 617 835 617 834.05859375 506.959960938 c 0,20,21
 833 376 833 376 707 212 c 1,22,23
 828 183 828 183 915.567382812 183 c 2,24,-1
 1022 183 l 1,25,-1
 1022 0 l 1,26,-1
 911.09375 0 l 2,0,1
559 264 m 1,27,28
 697 368 697 368 722.64453125 521 c 1,29,30
 640 662 640 662 520.5 664.5 c 0,31,32
 459 666 459 666 397 602 c 0,33,34
 334 538 334 538 334.90234375 487 c 0,35,36
 335 390 335 390 559 264 c 1,27,28
EndSplineSet
EndChar

StartChar: uni066F.fina
Encoding: 65546 -1 269
Width: 1425
VWidth: 2491
GlyphClass: 2
Flags: W
AnchorPoint: "Anchor-10" 376.133 1030.23 basechar 0
AnchorPoint: "Anchor-7" 471.89 -822.999 basechar 0
LayerCount: 2
Fore
SplineSet
1314.62695312 183 m 9,0,1
 1450 183 l 5,2,3
 1450 0 l 5,4,-1
 1310.95996094 0 l 17,5,6
 1307 -57 1307 -57 1292.25683594 -119.879882812 c 0,7,8
 1193 -544 1193 -544 661.930664062 -545.791015625 c 0,9,10
 343 -547 343 -547 187.1328125 -346.896484375 c 0,11,12
 56 -178 56 -178 114.48046875 114.48046875 c 0,13,14
 135 217 135 217 190.567382812 336.994140625 c 0,15,16
 219 399 219 399 255.419921875 388.259765625 c 0,17,18
 292 378 292 378 265.825195312 307.799804688 c 0,19,20
 179 75 179 75 235.631835938 -109.409179688 c 0,21,22
 313 -364 313 -364 665.360351562 -362.66796875 c 0,23,24
 1164 -361 1164 -361 1195.05664062 -14.005859375 c 0,25,-1
 1197 0 l 1,26,27
 1150 -2 1150 -2 1026.34960938 -2.7265625 c 0,28,29
 829 -5 829 -5 761.284179688 79.7919921875 c 0,30,31
 707 147 707 147 707.617804011 243 c 0,32,33
 708 372 708 372 782 514 c 0,34,35
 872 685 872 685 1021.48144531 683.17578125 c 0,36,37
 1164 682 1164 682 1244.12011719 517.3203125 c 0,38,39
 1304 395 1304 395 1314.62695312 183 c 9,0,1
995.267578125 508.27734375 m 0,40,41
 883.857887971 498.903908601 883.857887971 498.903908601 844.9375 309.765625 c 0,42,43
 817 173 817 173 1022.51953125 178.217773438 c 0,44,45
 1109 180 1109 180 1194.81933594 181.125976562 c 1,46,47
 1181 326 1181 326 1136.85058594 415.609375 c 0,48,49
 1087 516 1087 516 995.267578125 508.27734375 c 0,40,41
EndSplineSet
EndChar

StartChar: arabic_gaf_bar
Encoding: 65550 -1 270
Width: 727
VWidth: 2211
GlyphClass: 2
Flags: W
LayerCount: 2
Fore
SplineSet
546.48046875 1621 m 2,0,-1
 0 1433.6796875 l 1,1,-1
 0 1452.04003906 l 2,2,3
 0 1546.78331797 0 1546.78331797 113.400390625 1584.33984375 c 6,4,-1
 682.559570312 1772.83691406 l 5,5,-1
 682.559570312 1755.55664062 l 6,6,7
 683 1668 683 1668 546.48046875 1621 c 2,0,-1
EndSplineSet
EndChar

StartChar: guillemotleft
Encoding: 171 171 280
Width: 1079
VWidth: 2612
Flags: W
LayerCount: 2
Fore
SplineSet
516.614257812 1030.69238281 m 5,0,-1
 484.989257812 975.086914062 l 6,1,2
 333 708 333 708 332.89453125 516.478515625 c 4,3,4
 332.999949217 335.087381909 332.999949217 335.087381909 484.9375 69.0029296875 c 2,5,-1
 516.720703125 13.341796875 l 1,6,-1
 368.282226562 13.341796875 l 1,7,-1
 357.078125 30.9892578125 l 2,8,9
 151 356 151 356 151.482421875 516.572265625 c 4,10,11
 150.999594683 687.143188508 150.999594683 687.143188508 357.290039062 1013.36523438 c 6,12,-1
 368.247070312 1030.69238281 l 5,13,-1
 516.614257812 1030.69238281 l 5,0,-1
797.196289062 13.341796875 m 1,14,15
 580 355 580 355 580.39453125 516.405273438 c 4,16,17
 579.999496513 687.217707036 579.999496513 687.217707036 786.206054688 1013.36523438 c 6,18,-1
 797.161132812 1030.69238281 l 5,19,-1
 945.529296875 1030.69238281 l 5,20,-1
 913.904296875 975.086914062 l 6,21,22
 762 708 762 708 761.810546875 516.477539062 c 4,23,24
 762.000038678 334.962950714 762.000038678 334.962950714 913.852539062 69.0029296875 c 2,25,-1
 945.6328125 13.341796875 l 1,26,-1
 797.196289062 13.341796875 l 1,14,15
EndSplineSet
EndChar

StartChar: guillemotright
Encoding: 187 187 281
Width: 1079
VWidth: 2612
Flags: W
LayerCount: 2
Fore
SplineSet
580.500976562 1030.69238281 m 1,0,-1
 728.868164062 1030.69238281 l 1,1,-1
 739.825195312 1013.36523438 l 2,2,3
 946 687 946 687 945.6328125 516.572265625 c 0,4,5
 945.999095992 355.397787418 945.999095992 355.397787418 740.037109375 30.9892578125 c 2,6,-1
 728.833007812 13.341796875 l 1,7,-1
 580.39453125 13.341796875 l 1,8,-1
 612.177734375 69.0029296875 l 2,9,10
 764 335 764 335 764.220703125 516.478515625 c 0,11,12
 763.999941675 708.050613011 763.999941675 708.050613011 612.125976562 975.086914062 c 2,13,-1
 580.500976562 1030.69238281 l 1,0,-1
299.918945312 13.341796875 m 5,14,-1
 151.482421875 13.341796875 l 1,15,-1
 183.262695312 69.0029296875 l 2,16,17
 335 335 335 335 335.3046875 516.477539062 c 0,18,19
 334.999681101 708.200455925 334.999681101 708.200455925 183.2109375 975.086914062 c 2,20,-1
 151.5859375 1030.69238281 l 1,21,-1
 299.954101562 1030.69238281 l 5,22,-1
 310.909179688 1013.36523438 l 6,23,24
 517 687 517 687 516.720703125 516.405273438 c 0,25,26
 517 355 517 355 299.918945312 13.341796875 c 5,14,-1
EndSplineSet
EndChar

StartChar: exclam
Encoding: 33 33 290
Width: 676
VWidth: -1
Flags: W
LayerCount: 2
Fore
SplineSet
345.694335938 1414.90722656 m 5,0,-1
 357.977539062 1414.54980469 l 6,1,2
 403.393554688 1413.34277344 403.393554688 1413.34277344 423.927734375 1378.88867188 c 132,-1,3
 444.461914062 1344.43457031 444.461914062 1344.43457031 440.002929688 1274.03515625 c 6,4,-1
 391.899414062 514.508789062 l 6,5,6
 391.455078125 509.053710938 391.455078125 509.053710938 386.610351562 505.037109375 c 132,-1,7
 381.765625 501.01953125 381.765625 501.01953125 370.237304688 498.396484375 c 132,-1,8
 358.708007812 495.7734375 358.708007812 495.7734375 341.17578125 495.6640625 c 4,9,10
 325.782226562 495.747070312 325.782226562 495.747070312 314.260742188 497.327148438 c 132,-1,11
 302.740234375 498.90625 302.740234375 498.90625 295.935546875 501.678710938 c 132,-1,12
 289.131835938 504.450195312 289.131835938 504.450195312 285.736328125 507.896484375 c 132,-1,13
 282.341796875 511.341796875 282.341796875 511.341796875 282.029296875 515.526367188 c 6,14,-1
 225.383789062 1273.69335938 l 6,15,16
 224.99609375 1285.203125 224.99609375 1285.203125 224.4453125 1296.72265625 c 4,17,18
 223.059570312 1414.90722656 223.059570312 1414.90722656 317.345703125 1414.90722656 c 6,19,-1
 345.694335938 1414.90722656 l 5,0,-1
205 153.837890625 m 0,20,21
 205 161.671875 205 161.671875 205.791015625 169.162109375 c 128,-1,22
 206.58203125 176.65234375 206.58203125 176.65234375 208.166992188 183.81640625 c 128,-1,23
 209.752929688 190.981445312 209.752929688 190.981445312 212.135742188 197.817382812 c 128,-1,24
 214.51953125 204.653320312 214.51953125 204.653320312 217.700195312 211.171875 c 128,-1,25
 220.881835938 217.690429688 220.881835938 217.690429688 224.869140625 223.897460938 c 128,-1,26
 228.85546875 230.104492188 228.85546875 230.104492188 233.64453125 236.001953125 c 128,-1,27
 238.43359375 241.899414062 238.43359375 241.899414062 244.03515625 247.501953125 c 0,28,29
 283.071289062 286.537109375 283.071289062 286.537109375 337.700195312 286.537109375 c 128,-1,30
 392.33984375 286.537109375 392.33984375 286.537109375 432.375 248.512695312 c 0,31,32
 470.400390625 208.4765625 470.400390625 208.4765625 470.400390625 153.837890625 c 128,-1,33
 470.400390625 99.208984375 470.400390625 99.208984375 431.365234375 60.1728515625 c 128,-1,34
 392.329101562 21.1376953125 392.329101562 21.1376953125 337.700195312 21.1376953125 c 128,-1,35
 283.071289062 21.1376953125 283.071289062 21.1376953125 244.03515625 60.1728515625 c 128,-1,36
 205 99.208984375 205 99.208984375 205 153.837890625 c 0,20,21
432.375 248.512695312 m 128,-1,38
 432.420898438 248.469726562 432.420898438 248.469726562 432.465820312 248.426757812 c 2,39,-1
 432.2890625 248.603515625 l 2,40,37
 432.33203125 248.55859375 432.33203125 248.55859375 432.375 248.512695312 c 128,-1,38
EndSplineSet
EndChar

StartChar: colon
Encoding: 58 58 291
Width: 676
VWidth: 3384
Flags: W
LayerCount: 2
Fore
SplineSet
205 153.837890625 m 0,0,1
 205 161.671875 205 161.671875 205.791015625 169.162109375 c 128,-1,2
 206.58203125 176.65234375 206.58203125 176.65234375 208.166992188 183.81640625 c 128,-1,3
 209.752929688 190.981445312 209.752929688 190.981445312 212.135742188 197.817382812 c 128,-1,4
 214.51953125 204.653320312 214.51953125 204.653320312 217.700195312 211.171875 c 128,-1,5
 220.881835938 217.690429688 220.881835938 217.690429688 224.869140625 223.897460938 c 128,-1,6
 228.85546875 230.104492188 228.85546875 230.104492188 233.64453125 236.001953125 c 128,-1,7
 238.43359375 241.899414062 238.43359375 241.899414062 244.03515625 247.501953125 c 0,8,9
 283.071289062 286.537109375 283.071289062 286.537109375 337.700195312 286.537109375 c 128,-1,10
 392.33984375 286.537109375 392.33984375 286.537109375 432.375 248.512695312 c 0,11,12
 470.400390625 208.4765625 470.400390625 208.4765625 470.400390625 153.837890625 c 128,-1,13
 470.400390625 99.208984375 470.400390625 99.208984375 431.365234375 60.1728515625 c 128,-1,14
 392.329101562 21.1376953125 392.329101562 21.1376953125 337.700195312 21.1376953125 c 128,-1,15
 283.071289062 21.1376953125 283.071289062 21.1376953125 244.03515625 60.1728515625 c 128,-1,16
 205 99.208984375 205 99.208984375 205 153.837890625 c 0,0,1
205 873.837890625 m 128,-1,18
 205 928.465820312 205 928.465820312 244.03515625 967.501953125 c 128,-1,19
 283.071289062 1006.53710938 283.071289062 1006.53710938 337.700195312 1006.53710938 c 128,-1,20
 392.33984375 1006.53710938 392.33984375 1006.53710938 432.375 968.512695312 c 0,21,22
 470.400390625 928.4765625 470.400390625 928.4765625 470.400390625 873.837890625 c 0,23,24
 470.400390625 846.423828125 470.400390625 846.423828125 460.680664062 823.096679688 c 128,-1,25
 450.9609375 799.768554688 450.9609375 799.768554688 431.365234375 780.172851562 c 0,26,27
 392.329101562 741.137695312 392.329101562 741.137695312 337.700195312 741.137695312 c 0,28,29
 319.41796875 741.137695312 319.41796875 741.137695312 302.974609375 745.453125 c 128,-1,30
 286.532226562 749.768554688 286.532226562 749.768554688 271.819335938 758.436523438 c 128,-1,31
 257.10546875 767.103515625 257.10546875 767.103515625 244.03515625 780.172851562 c 0,32,17
 205 819.208984375 205 819.208984375 205 873.837890625 c 128,-1,18
432.375 248.512695312 m 128,-1,34
 432.420898438 248.469726562 432.420898438 248.469726562 432.465820312 248.426757812 c 2,35,-1
 432.2890625 248.603515625 l 2,36,33
 432.33203125 248.55859375 432.33203125 248.55859375 432.375 248.512695312 c 128,-1,34
432.375 968.512695312 m 128,-1,38
 432.420898438 968.469726562 432.420898438 968.469726562 432.465820312 968.426757812 c 2,39,-1
 432.2890625 968.603515625 l 2,40,37
 432.33203125 968.55859375 432.33203125 968.55859375 432.375 968.512695312 c 128,-1,38
EndSplineSet
EndChar

StartChar: period
Encoding: 46 46 292
Width: 676
VWidth: 3384
Flags: W
LayerCount: 2
Fore
SplineSet
205 153.837890625 m 0,0,1
 205 161.671875 205 161.671875 205.791015625 169.162109375 c 128,-1,2
 206.58203125 176.65234375 206.58203125 176.65234375 208.166992188 183.81640625 c 128,-1,3
 209.752929688 190.981445312 209.752929688 190.981445312 212.135742188 197.817382812 c 128,-1,4
 214.51953125 204.653320312 214.51953125 204.653320312 217.700195312 211.171875 c 128,-1,5
 220.881835938 217.690429688 220.881835938 217.690429688 224.869140625 223.897460938 c 128,-1,6
 228.85546875 230.104492188 228.85546875 230.104492188 233.64453125 236.001953125 c 128,-1,7
 238.43359375 241.899414062 238.43359375 241.899414062 244.03515625 247.501953125 c 0,8,9
 283.071289062 286.537109375 283.071289062 286.537109375 337.700195312 286.537109375 c 128,-1,10
 392.33984375 286.537109375 392.33984375 286.537109375 432.375 248.512695312 c 0,11,12
 470.400390625 208.4765625 470.400390625 208.4765625 470.400390625 153.837890625 c 128,-1,13
 470.400390625 99.208984375 470.400390625 99.208984375 431.365234375 60.1728515625 c 128,-1,14
 392.329101562 21.1376953125 392.329101562 21.1376953125 337.700195312 21.1376953125 c 128,-1,15
 283.071289062 21.1376953125 283.071289062 21.1376953125 244.03515625 60.1728515625 c 128,-1,16
 205 99.208984375 205 99.208984375 205 153.837890625 c 0,0,1
432.375 248.512695312 m 128,-1,18
 432.420898438 248.469726562 432.420898438 248.469726562 432.465820312 248.426757812 c 2,19,-1
 432.2890625 248.603515625 l 2,20,17
 432.33203125 248.55859375 432.33203125 248.55859375 432.375 248.512695312 c 128,-1,18
EndSplineSet
EndChar

StartChar: NameMe.65541
Encoding: 65541 -1 293
Width: 584
VWidth: 2473
Flags: W
AnchorPoint: "Anchor-10" 242.869 1140.81 basechar 0
AnchorPoint: "Anchor-7" 248.422 -233.744 basechar 0
LayerCount: 2
Fore
SplineSet
78.8798828125 183 m 2,0,1
 388 183 388 183 354.639648438 366.439453125 c 0,2,3
 351 386 351 386 335.83984375 427.120117188 c 0,4,5
 301 522 301 522 292.37890625 554.717773438 c 0,6,7
 248.970906152 711.104817103 248.970906152 711.104817103 393.6328125 780.275390625 c 2,8,-1
 410.216796875 788.205078125 l 1,9,10
 487 559 487 559 486.354492188 367 c 0,11,12
 486 213 486 213 402.73046875 117.666992188 c 0,13,14
 301 0 301 0 80.0927734375 0 c 2,15,-1
 -24.947265625 0 l 5,16,17
 -24.947265625 183 l 5,18,-1
 78.8798828125 183 l 2,0,1
EndSplineSet
EndChar

StartChar: NameMe.65542
Encoding: 65542 -1 294
Width: 667
VWidth: 2477
Flags: W
AnchorPoint: "Anchor-10" 291.202 1085.49 basechar 0
AnchorPoint: "Anchor-7" 320.596 -156.627 basechar 0
LayerCount: 2
Fore
SplineSet
692 0 m 1,0,-1
 651.09375 0 l 2,1,2
 475 0 475 0 395.959960938 164.803710938 c 1,3,4
 284 0 284 0 20.0927734375 0 c 2,5,-1
 -24.947265625 0 l 5,6,7
 -24.947265625 183 l 5,8,-1
 18.8798828125 183 l 2,9,10
 165 183 165 183 242.600585938 213.803710938 c 0,11,12
 310.334114148 241.13481816 310.334114148 241.13481816 325.760742188 361.36328125 c 2,13,-1
 339.120117188 465.48046875 l 2,14,15
 352.029927165 563.226592362 352.029927165 563.226592362 463.28125 567.498046875 c 2,16,-1
 478.440429688 568.080078125 l 1,17,-1
 461.940429688 438.5390625 l 2,18,19
 429 183 429 183 655.567382812 183 c 2,20,-1
 692 183 l 1,21,-1
 692 0 l 1,0,-1
EndSplineSet
EndChar
